<svg width="22" height="38" viewBox="0 0 22 38" fill="none" xmlns="http://www.w3.org/2000/svg">
<path opacity="0.75" d="M1.65925 1.78359L1.65929 1.78363L1.66443 1.77773C2.09705 1.28095 2.67502 1.04688 3.2545 1.04688C3.78218 1.04688 4.32602 1.25694 4.7717 1.65361L20.4458 17.3048C21.2869 18.1447 21.2869 19.4734 20.4458 20.3133L4.76199 35.9742C3.89774 36.8372 2.50331 36.8113 1.68841 35.8905L1.68586 35.8876C0.953506 35.0728 1.03572 33.7556 1.85334 32.9391L15.5872 19.2253L15.2339 18.8715L15.5872 19.2253C15.6871 19.1255 15.7433 18.9901 15.7433 18.8489C15.7433 18.7077 15.6872 18.5722 15.5872 18.4724C15.5872 18.4724 15.5872 18.4724 15.5872 18.4724L1.82676 4.73206L1.47347 5.08588L1.82676 4.73206C1.00914 3.91563 0.926904 2.59844 1.65925 1.78359Z" fill="url(#paint0_linear)" stroke="#6C5BA7"/>
<defs>
<linearGradient id="paint0_linear" x1="-3.89887" y1="19.8729" x2="20.2687" y2="31.6679" gradientUnits="userSpaceOnUse">
<stop stop-color="#2E1A47"/>
<stop offset="1" stop-color="#6C5BA7"/>
</linearGradient>
</defs>
</svg>
