<svg width="34" height="30" viewBox="0 0 34 30" fill="none" xmlns="http://www.w3.org/2000/svg">
<path d="M33.8515 12.8847L30.2225 9.98494V4.21815C30.2225 4.09383 30.1727 3.9746 30.0842 3.88669C29.9956 3.79878 29.8755 3.7494 29.7503 3.7494H28.8058C28.6806 3.7494 28.5605 3.79878 28.4719 3.88669C28.3833 3.9746 28.3336 4.09383 28.3336 4.21815V8.47205L18.3343 0.468146C17.9572 0.164271 17.4863 -0.00158691 17.0006 -0.00158691C16.5148 -0.00158691 16.0439 0.164271 15.6668 0.468146L0.149597 12.8847C0.108605 12.9172 0.0745234 12.9575 0.0493315 13.0032C0.0241397 13.0488 0.00833926 13.099 0.00284767 13.1508C-0.00264392 13.2026 0.00228271 13.255 0.0173415 13.3048C0.0324003 13.3547 0.0572913 13.4011 0.0905693 13.4414L0.928764 14.4668C0.962073 14.5076 1.00316 14.5415 1.04968 14.5665C1.0962 14.5916 1.14723 14.6073 1.19986 14.6127C1.25249 14.6181 1.30569 14.6132 1.3564 14.5982C1.40712 14.5833 1.45436 14.5585 1.49543 14.5254L3.77803 12.6978V29.0619C3.77803 29.3105 3.87754 29.549 4.05466 29.7248C4.23177 29.9006 4.472 29.9994 4.72248 29.9994H29.278C29.5285 29.9994 29.7687 29.9006 29.9459 29.7248C30.123 29.549 30.2225 29.3105 30.2225 29.0619V12.7037L32.5128 14.5371C32.5958 14.6038 32.7021 14.6352 32.8083 14.6242C32.9145 14.6132 33.0121 14.5608 33.0794 14.4785L33.917 13.4531C33.9808 13.3678 34.0096 13.2616 33.9974 13.1561C33.9853 13.0505 33.9331 12.9535 33.8515 12.8847V12.8847ZM19.8336 28.1244H14.1669V18.7494H19.8336V28.1244ZM28.3336 28.1244H21.7225V17.8119C21.7225 17.5633 21.623 17.3248 21.4459 17.149C21.2687 16.9732 21.0285 16.8744 20.778 16.8744H13.2225C12.972 16.8744 12.7318 16.9732 12.5547 17.149C12.3775 17.3248 12.278 17.5633 12.278 17.8119V28.1244H5.66692V11.1861L16.747 2.31502C16.817 2.25819 16.9046 2.22713 16.9949 2.22713C17.0853 2.22713 17.1729 2.25819 17.2429 2.31502L28.3336 11.1908V28.1244Z" stroke="url(#paint0_linear)" stroke-opacity="0.5" stroke-width="2" stroke-linecap="round" stroke-linejoin="round"/>
<defs>
<linearGradient id="paint0_linear" x1="34.0002" y1="32.7268" x2="0.989623" y2="2.99157" gradientUnits="userSpaceOnUse">
<stop stop-color="#121212"/>
<stop offset="0.234375" stop-color="#212121"/>
<stop offset="0.442708" stop-color="#333333"/>
<stop offset="0.682292" stop-color="#212121"/>
<stop offset="1" stop-color="#121212"/>
</linearGradient>
</defs>
</svg>
