<svg width="42" height="42" viewBox="0 0 42 42" fill="none" xmlns="http://www.w3.org/2000/svg">
<path d="M21 41.8359C20.2782 41.8359 13.9781 41.7703 13.9781 39.5391C13.9781 37.3078 20.2782 37.2422 21 37.2422C21.7219 37.2422 28.0219 37.3078 28.0219 39.5391C28.0219 41.7703 21.7219 41.8359 21 41.8359ZM15.3563 39.5391C15.8156 39.9328 17.8828 40.5234 21 40.5234C24.15 40.5234 26.1844 39.9328 26.6438 39.5391C26.1844 39.1453 24.1172 38.5547 21 38.5547C17.85 38.5547 15.8156 39.1453 15.3563 39.5391Z" fill="white" fill-opacity="0.35"/>
<path d="M21 35.3063C10.6313 35.3063 2.23126 26.8734 2.23126 16.5375C2.23126 16.1766 2.52657 15.8813 2.88751 15.8813H5.31564C5.67657 15.8813 5.97189 16.1766 5.97189 16.5375C5.97189 16.8984 5.67657 17.1938 5.31564 17.1938H3.54376C3.9047 26.5125 11.5828 33.9938 21 33.9938C30.4172 33.9938 38.1281 26.5125 38.4563 17.1938H36.6844C36.3234 17.1938 36.0281 16.8984 36.0281 16.5375C36.0281 16.1766 36.3234 15.8813 36.6844 15.8813H39.1125C39.4734 15.8813 39.7688 16.1766 39.7688 16.5375C39.7688 26.8734 31.3688 35.3063 21 35.3063Z" fill="white" fill-opacity="0.35"/>
<path d="M21 32.8453C11.9766 32.8453 4.65936 25.5281 4.65936 16.5047C4.65936 7.48125 11.9766 0.164062 21 0.164062C30.0234 0.164062 37.3406 7.48125 37.3406 16.5047C37.3406 25.5281 30.0234 32.8453 21 32.8453ZM21 1.47656C12.6984 1.47656 5.97186 8.23594 5.97186 16.5047C5.97186 24.7734 12.6984 31.5328 21 31.5328C29.3015 31.5328 36.0281 24.7734 36.0281 16.5047C36.0281 8.23594 29.3015 1.47656 21 1.47656Z" fill="white" fill-opacity="0.35"/>
<path d="M21 29.0063C14.1094 29.0063 8.49847 23.3953 8.49847 16.5047C8.49847 9.61406 14.1094 4.00313 21 4.00313C27.8907 4.00313 33.5016 9.61406 33.5016 16.5047C33.5016 23.3953 27.8907 29.0063 21 29.0063ZM21 4.65938C14.4703 4.65938 9.15472 9.975 9.15472 16.5047C9.15472 23.0344 14.4703 28.35 21 28.35C27.5297 28.35 32.8453 23.0344 32.8453 16.5047C32.8453 9.975 27.5297 4.65938 21 4.65938Z" fill="white" fill-opacity="0.35"/>
<path d="M21 40.3266C20.6391 40.3266 20.3438 40.0312 20.3438 39.6703V34.65C20.3438 34.2891 20.6391 33.9937 21 33.9937C21.3609 33.9937 21.6562 34.2891 21.6562 34.65V39.6703C21.6562 40.0312 21.3609 40.3266 21 40.3266Z" fill="white" fill-opacity="0.35"/>
<path d="M14.4375 17.5875C14.3391 17.5875 14.2734 17.5547 14.2078 17.4891C14.0766 17.3578 14.0766 17.1609 14.2078 17.0297L21.525 9.7125C21.6562 9.58125 21.8531 9.58125 21.9844 9.7125C22.1156 9.84375 22.1156 10.0406 21.9844 10.1719L14.6672 17.5219C14.6016 17.5547 14.5031 17.5875 14.4375 17.5875Z" fill="white" fill-opacity="0.35"/>
<path d="M15.061 22.7719C14.9625 22.7719 14.8969 22.7391 14.8313 22.6734C14.7 22.5422 14.7 22.3453 14.8313 22.2141L26.7094 10.3359C26.8407 10.2047 27.0375 10.2047 27.1688 10.3359C27.3 10.4672 27.3 10.6641 27.1688 10.7953L15.2907 22.6734C15.225 22.7391 15.1594 22.7719 15.061 22.7719Z" fill="white" fill-opacity="0.35"/>
<path d="M20.2453 23.3953C20.1469 23.3953 20.0812 23.3625 20.0156 23.2969C19.8844 23.1656 19.8844 22.9687 20.0156 22.8375L27.3328 15.5203C27.4641 15.3891 27.6609 15.3891 27.7922 15.5203C27.9234 15.6516 27.9234 15.8484 27.7922 15.9797L20.475 23.2969C20.4094 23.3625 20.3109 23.3953 20.2453 23.3953Z" fill="white" fill-opacity="0.35"/>
</svg>
