<svg width="35" height="35" viewBox="0 0 35 35" fill="none" xmlns="http://www.w3.org/2000/svg">
<path d="M33.7186 3.8442L31.1558 1.28141C29.4473 -0.427101 26.6772 -0.427169 24.9686 1.28141L0.877561 25.3724L0.010284 33.1779C-0.10579 34.2228 0.777277 35.1058 1.82208 34.9897L9.62764 34.1224L33.7187 10.0314C35.4271 8.32283 35.4271 5.55271 33.7186 3.8442ZM11.2578 23.742C11.685 24.1692 12.3775 24.1692 12.8046 23.742L25.1562 11.3905L27.2111 13.4453L11.8945 28.7618V26.3867H8.61325V23.1054H6.2381L21.5547 7.78888L23.6095 9.84369L11.2578 22.1954C10.8306 22.6225 10.8306 23.3149 11.2578 23.742ZM8.6233 32.033L4.59044 32.4811L2.5188 30.4095L2.9669 26.3766L4.32404 25.0195H6.69919V28.3007H9.98044V30.6759L8.6233 32.033ZM32.1718 8.48457L28.7578 11.8985L23.1014 6.24211L26.5154 2.82817C27.3702 1.97334 28.754 1.9732 29.609 2.82817L32.1718 5.39097C33.0267 6.24587 33.0267 7.62953 32.1718 8.48457Z" fill="white" fill-opacity="0.35"/>
</svg>
