<svg width="39" height="35" viewBox="0 0 39 35" fill="none" xmlns="http://www.w3.org/2000/svg">
<path d="M19.5 16.2812C18.2948 16.2812 17.1166 16.6386 16.1145 17.3082C15.1124 17.9778 14.3313 18.9295 13.8701 20.043C13.4089 21.1565 13.2882 22.3818 13.5234 23.5638C13.7585 24.7459 14.3389 25.8317 15.1911 26.6839C16.0433 27.5362 17.1291 28.1165 18.3112 28.3517C19.4933 28.5868 20.7185 28.4661 21.832 28.0049C22.9455 27.5437 23.8972 26.7626 24.5668 25.7605C25.2364 24.7584 25.5938 23.5802 25.5938 22.375C25.5938 20.7588 24.9517 19.2089 23.8089 18.0661C22.6661 16.9233 21.1162 16.2812 19.5 16.2812ZM19.5 26.0312C18.7769 26.0312 18.07 25.8168 17.4687 25.4151C16.8674 25.0133 16.3988 24.4423 16.1221 23.7742C15.8453 23.1061 15.7729 22.3709 15.914 21.6617C16.0551 20.9525 16.4033 20.301 16.9147 19.7896C17.426 19.2783 18.0775 18.9301 18.7867 18.789C19.496 18.6479 20.2311 18.7203 20.8992 18.9971C21.5673 19.2738 22.1383 19.7424 22.5401 20.3437C22.9418 20.945 23.1563 21.6519 23.1563 22.375C23.1553 23.3444 22.7697 24.2738 22.0843 24.9592C21.3988 25.6447 20.4694 26.0302 19.5 26.0312ZM28.2164 12.644C27.79 11.8978 27.1739 11.2775 26.4305 10.8461C25.6872 10.4147 24.843 10.1875 23.9835 10.1875H15.0165C14.1571 10.1875 13.3129 10.4147 12.5695 10.8461C11.8261 11.2775 11.21 11.8978 10.7837 12.644L2.7582 26.6879C2.54786 27.0563 2.43732 27.4732 2.43751 27.8975V32.125C2.43751 32.7715 2.69432 33.3915 3.15144 33.8486C3.60856 34.3057 4.22855 34.5625 4.87501 34.5625H34.125C34.7715 34.5625 35.3915 34.3057 35.8486 33.8486C36.3057 33.3915 36.5625 32.7715 36.5625 32.125V27.8975C36.5627 27.4732 36.4522 27.0563 36.2418 26.6879L28.2164 12.644ZM34.125 32.125H4.87501V27.8975L12.9005 13.8529C13.1141 13.4803 13.4222 13.1705 13.7937 12.955C14.1652 12.7394 14.587 12.6256 15.0165 12.625H23.9835C24.413 12.6256 24.8348 12.7394 25.2063 12.955C25.5778 13.1705 25.8859 13.4803 26.0995 13.8529L34.125 27.8975V32.125ZM38.1065 7.00352C32.8849 2.81482 26.2648 0.4375 19.5 0.4375C12.7352 0.4375 6.11509 2.81482 0.893508 7.00352C0.611641 7.23542 0.385142 7.52736 0.230556 7.85801C0.0759708 8.18866 -0.00279571 8.54967 1.14451e-05 8.91467V13.8438C1.14451e-05 14.167 0.128415 14.477 0.356975 14.7055C0.585535 14.9341 0.895529 15.0625 1.21876 15.0625H6.55917C6.78554 15.0624 7.00742 14.9994 7.19995 14.8803C7.39247 14.7612 7.54803 14.5909 7.64919 14.3884L9.75001 9.57812C12.7893 8.26188 16.0898 7.75 19.5 7.75C22.9102 7.75 26.2092 8.26188 29.25 9.57812L31.3508 14.3884C31.452 14.5909 31.6076 14.7612 31.8001 14.8803C31.9926 14.9994 32.2145 15.0624 32.4409 15.0625H37.7813C38.1045 15.0625 38.4145 14.9341 38.6431 14.7055C38.8716 14.477 39 14.167 39 13.8438V8.91467C39.0028 8.54967 38.9241 8.18866 38.7695 7.85801C38.6149 7.52736 38.3884 7.23542 38.1065 7.00352ZM36.5625 12.625H33.2407L31.4834 8.60236L31.1025 7.72258L30.2212 7.34172C27.0662 5.97596 23.56 5.3125 19.5 5.3125C15.4401 5.3125 11.9346 5.97596 8.78187 7.34096L7.90056 7.72182L7.5197 8.6016L5.75937 12.625H2.43294L2.41923 8.90477C7.26456 5.01649 13.2875 2.89031 19.5 2.875C25.7094 2.88628 31.7288 5.017 36.5625 8.91467V12.625Z" fill="white" fill-opacity="0.35"/>
</svg>
