<svg width="37" height="37" viewBox="0 0 37 37" fill="none" xmlns="http://www.w3.org/2000/svg">
<path d="M36.3001 34.3798L27.0913 25.171C26.9271 25.0068 26.7129 24.9211 26.4845 24.9211H25.7492C28.1978 22.2727 29.6969 18.739 29.6969 14.8484C29.6969 6.6461 23.0508 0 14.8484 0C6.6461 0 0 6.6461 0 14.8484C0 23.0508 6.6461 29.6969 14.8484 29.6969C18.739 29.6969 22.2727 28.1978 24.9211 25.7563V26.4845C24.9211 26.7129 25.0139 26.9271 25.171 27.0913L34.3798 36.3001C34.7154 36.6357 35.2579 36.6357 35.5934 36.3001L36.3001 35.5934C36.6357 35.2579 36.6357 34.7154 36.3001 34.3798ZM14.8484 27.4125C7.90251 27.4125 2.28437 21.7944 2.28437 14.8484C2.28437 7.90251 7.90251 2.28437 14.8484 2.28437C21.7944 2.28437 27.4125 7.90251 27.4125 14.8484C27.4125 21.7944 21.7944 27.4125 14.8484 27.4125Z" fill="white" fill-opacity="0.35"/>
</svg>
