<svg xmlns="http://www.w3.org/2000/svg" xmlns:xlink="http://www.w3.org/1999/xlink" viewBox="0 0 237.96 237.96"><defs><style>.cls-1{isolation:isolate;}.cls-2{fill:#272b2c;}.cls-3{font-size:36.14px;font-family:Raleway-Bold, Raleway;font-weight:700;letter-spacing:-0.07em;}.cls-16,.cls-3{fill:#fff;}.cls-4{letter-spacing:-0.04em;}.cls-5,.cls-6{fill:#6c5ba7;}.cls-5{letter-spacing:-0.1em;}.cls-6{letter-spacing:-0.04em;}.cls-7{fill:url(#linear-gradient);}.cls-10,.cls-12,.cls-14,.cls-8{mix-blend-mode:color-dodge;}.cls-8{fill:url(#New_Gradient_Swatch_1);}.cls-9{fill:url(#linear-gradient-2);}.cls-10{fill:url(#New_Gradient_Swatch_1-2);}.cls-11{fill:url(#linear-gradient-3);}.cls-12{fill:url(#New_Gradient_Swatch_1-3);}.cls-13{fill:url(#linear-gradient-4);}.cls-14{fill:url(#New_Gradient_Swatch_1-4);}.cls-15{fill:url(#radial-gradient);}.cls-16{stroke-miterlimit:10;stroke:url(#linear-gradient-5);}</style><linearGradient id="linear-gradient" x1="116.32" y1="145.54" x2="139.99" y2="123.76" gradientUnits="userSpaceOnUse"><stop offset="0" stop-color="#272b2c"/><stop offset="1" stop-color="#6c5ba7"/></linearGradient><radialGradient id="New_Gradient_Swatch_1" cx="153.18" cy="86.33" r="26.25" gradientUnits="userSpaceOnUse"><stop offset="0.01" stop-color="#6c5ba7"/><stop offset="1" stop-color="#6c5ba7" stop-opacity="0"/></radialGradient><linearGradient id="linear-gradient-2" x1="100.72" y1="144.33" x2="93.18" y2="136.38" xlink:href="#linear-gradient"/><radialGradient id="New_Gradient_Swatch_1-2" cx="80.95" cy="118.27" r="16.2" xlink:href="#New_Gradient_Swatch_1"/><linearGradient id="linear-gradient-3" x1="118.98" y1="118.17" x2="132.01" y2="134.98" xlink:href="#linear-gradient"/><radialGradient id="New_Gradient_Swatch_1-3" cx="142.87" cy="140.7" r="15.22" xlink:href="#New_Gradient_Swatch_1"/><linearGradient id="linear-gradient-4" x1="70.41" y1="153.09" x2="103.55" y2="138.49" xlink:href="#linear-gradient"/><radialGradient id="New_Gradient_Swatch_1-4" cx="117.46" cy="126.39" r="15.35" xlink:href="#New_Gradient_Swatch_1"/><radialGradient id="radial-gradient" cx="126.89" cy="52.89" r="55.61" gradientUnits="userSpaceOnUse"><stop offset="0" stop-color="#58595b"/><stop offset="0.99" stop-color="#272b2c"/></radialGradient><linearGradient id="linear-gradient-5" x1="69.89" y1="92.1" x2="164.72" y2="92.1" gradientUnits="userSpaceOnUse"><stop offset="0.01" stop-color="#fff"/><stop offset="1" stop-color="#414042" stop-opacity="0"/></linearGradient></defs><g class="cls-1"><g id="Layer_2" data-name="Layer 2"><g id="Layer_1-2" data-name="Layer 1"><rect class="cls-2" width="237.96" height="237.96"/><text class="cls-3" transform="translate(21.18 204.17) scale(1.13 1)">O<tspan class="cls-4" x="24.94" y="0">AK</tspan><tspan class="cls-5" x="70.44" y="0">WA</tspan><tspan class="cls-6" x="125.42" y="0">VE</tspan></text><path class="cls-7" d="M166.82,95.31a50.45,50.45,0,0,0-14.49-10.9,39.28,39.28,0,0,1-24.05,58.4c.81.67,1.66,1.3,2.52,1.92a14.05,14.05,0,0,0,16.23,0c.86-.62,1.7-1.25,2.52-1.92a49,49,0,0,0,17.27-47.5Z"/><path class="cls-8" d="M166.82,95.31a50.45,50.45,0,0,0-14.49-10.9,39.28,39.28,0,0,1-24.05,58.4c.81.67,1.66,1.3,2.52,1.92a14.05,14.05,0,0,0,16.23,0c.86-.62,1.7-1.25,2.52-1.92a49,49,0,0,0,17.27-47.5Z"/><path class="cls-9" d="M81.13,116.1a50.06,50.06,0,0,0-1.82,13.44c0,1.55.07,3.09.21,4.6a49.05,49.05,0,0,0,9.08,9.24,49.81,49.81,0,0,0,4.12,2.89,14.16,14.16,0,0,0,15.07-.08,48.81,48.81,0,0,0,4-2.81A39.26,39.26,0,0,1,81.13,116.1Z"/><path class="cls-10" d="M81.13,116.1a50.06,50.06,0,0,0-1.82,13.44c0,1.55.07,3.09.21,4.6a49.05,49.05,0,0,0,9.08,9.24,49.81,49.81,0,0,0,4.12,2.89,14.16,14.16,0,0,0,15.07-.08,48.81,48.81,0,0,0,4-2.81A39.26,39.26,0,0,1,81.13,116.1Z"/><path class="cls-11" d="M149.55,142.81c-.82.67-1.66,1.3-2.52,1.92a14.05,14.05,0,0,1-16.23,0c-.86-.62-1.71-1.25-2.52-1.92a49.32,49.32,0,0,1-7.9-8.05,48.8,48.8,0,0,1-5.55-9c.23-.36.45-.72.67-1.09a5.65,5.65,0,0,1,9.77,0c.22.37.45.73.67,1.09a39.5,39.5,0,0,0,13,12.65A38.83,38.83,0,0,0,149.55,142.81Z"/><path class="cls-12" d="M149.55,142.81c-.82.67-1.66,1.3-2.52,1.92a14.05,14.05,0,0,1-16.23,0c-.86-.62-1.71-1.25-2.52-1.92a49.32,49.32,0,0,1-7.9-8.05,48.8,48.8,0,0,1-5.55-9c.23-.36.45-.72.67-1.09a5.65,5.65,0,0,1,9.77,0c.22.37.45.73.67,1.09a39.5,39.5,0,0,0,13,12.65A38.83,38.83,0,0,0,149.55,142.81Z"/><path class="cls-13" d="M125.94,125.75a47.79,47.79,0,0,1-5.56,9,48.42,48.42,0,0,1-12.59,11.43,14.16,14.16,0,0,1-15.07.08,49.81,49.81,0,0,1-4.12-2.89,38.89,38.89,0,0,0,11.59-4,39.36,39.36,0,0,0,14.64-13.6c.23-.36.45-.72.67-1.09a5.65,5.65,0,0,1,9.77,0C125.49,125,125.72,125.39,125.94,125.75Z"/><path class="cls-14" d="M125.94,125.75a47.79,47.79,0,0,1-5.56,9,48.42,48.42,0,0,1-12.59,11.43,14.16,14.16,0,0,1-15.07.08,49.81,49.81,0,0,1-4.12-2.89,38.89,38.89,0,0,0,11.59-4,39.36,39.36,0,0,0,14.64-13.6c.23-.36.45-.72.67-1.09a5.65,5.65,0,0,1,9.77,0C125.49,125,125.72,125.39,125.94,125.75Z"/><path class="cls-15" d="M164.36,86.86l-.88-.7a54.55,54.55,0,0,0-16.65-8.87A40,40,0,0,0,138.91,71a39.21,39.21,0,0,0-20.19-5.59,39.4,39.4,0,0,0-6.92.61,39.28,39.28,0,0,0-32.35,38.66c0,.84,0,1.68.08,2.51a54.39,54.39,0,0,0-4.6,18.66c0,.25,0,.5-.05.76a49,49,0,1,1,89.48-39.79Z"/><path class="cls-16" d="M163.48,86.16a54.55,54.55,0,0,0-16.65-8.87A40,40,0,0,0,138.91,71a39.21,39.21,0,0,0-20.19-5.59,39.4,39.4,0,0,0-6.92.61,39.28,39.28,0,0,0-32.35,38.66c0,.84,0,1.68.08,2.51a54.39,54.39,0,0,0-4.6,18.66,48.58,48.58,0,0,1,14.15-58.8,48.54,48.54,0,0,1,74.4,19.07Z"/></g></g></g></svg>