<svg xmlns="http://www.w3.org/2000/svg" xmlns:xlink="http://www.w3.org/1999/xlink" viewBox="0 0 190.81 160.38"><defs><style>.cls-1{isolation:isolate;}.cls-2{font-size:36.14px;fill:#272b2c;font-family:Raleway-Bold, Raleway;font-weight:700;letter-spacing:-0.07em;}.cls-3{letter-spacing:-0.04em;}.cls-4,.cls-5{fill:#6c5ba7;}.cls-4{letter-spacing:-0.1em;}.cls-5{letter-spacing:-0.04em;}.cls-6{fill:url(#linear-gradient);}.cls-11,.cls-13,.cls-7,.cls-9{mix-blend-mode:color-dodge;}.cls-7{fill:url(#New_Gradient_Swatch_1);}.cls-8{fill:url(#linear-gradient-2);}.cls-9{fill:url(#New_Gradient_Swatch_1-2);}.cls-10{fill:url(#linear-gradient-3);}.cls-11{fill:url(#New_Gradient_Swatch_1-3);}.cls-12{fill:url(#linear-gradient-4);}.cls-13{fill:url(#New_Gradient_Swatch_1-4);}.cls-14{fill:url(#radial-gradient);}.cls-15{fill:url(#linear-gradient-5);}</style><linearGradient id="linear-gradient" x1="93.54" y1="89.83" x2="117.21" y2="68.05" gradientUnits="userSpaceOnUse"><stop offset="0" stop-color="#272b2c"/><stop offset="1" stop-color="#6c5ba7"/></linearGradient><radialGradient id="New_Gradient_Swatch_1" cx="130.4" cy="30.62" r="26.25" gradientUnits="userSpaceOnUse"><stop offset="0.01" stop-color="#6c5ba7"/><stop offset="1" stop-color="#6c5ba7" stop-opacity="0"/></radialGradient><linearGradient id="linear-gradient-2" x1="77.94" y1="88.62" x2="70.4" y2="80.66" xlink:href="#linear-gradient"/><radialGradient id="New_Gradient_Swatch_1-2" cx="58.17" cy="62.56" r="16.2" xlink:href="#New_Gradient_Swatch_1"/><linearGradient id="linear-gradient-3" x1="96.2" y1="62.46" x2="109.23" y2="79.27" xlink:href="#linear-gradient"/><radialGradient id="New_Gradient_Swatch_1-3" cx="120.09" cy="84.99" r="15.22" xlink:href="#New_Gradient_Swatch_1"/><linearGradient id="linear-gradient-4" x1="47.63" y1="97.38" x2="80.77" y2="82.77" xlink:href="#linear-gradient"/><radialGradient id="New_Gradient_Swatch_1-4" cx="94.68" cy="70.68" r="15.35" xlink:href="#New_Gradient_Swatch_1"/><radialGradient id="radial-gradient" cx="104.11" cy="-2.83" r="55.61" gradientUnits="userSpaceOnUse"><stop offset="0" stop-color="#58595b"/><stop offset="0.99" stop-color="#272b2c"/></radialGradient><linearGradient id="linear-gradient-5" x1="94.15" y1="16.49" x2="94.15" y2="-147.37" gradientUnits="userSpaceOnUse"><stop offset="0.01" stop-color="#272b2c"/><stop offset="1" stop-color="#414042" stop-opacity="0"/></linearGradient></defs><g class="cls-1"><g id="Layer_2" data-name="Layer 2"><g id="Layer_1-2" data-name="Layer 1"><text class="cls-2" transform="translate(0 152.1) scale(1.13 1)">O<tspan class="cls-3" x="24.94" y="0">AK</tspan><tspan class="cls-4" x="70.44" y="0">WA</tspan><tspan class="cls-5" x="125.42" y="0">VE</tspan></text><path class="cls-6" d="M144,39.6a50.27,50.27,0,0,0-14.49-10.9A39.28,39.28,0,0,1,105.5,87.1c.81.66,1.66,1.3,2.52,1.91a14.05,14.05,0,0,0,16.23,0c.86-.61,1.7-1.25,2.52-1.91A49,49,0,0,0,144,39.6Z"/><path class="cls-7" d="M144,39.6a50.27,50.27,0,0,0-14.49-10.9A39.28,39.28,0,0,1,105.5,87.1c.81.66,1.66,1.3,2.52,1.91a14.05,14.05,0,0,0,16.23,0c.86-.61,1.7-1.25,2.52-1.91A49,49,0,0,0,144,39.6Z"/><path class="cls-8" d="M58.35,60.38a50.12,50.12,0,0,0-1.82,13.44c0,1.56.07,3.09.21,4.61a48.7,48.7,0,0,0,9.08,9.23,47.62,47.62,0,0,0,4.12,2.9A14.16,14.16,0,0,0,85,90.48a48.92,48.92,0,0,0,4-2.82A39.2,39.2,0,0,1,58.35,60.38Z"/><path class="cls-9" d="M58.35,60.38a50.12,50.12,0,0,0-1.82,13.44c0,1.56.07,3.09.21,4.61a48.7,48.7,0,0,0,9.08,9.23,47.62,47.62,0,0,0,4.12,2.9A14.16,14.16,0,0,0,85,90.48a48.92,48.92,0,0,0,4-2.82A39.2,39.2,0,0,1,58.35,60.38Z"/><path class="cls-10" d="M126.77,87.1c-.82.66-1.66,1.3-2.52,1.91A14.05,14.05,0,0,1,108,89c-.86-.61-1.71-1.25-2.52-1.91A48.92,48.92,0,0,1,92.05,70c.23-.36.45-.72.67-1.09a5.65,5.65,0,0,1,9.77,0c.22.37.45.73.67,1.09A39.27,39.27,0,0,0,126.77,87.1Z"/><path class="cls-11" d="M126.77,87.1c-.82.66-1.66,1.3-2.52,1.91A14.05,14.05,0,0,1,108,89c-.86-.61-1.71-1.25-2.52-1.91A48.92,48.92,0,0,1,92.05,70c.23-.36.45-.72.67-1.09a5.65,5.65,0,0,1,9.77,0c.22.37.45.73.67,1.09A39.27,39.27,0,0,0,126.77,87.1Z"/><path class="cls-12" d="M103.16,70A49.39,49.39,0,0,1,89,87.66a48.92,48.92,0,0,1-4,2.82,14.16,14.16,0,0,1-15.07.08,47.62,47.62,0,0,1-4.12-2.9,38.88,38.88,0,0,0,11.59-4A39.36,39.36,0,0,0,92.05,70c.23-.36.45-.72.67-1.09a5.65,5.65,0,0,1,9.77,0C102.71,69.32,102.94,69.68,103.16,70Z"/><path class="cls-13" d="M103.16,70A49.39,49.39,0,0,1,89,87.66a48.92,48.92,0,0,1-4,2.82,14.16,14.16,0,0,1-15.07.08,47.62,47.62,0,0,1-4.12-2.9,38.88,38.88,0,0,0,11.59-4A39.36,39.36,0,0,0,92.05,70c.23-.36.45-.72.67-1.09a5.65,5.65,0,0,1,9.77,0C102.71,69.32,102.94,69.68,103.16,70Z"/><path class="cls-14" d="M141.58,31.14c-.29-.23-.58-.47-.88-.69a54.55,54.55,0,0,0-16.65-8.87,40,40,0,0,0-7.92-6.26,39.37,39.37,0,0,0-27.11-5,38.68,38.68,0,0,0-11.6,4A39.24,39.24,0,0,0,56.67,49c0,.84,0,1.67.08,2.5a54.5,54.5,0,0,0-4.6,18.67c0,.25,0,.5,0,.75a49,49,0,1,1,89.48-39.79Z"/><path class="cls-15" d="M140.7,30.45a54.55,54.55,0,0,0-16.65-8.87,40,40,0,0,0-7.92-6.26,39.37,39.37,0,0,0-27.11-5,38.68,38.68,0,0,0-11.6,4A39.24,39.24,0,0,0,56.67,49c0,.84,0,1.67.08,2.5a54.5,54.5,0,0,0-4.6,18.67A48.53,48.53,0,1,1,140.7,30.45Z"/></g></g></g></svg>