<svg xmlns="http://www.w3.org/2000/svg" xmlns:xlink="http://www.w3.org/1999/xlink" viewBox="0 0 303.71 249.4"><defs><style>.cls-1{font-size:57.53px;fill:#272b2c;font-family:Raleway-Bold, Raleway;font-weight:700;letter-spacing:-0.07em;}.cls-2,.cls-4{letter-spacing:-0.04em;}.cls-3,.cls-4,.cls-6{fill:#fff;}.cls-3{letter-spacing:-0.1em;}.cls-5{fill:url(#linear-gradient);}.cls-6{stroke:#231f20;stroke-miterlimit:10;}.cls-7{fill:url(#linear-gradient-2);}.cls-8{fill:url(#linear-gradient-3);}.cls-9{fill:url(#linear-gradient-4);}.cls-10{fill:url(#radial-gradient);}.cls-11{fill:url(#linear-gradient-5);}</style><linearGradient id="linear-gradient" x1="145.13" y1="142.97" x2="182.79" y2="108.3" gradientUnits="userSpaceOnUse"><stop offset="0" stop-color="#272b2c"/><stop offset="1" stop-color="#6c5ba7"/></linearGradient><linearGradient id="linear-gradient-2" x1="120.29" y1="141.05" x2="108.29" y2="128.39" xlink:href="#linear-gradient"/><linearGradient id="linear-gradient-3" x1="149.35" y1="99.41" x2="170.1" y2="126.16" xlink:href="#linear-gradient"/><linearGradient id="linear-gradient-4" x1="72.04" y1="155" x2="124.79" y2="131.75" xlink:href="#linear-gradient"/><radialGradient id="radial-gradient" cx="161.94" cy="-4.5" r="88.51" gradientUnits="userSpaceOnUse"><stop offset="0" stop-color="#58595b"/><stop offset="0.99" stop-color="#272b2c"/></radialGradient><linearGradient id="linear-gradient-5" x1="146.1" y1="26.25" x2="146.1" y2="-234.56" gradientUnits="userSpaceOnUse"><stop offset="0.01" stop-color="#272b2c"/><stop offset="1" stop-color="#414042" stop-opacity="0"/></linearGradient></defs><g id="Layer_2" data-name="Layer 2"><g id="Layer_1-2" data-name="Layer 1"><text class="cls-1" transform="translate(0 236.23) scale(1.13 1)">O<tspan class="cls-2" x="39.69" y="0">AK</tspan><tspan class="cls-3" x="112.12" y="0">WA</tspan><tspan class="cls-4" x="199.62" y="0">VE</tspan></text><path class="cls-5" d="M225.5,63a80,80,0,0,0-23.06-17.35,62.51,62.51,0,0,1-38.29,92.95c1.3,1.06,2.64,2.07,4,3.05a22.38,22.38,0,0,0,25.83,0c1.38-1,2.72-2,4-3.05A78.09,78.09,0,0,0,225.5,63Z"/><path class="cls-6" d="M225.5,63a80,80,0,0,0-23.06-17.35,62.51,62.51,0,0,1-38.29,92.95c1.3,1.06,2.64,2.07,4,3.05a22.38,22.38,0,0,0,25.83,0c1.38-1,2.72-2,4-3.05A78.09,78.09,0,0,0,225.5,63Z"/><path class="cls-7" d="M89.11,96.11a79.86,79.86,0,0,0-2.89,21.39c0,2.47.11,4.92.33,7.33A78,78,0,0,0,101,139.53a77.1,77.1,0,0,0,6.56,4.6,22.54,22.54,0,0,0,24-.12c2.2-1.39,4.33-2.89,6.37-4.48A62.49,62.49,0,0,1,89.11,96.11Z"/><path class="cls-6" d="M89.11,96.11a79.86,79.86,0,0,0-2.89,21.39c0,2.47.11,4.92.33,7.33A78,78,0,0,0,101,139.53a77.1,77.1,0,0,0,6.56,4.6,22.54,22.54,0,0,0,24-.12c2.2-1.39,4.33-2.89,6.37-4.48A62.49,62.49,0,0,1,89.11,96.11Z"/><path class="cls-8" d="M198,138.63c-1.3,1.06-2.64,2.07-4,3.05a22.38,22.38,0,0,1-25.83,0c-1.37-1-2.71-2-4-3.05a78.12,78.12,0,0,1-21.4-27.15c.36-.57.72-1.15,1.07-1.74a9,9,0,0,1,15.55,0c.35.59.7,1.17,1.07,1.74a62.64,62.64,0,0,0,20.64,20.13A61.92,61.92,0,0,0,198,138.63Z"/><path class="cls-6" d="M198,138.63c-1.3,1.06-2.64,2.07-4,3.05a22.38,22.38,0,0,1-25.83,0c-1.37-1-2.71-2-4-3.05a78.12,78.12,0,0,1-21.4-27.15c.36-.57.72-1.15,1.07-1.74a9,9,0,0,1,15.55,0c.35.59.7,1.17,1.07,1.74a62.64,62.64,0,0,0,20.64,20.13A61.92,61.92,0,0,0,198,138.63Z"/><path class="cls-9" d="M160.44,111.48a78.56,78.56,0,0,1-22.52,28.05c-2,1.59-4.17,3.09-6.37,4.48a22.54,22.54,0,0,1-24,.12,77.1,77.1,0,0,1-6.56-4.6,61.88,61.88,0,0,0,18.45-6.41,62.67,62.67,0,0,0,23.3-21.64c.36-.57.72-1.15,1.07-1.74a9,9,0,0,1,15.55,0C159.72,110.33,160.07,110.91,160.44,111.48Z"/><path class="cls-6" d="M160.44,111.48a78.56,78.56,0,0,1-22.52,28.05c-2,1.59-4.17,3.09-6.37,4.48a22.54,22.54,0,0,1-24,.12,77.1,77.1,0,0,1-6.56-4.6,61.88,61.88,0,0,0,18.45-6.41,62.67,62.67,0,0,0,23.3-21.64c.36-.57.72-1.15,1.07-1.74a9,9,0,0,1,15.55,0C159.72,110.33,160.07,110.91,160.44,111.48Z"/><path class="cls-10" d="M221.59,49.57c-.46-.38-.93-.75-1.4-1.11a86.9,86.9,0,0,0-26.51-14.11,63,63,0,0,0-12.6-10,62.34,62.34,0,0,0-32.14-8.89A62.48,62.48,0,0,0,86.44,78c0,1.34,0,2.67.13,4a86.61,86.61,0,0,0-7.32,29.71c0,.4-.06.8-.08,1.2A78,78,0,1,1,221.59,49.57Z"/><path class="cls-11" d="M220.19,48.46a86.9,86.9,0,0,0-26.51-14.11,63,63,0,0,0-12.6-10,62.34,62.34,0,0,0-32.14-8.89A62.48,62.48,0,0,0,86.44,78c0,1.34,0,2.67.13,4a86.61,86.61,0,0,0-7.32,29.71A77.22,77.22,0,0,1,197.84,19,77.51,77.51,0,0,1,220.19,48.46Z"/></g></g></svg>