<svg width="25" height="26" viewBox="0 0 25 26" fill="none" xmlns="http://www.w3.org/2000/svg">
<g clip-path="url(#clip0)">
<path d="M18.51 26H6.73497C6.03497 26 5.46497 25.4072 5.46497 24.6792V22.1832C5.46497 21.4552 6.03497 20.8624 6.73497 20.8624H12.235C12.375 20.8624 12.485 20.9768 12.485 21.1224C12.485 21.268 12.375 21.3824 12.235 21.3824H6.73497C6.30997 21.3824 5.96497 21.7412 5.96497 22.1832V24.6792C5.96497 25.1212 6.30997 25.48 6.73497 25.48H18.51C18.935 25.48 19.28 25.1212 19.28 24.6792V22.1832C19.28 21.7412 18.935 21.3824 18.51 21.3824H16.855C16.715 21.3824 16.605 21.268 16.605 21.1224C16.605 20.9768 16.715 20.8624 16.855 20.8624H18.51C19.21 20.8624 19.78 21.4552 19.78 22.1832V24.6792C19.78 25.4072 19.21 26 18.51 26Z" fill="url(#paint0_linear)"/>
<path d="M7.34996 21.3775C7.20996 21.3775 7.09996 21.2631 7.09996 21.1175V19.0843C7.09996 17.0563 7.85496 15.1479 9.23496 13.7075L11.735 11.1075C11.88 10.9567 11.96 10.7591 11.96 10.5459C11.96 10.3327 11.88 10.1299 11.735 9.97387L11.57 9.80227C11.425 9.65147 11.235 9.56827 11.025 9.56827H9.42496C9.22496 9.56827 9.02496 9.65667 8.87996 9.80227L7.92496 10.7955C7.68996 11.0451 7.36996 11.1803 7.03496 11.1855C6.69496 11.1907 6.37496 11.0503 6.12996 10.7955L5.79496 10.4471C5.41996 10.0623 5.21496 9.54227 5.20996 8.99107C5.20996 8.43987 5.41496 7.91467 5.79496 7.52467L9.08496 4.15507C9.90996 3.31267 10.36 2.18947 10.36 0.988271C10.36 0.608671 10.565 0.270671 10.89 0.0990709C11.215 -0.0673291 11.6 -0.0309291 11.885 0.197871L12.785 0.905071C13.375 1.37307 14.065 1.74227 14.825 1.99707C16.83 2.66787 18.175 4.59187 18.175 6.78107V10.6915C18.175 10.8371 18.065 10.9515 17.925 10.9515C17.785 10.9515 17.675 10.8371 17.675 10.6915V6.78107C17.675 4.82067 16.47 3.09427 14.675 2.49627C13.86 2.22067 13.12 1.82547 12.485 1.32107L11.585 0.613871C11.445 0.504671 11.27 0.489071 11.115 0.567071C10.955 0.650271 10.865 0.806271 10.865 0.988271C10.865 2.32987 10.36 3.58827 9.43996 4.52947L6.14996 7.89907C5.86996 8.19027 5.71496 8.58027 5.71496 8.99627C5.71496 9.40707 5.86996 9.79187 6.14996 10.0831L6.48496 10.4315C6.62996 10.5823 6.82996 10.6655 7.03496 10.6655C7.23996 10.6655 7.42996 10.5823 7.57496 10.4315L8.52996 9.43827C8.76496 9.19387 9.09496 9.04827 9.42496 9.04827H11.025C11.37 9.04827 11.69 9.18867 11.925 9.43827L12.09 9.60987C12.33 9.85947 12.465 10.1923 12.465 10.5511C12.465 10.9047 12.33 11.2323 12.09 11.4767L9.58996 14.0767C8.30996 15.4183 7.60496 17.1967 7.60496 19.0895V21.1227C7.59996 21.2631 7.48996 21.3775 7.34996 21.3775Z" fill="url(#paint1_linear)"/>
<path d="M17.9301 16.224C17.7901 16.224 17.6801 16.1096 17.6801 15.964V12.0952C17.6801 11.9496 17.7901 11.8352 17.9301 11.8352C18.0701 11.8352 18.1801 11.9496 18.1801 12.0952V15.964C18.1801 16.1096 18.0701 16.224 17.9301 16.224Z" fill="url(#paint2_linear)"/>
<path d="M17.9301 19.3545C17.7901 19.3545 17.6801 19.2401 17.6801 19.0945V18.1377C17.6801 17.9921 17.7901 17.8777 17.9301 17.8777C18.0701 17.8777 18.1801 17.9921 18.1801 18.1377V19.0945C18.1801 19.2401 18.0701 19.3545 17.9301 19.3545Z" fill="url(#paint3_linear)"/>
<path d="M9.83997 7.23319C9.01497 7.23319 8.33997 6.53119 8.33997 5.67319C8.33997 4.81519 9.01497 4.11319 9.83997 4.11319C10.665 4.11319 11.34 4.81519 11.34 5.67319C11.34 6.53119 10.665 7.23319 9.83997 7.23319ZM9.83997 4.63319C9.28997 4.63319 8.83997 5.10119 8.83997 5.67319C8.83997 6.24519 9.28997 6.71319 9.83997 6.71319C10.39 6.71319 10.84 6.24519 10.84 5.67319C10.84 5.10119 10.39 4.63319 9.83997 4.63319Z" fill="url(#paint4_linear)"/>
<path d="M8.05497 23.6912H5.71497C5.57497 23.6912 5.46497 23.5768 5.46497 23.4312C5.46497 23.2856 5.57497 23.1712 5.71497 23.1712H8.05497C8.19497 23.1712 8.30497 23.2856 8.30497 23.4312C8.30497 23.5768 8.19497 23.6912 8.05497 23.6912Z" fill="url(#paint5_linear)"/>
<path d="M11.28 23.6912H9.245C9.105 23.6912 8.995 23.5768 8.995 23.4312C8.995 23.2856 9.105 23.1712 9.245 23.1712H11.28C11.42 23.1712 11.53 23.2856 11.53 23.4312C11.53 23.5768 11.42 23.6912 11.28 23.6912Z" fill="url(#paint6_linear)"/>
<path d="M19.47 23.6912H14.97C14.83 23.6912 14.72 23.5768 14.72 23.4312C14.72 23.2856 14.83 23.1712 14.97 23.1712H19.47C19.61 23.1712 19.72 23.2856 19.72 23.4312C19.72 23.5768 19.61 23.6912 19.47 23.6912Z" fill="url(#paint7_linear)"/>
<path d="M14.8 21.4343H13.7C13.56 21.4343 13.45 21.3199 13.45 21.1744C13.45 21.0288 13.56 20.9144 13.7 20.9144H14.8C14.94 20.9144 15.05 21.0288 15.05 21.1744C15.05 21.3199 14.94 21.4343 14.8 21.4343Z" fill="url(#paint8_linear)"/>
</g>
<defs>
<linearGradient id="paint0_linear" x1="22.3903" y1="26" x2="-8.56601" y2="22.6237" gradientUnits="userSpaceOnUse">
<stop offset="0.00409913" stop-color="white"/>
<stop offset="0.957588" stop-color="#C9BFD8" stop-opacity="0"/>
</linearGradient>
<linearGradient id="paint1_linear" x1="20.5392" y1="21.3775" x2="-7.81534" y2="20.7045" gradientUnits="userSpaceOnUse">
<stop offset="0.00409913" stop-color="white"/>
<stop offset="0.957588" stop-color="#C9BFD8" stop-opacity="0"/>
</linearGradient>
<linearGradient id="paint2_linear" x1="18.2712" y1="16.224" x2="17.1771" y2="16.2191" gradientUnits="userSpaceOnUse">
<stop offset="0.00409913" stop-color="white"/>
<stop offset="0.957588" stop-color="#C9BFD8" stop-opacity="0"/>
</linearGradient>
<linearGradient id="paint3_linear" x1="18.2712" y1="19.3545" x2="17.1773" y2="19.34" gradientUnits="userSpaceOnUse">
<stop offset="0.00409913" stop-color="white"/>
<stop offset="0.957588" stop-color="#C9BFD8" stop-opacity="0"/>
</linearGradient>
<linearGradient id="paint4_linear" x1="11.887" y1="7.23319" x2="5.3316" y2="6.98646" gradientUnits="userSpaceOnUse">
<stop offset="0.00409913" stop-color="white"/>
<stop offset="0.957588" stop-color="#C9BFD8" stop-opacity="0"/>
</linearGradient>
<linearGradient id="paint5_linear" x1="8.82285" y1="23.6912" x2="2.87987" y2="22.4207" gradientUnits="userSpaceOnUse">
<stop offset="0.00409913" stop-color="white"/>
<stop offset="0.957588" stop-color="#C9BFD8" stop-opacity="0"/>
</linearGradient>
<linearGradient id="paint6_linear" x1="11.9923" y1="23.6912" x2="6.63998" y2="22.6698" gradientUnits="userSpaceOnUse">
<stop offset="0.00409913" stop-color="white"/>
<stop offset="0.957588" stop-color="#C9BFD8" stop-opacity="0"/>
</linearGradient>
<linearGradient id="paint7_linear" x1="20.6317" y1="23.6912" x2="11.0482" y2="20.0841" gradientUnits="userSpaceOnUse">
<stop offset="0.00409913" stop-color="white"/>
<stop offset="0.957588" stop-color="#C9BFD8" stop-opacity="0"/>
</linearGradient>
<linearGradient id="paint8_linear" x1="15.3417" y1="21.4343" x2="11.8906" y2="21.0187" gradientUnits="userSpaceOnUse">
<stop offset="0.00409913" stop-color="white"/>
<stop offset="0.957588" stop-color="#C9BFD8" stop-opacity="0"/>
</linearGradient>
<clipPath id="clip0">
<rect width="25" height="26" fill="white"/>
</clipPath>
</defs>
</svg>
