<svg width="25" height="26" viewBox="0 0 25 26" fill="none" xmlns="http://www.w3.org/2000/svg">
<g clip-path="url(#clip0)">
<path d="M12.5 24.18C10.32 24.18 8.26999 23.296 6.72499 21.6944C3.53999 18.382 3.53999 12.9948 6.72499 9.68758C9.90999 6.37519 15.09 6.37519 18.27 9.68758C21.45 13 21.455 18.3872 18.27 21.6944C16.73 23.296 14.68 24.18 12.5 24.18ZM12.5 7.71678C10.455 7.71678 8.52999 8.54359 7.07999 10.0516C4.08999 13.1612 4.08999 18.2156 7.07999 21.3252C10.07 24.4348 14.93 24.4348 17.92 21.3252C20.91 18.2156 20.91 13.1612 17.92 10.0516C16.475 8.54359 14.55 7.71678 12.5 7.71678Z" fill="url(#paint0_linear)"/>
<path d="M3.91999 11.3152C3.87999 11.3152 3.83999 11.3048 3.80499 11.284C3.68499 11.2164 3.63499 11.0604 3.69999 10.9356C4.62499 9.0844 6.05499 7.5816 7.82499 6.5936C7.94499 6.526 8.09999 6.5728 8.16499 6.6976C8.22999 6.8224 8.18499 6.9836 8.06499 7.0512C6.38499 7.9872 5.02999 9.4172 4.14999 11.1748C4.09499 11.2632 4.00999 11.3152 3.91999 11.3152Z" fill="url(#paint1_linear)"/>
<path d="M12.5 26C7.03496 26 2.58496 21.372 2.58496 15.6884C2.58496 14.8512 2.68496 14.014 2.87496 13.2028C2.90996 13.0624 3.04496 12.9792 3.17996 13.0156C3.31496 13.052 3.39496 13.1924 3.35996 13.3328C3.17496 14.1024 3.07996 14.898 3.07996 15.6936C3.08496 21.086 7.30996 25.48 12.5 25.48C15.015 25.48 17.38 24.4608 19.16 22.6096C20.94 20.7584 21.92 18.2988 21.92 15.6832C21.92 13.1768 21.01 10.7952 19.36 8.97001C17.715 7.15521 15.495 6.06841 13.11 5.91241C12.925 5.89681 12.73 5.89161 12.5 5.89161C12.36 5.89161 12.25 5.77721 12.25 5.63161C12.25 5.48601 12.36 5.37161 12.5 5.37161C12.74 5.37161 12.945 5.37681 13.145 5.39241C15.655 5.55881 17.995 6.70281 19.725 8.61121C21.465 10.53 22.42 13.0416 22.42 15.6832C22.42 18.4392 21.385 21.0288 19.51 22.9788C17.64 24.9288 15.15 26 12.5 26Z" fill="url(#paint2_linear)"/>
<path d="M10.505 6.11001C10.39 6.11001 10.285 6.02681 10.26 5.90201C10.23 5.76161 10.32 5.62121 10.455 5.59521C10.77 5.52761 11.1 5.47041 11.435 5.43401C11.57 5.41841 11.695 5.52241 11.71 5.66281C11.725 5.80321 11.625 5.93321 11.49 5.94881C11.17 5.98521 10.86 6.03721 10.56 6.09961C10.54 6.11001 10.52 6.11001 10.505 6.11001Z" fill="url(#paint3_linear)"/>
<path d="M11.2551 5.9748C11.1951 5.9748 11.1351 5.954 11.0901 5.9072C11.0351 5.8604 11.0051 5.7876 11.0051 5.7148V3.6764C11.0051 3.5308 11.1151 3.4164 11.2551 3.4164H13.7401C13.8801 3.4164 13.9901 3.5308 13.9901 3.6764V5.7148C13.9901 5.7876 13.9601 5.8604 13.9051 5.9124C13.8501 5.9592 13.7801 5.9852 13.7051 5.9748C13.3251 5.9228 12.9201 5.8916 12.5001 5.8916C12.1151 5.8916 11.7151 5.9176 11.2851 5.9748C11.2751 5.9748 11.2651 5.9748 11.2551 5.9748ZM11.5051 3.9364V5.4236C11.8501 5.3872 12.1801 5.3716 12.5001 5.3716C12.8401 5.3716 13.1701 5.3872 13.4901 5.4236V3.9364H11.5051Z" fill="url(#paint4_linear)"/>
<path d="M14.365 3.9364H10.63C9.94 3.9364 9.38 3.354 9.38 2.6364V1.3C9.38 0.5824 9.94 0 10.63 0H14.365C15.055 0 15.615 0.5824 15.615 1.3V2.6364C15.615 3.354 15.055 3.9364 14.365 3.9364ZM10.63 0.52C10.215 0.52 9.88 0.8684 9.88 1.3V2.6364C9.88 3.068 10.215 3.4164 10.63 3.4164H14.365C14.78 3.4164 15.115 3.068 15.115 2.6364V1.3C15.115 0.8684 14.78 0.52 14.365 0.52H10.63Z" fill="url(#paint5_linear)"/>
<path d="M12.4999 8.29922C12.3599 8.29922 12.2499 8.18482 12.2499 8.03922V7.45162C12.2499 7.30602 12.3599 7.19162 12.4999 7.19162C12.6399 7.19162 12.7499 7.30602 12.7499 7.45162V8.03922C12.7499 8.18482 12.6399 8.29922 12.4999 8.29922Z" fill="url(#paint6_linear)"/>
<path d="M12.4999 24.18C12.3599 24.18 12.2499 24.0656 12.2499 23.92V23.3376C12.2499 23.192 12.3599 23.0776 12.4999 23.0776C12.6399 23.0776 12.7499 23.192 12.7499 23.3376V23.92C12.7499 24.0656 12.6399 24.18 12.4999 24.18Z" fill="url(#paint7_linear)"/>
<path d="M17.7 10.5352C17.635 10.5352 17.57 10.5092 17.52 10.4572C17.425 10.3532 17.425 10.192 17.52 10.088L17.92 9.67723C18.02 9.57843 18.175 9.57843 18.275 9.67723C18.37 9.78123 18.37 9.94243 18.275 10.0464L17.875 10.4572C17.825 10.5092 17.765 10.5352 17.7 10.5352Z" fill="url(#paint8_linear)"/>
<path d="M6.90006 21.7672C6.83506 21.7672 6.77005 21.7412 6.72005 21.6892C6.62505 21.5852 6.62505 21.424 6.72005 21.32L7.12006 20.9092C7.22006 20.8104 7.37506 20.8104 7.47506 20.9092C7.57006 21.0132 7.57006 21.1744 7.47506 21.2784L7.07506 21.6892C7.02506 21.7412 6.96506 21.7672 6.90006 21.7672Z" fill="url(#paint9_linear)"/>
<path d="M20.415 15.9484H19.855C19.715 15.9484 19.605 15.834 19.605 15.6884C19.605 15.5428 19.715 15.4284 19.855 15.4284H20.415C20.555 15.4284 20.665 15.5428 20.665 15.6884C20.665 15.834 20.555 15.9484 20.415 15.9484Z" fill="url(#paint10_linear)"/>
<path d="M5.14502 15.9484H4.58502C4.44502 15.9484 4.33502 15.834 4.33502 15.6884C4.33502 15.5428 4.44502 15.4284 4.58502 15.4284H5.14502C5.28502 15.4284 5.39502 15.5428 5.39502 15.6884C5.39502 15.834 5.28502 15.9484 5.14502 15.9484Z" fill="url(#paint11_linear)"/>
<path d="M18.1 21.7672C18.035 21.7672 17.975 21.7412 17.925 21.6944L17.525 21.2836C17.425 21.1848 17.425 21.0184 17.525 20.9144C17.62 20.8104 17.78 20.8104 17.88 20.9144L18.28 21.3252C18.3799 21.424 18.3799 21.5904 18.28 21.6944C18.23 21.7412 18.1649 21.7672 18.1 21.7672Z" fill="url(#paint12_linear)"/>
<path d="M7.30002 10.5352C7.23502 10.5352 7.17502 10.5092 7.12502 10.4624L6.72502 10.0516C6.62502 9.95282 6.62502 9.78642 6.72502 9.68242C6.82002 9.57842 6.98002 9.57842 7.08002 9.68242L7.48003 10.0932C7.58003 10.192 7.58003 10.3584 7.48003 10.4624C7.43003 10.5092 7.36502 10.5352 7.30002 10.5352Z" fill="url(#paint13_linear)"/>
<path d="M12.4999 12.3344C12.3599 12.3344 12.2499 12.22 12.2499 12.0744V9.63563C12.2499 9.49003 12.3599 9.37563 12.4999 9.37563C12.6399 9.37563 12.7499 9.49003 12.7499 9.63563V12.0744C12.7499 12.22 12.6399 12.3344 12.4999 12.3344Z" fill="url(#paint14_linear)"/>
<path d="M9.02997 15.9484H7.22498C7.08498 15.9484 6.97498 15.834 6.97498 15.6884C6.97498 15.5428 7.08498 15.4284 7.22498 15.4284H9.02997C9.16998 15.4284 9.27997 15.5428 9.27997 15.6884C9.27997 15.834 9.16998 15.9484 9.02997 15.9484Z" fill="url(#paint15_linear)"/>
<path d="M11.035 3.9364C10.895 3.9364 10.785 3.822 10.785 3.6764V0.26C10.785 0.1144 10.895 0 11.035 0C11.175 0 11.285 0.1144 11.285 0.26V3.6764C11.285 3.822 11.175 3.9364 11.035 3.9364Z" fill="url(#paint16_linear)"/>
<path d="M12.4999 3.9364C12.3599 3.9364 12.2499 3.822 12.2499 3.6764V0.26C12.2499 0.1144 12.3599 0 12.4999 0C12.6399 0 12.7499 0.1144 12.7499 0.26V3.6764C12.7499 3.822 12.6399 3.9364 12.4999 3.9364Z" fill="url(#paint17_linear)"/>
<path d="M13.965 3.9364C13.825 3.9364 13.715 3.822 13.715 3.6764V0.26C13.715 0.1144 13.825 0 13.965 0C14.105 0 14.215 0.1144 14.215 0.26V3.6764C14.215 3.822 14.105 3.9364 13.965 3.9364Z" fill="url(#paint18_linear)"/>
<path d="M12.66 19.5676H12.335C11.99 19.5676 11.705 19.2712 11.705 18.9124V18.512C11.705 18.46 11.67 18.408 11.62 18.3872C11.51 18.3508 11.395 18.2988 11.275 18.2364C11.23 18.2156 11.175 18.226 11.135 18.2676L10.865 18.5484C10.615 18.8084 10.225 18.8084 9.97502 18.5484L9.74502 18.3092C9.49502 18.0492 9.49502 17.6436 9.74502 17.3836L10.015 17.1028C10.055 17.0612 10.065 17.004 10.04 16.952C9.98502 16.8324 9.93502 16.7128 9.90002 16.5984C9.88502 16.5464 9.83502 16.51 9.78002 16.51H9.40002C9.05502 16.51 8.77002 16.2136 8.77002 15.8548V15.5168C8.77002 15.158 9.05502 14.8616 9.40002 14.8616H9.78502C9.83502 14.8616 9.88502 14.8252 9.90502 14.7732C9.94002 14.6588 9.99002 14.5392 10.05 14.4144C10.07 14.3676 10.06 14.3104 10.02 14.2688L9.75002 13.988C9.50002 13.728 9.50002 13.3224 9.75002 13.0624L9.98002 12.8232C10.23 12.5632 10.62 12.5632 10.87 12.8232L11.14 13.104C11.18 13.1456 11.235 13.156 11.285 13.13C11.4 13.0728 11.515 13.0208 11.625 12.9844C11.675 12.9688 11.71 12.9168 11.71 12.8596V12.4592C11.71 12.1004 11.995 11.804 12.34 11.804H12.665C13.01 11.804 13.295 12.1004 13.295 12.4592V12.8596C13.295 12.9116 13.33 12.9636 13.38 12.9844C13.49 13.0208 13.605 13.0728 13.725 13.1352C13.77 13.156 13.825 13.1456 13.865 13.104L14.135 12.8232C14.385 12.5632 14.775 12.5632 15.025 12.8232L15.255 13.0624C15.505 13.3224 15.505 13.728 15.255 13.988L14.985 14.2688C14.945 14.3104 14.935 14.3676 14.96 14.4196C15.015 14.5392 15.065 14.6588 15.1 14.7732C15.115 14.8252 15.165 14.8616 15.22 14.8616H15.605C15.95 14.8616 16.235 15.158 16.235 15.5168V15.8548C16.235 16.2136 15.95 16.51 15.605 16.51H15.22C15.17 16.51 15.12 16.5464 15.1 16.5984C15.065 16.7128 15.015 16.8324 14.955 16.9572C14.935 17.004 14.945 17.0612 14.985 17.1028L15.255 17.3836C15.505 17.6436 15.505 18.0492 15.255 18.3092L15.025 18.5484C14.775 18.8084 14.385 18.8084 14.135 18.5484L13.865 18.2676C13.825 18.226 13.77 18.2156 13.72 18.2416C13.605 18.2988 13.49 18.3508 13.38 18.3872C13.33 18.4028 13.295 18.4548 13.295 18.512V18.9124C13.29 19.2712 13.005 19.5676 12.66 19.5676ZM11.23 17.7112C11.32 17.7112 11.415 17.732 11.5 17.7736C11.6 17.8256 11.69 17.8672 11.78 17.8984C12.03 17.9868 12.205 18.2364 12.205 18.512V18.9124C12.205 18.9852 12.265 19.0476 12.335 19.0476H12.66C12.73 19.0476 12.79 18.9852 12.79 18.9124V18.512C12.79 18.2312 12.96 17.9816 13.22 17.8932C13.305 17.862 13.4 17.8204 13.495 17.7736C13.735 17.654 14.025 17.706 14.215 17.8984L14.485 18.1792C14.515 18.2104 14.55 18.2208 14.575 18.2208C14.6 18.2208 14.635 18.2156 14.665 18.1792L14.895 17.94C14.925 17.9088 14.935 17.8724 14.935 17.8464C14.935 17.8204 14.93 17.784 14.895 17.7528L14.625 17.472C14.435 17.2744 14.385 16.978 14.5 16.7284C14.55 16.6244 14.59 16.5308 14.62 16.4372C14.705 16.1772 14.945 15.9952 15.21 15.9952H15.595C15.665 15.9952 15.725 15.9328 15.725 15.86V15.522C15.725 15.4492 15.665 15.3868 15.595 15.3868H15.21C14.94 15.3868 14.7 15.21 14.615 14.9396C14.585 14.8512 14.545 14.7524 14.5 14.6536C14.385 14.404 14.435 14.1024 14.62 13.9048L14.89 13.624C14.92 13.5928 14.93 13.5564 14.93 13.5304C14.93 13.5044 14.925 13.468 14.89 13.4368L14.66 13.1976C14.63 13.1664 14.595 13.156 14.57 13.156C14.545 13.156 14.51 13.1612 14.48 13.1976L14.21 13.4784C14.02 13.676 13.735 13.728 13.495 13.6084C13.395 13.5564 13.305 13.5148 13.215 13.4836C12.965 13.3952 12.79 13.1456 12.79 12.87V12.4696C12.79 12.3968 12.73 12.3344 12.66 12.3344H12.335C12.265 12.3344 12.205 12.3968 12.205 12.4696V12.87C12.205 13.1508 12.035 13.4004 11.775 13.4888C11.69 13.52 11.595 13.5616 11.5 13.6084C11.26 13.728 10.97 13.676 10.78 13.4836L10.51 13.2028C10.455 13.1456 10.38 13.1456 10.33 13.2028L10.1 13.442C10.07 13.4732 10.06 13.5096 10.06 13.5356C10.06 13.5616 10.065 13.598 10.1 13.6292L10.37 13.91C10.56 14.1076 10.61 14.404 10.495 14.6536C10.445 14.7576 10.405 14.8512 10.375 14.9448C10.29 15.2048 10.05 15.3868 9.78502 15.3868H9.40002C9.33002 15.3868 9.27002 15.4492 9.27002 15.522V15.86C9.27002 15.9328 9.33002 15.9952 9.40002 15.9952H9.78502C10.055 15.9952 10.295 16.172 10.38 16.4424C10.41 16.5308 10.45 16.6296 10.495 16.7284C10.61 16.978 10.56 17.2796 10.375 17.4772L10.105 17.758C10.075 17.7892 10.065 17.8256 10.065 17.8516C10.065 17.8776 10.07 17.914 10.105 17.9452L10.335 18.1844C10.39 18.2416 10.465 18.2364 10.515 18.1844L10.785 17.9036C10.905 17.7736 11.065 17.7112 11.23 17.7112ZM12.5 17.1444C12.14 17.1444 11.78 17.004 11.51 16.718C10.965 16.1512 10.965 15.2256 11.51 14.6536C12.055 14.0868 12.945 14.0868 13.495 14.6536C14.04 15.2204 14.04 16.146 13.495 16.718C13.22 17.004 12.86 17.1444 12.5 17.1444ZM12.5 14.7524C12.27 14.7524 12.04 14.846 11.86 15.028C11.51 15.392 11.51 15.99 11.86 16.354C12.21 16.718 12.785 16.718 13.135 16.354C13.485 15.99 13.485 15.392 13.135 15.028C12.96 14.8408 12.73 14.7524 12.5 14.7524Z" fill="url(#paint19_linear)"/>
</g>
<defs>
<linearGradient id="paint0_linear" x1="23.633" y1="24.18" x2="-12.0299" y2="22.838" gradientUnits="userSpaceOnUse">
<stop offset="0.00409913" stop-color="white"/>
<stop offset="0.957588" stop-color="#C9BFD8" stop-opacity="0.65"/>
</linearGradient>
<linearGradient id="paint1_linear" x1="9.01963" y1="11.3152" x2="-0.86501" y2="10.9469" gradientUnits="userSpaceOnUse">
<stop offset="0.00409913" stop-color="white"/>
<stop offset="0.957588" stop-color="#C9BFD8" stop-opacity="0.65"/>
</linearGradient>
<linearGradient id="paint2_linear" x1="26.0369" y1="26" x2="-17.3053" y2="24.3687" gradientUnits="userSpaceOnUse">
<stop offset="0.00409913" stop-color="white"/>
<stop offset="0.957588" stop-color="#C9BFD8" stop-opacity="0.65"/>
</linearGradient>
<linearGradient id="paint3_linear" x1="11.9772" y1="6.11001" x2="8.81081" y2="5.84343" gradientUnits="userSpaceOnUse">
<stop offset="0.00409913" stop-color="white"/>
<stop offset="0.957588" stop-color="#C9BFD8" stop-opacity="0.65"/>
</linearGradient>
<linearGradient id="paint4_linear" x1="14.5344" y1="5.97708" x2="8.01609" y2="5.67965" gradientUnits="userSpaceOnUse">
<stop offset="0.00409913" stop-color="white"/>
<stop offset="0.957588" stop-color="#C9BFD8" stop-opacity="0.65"/>
</linearGradient>
<linearGradient id="paint5_linear" x1="16.752" y1="3.9364" x2="3.16057" y2="3.09373" gradientUnits="userSpaceOnUse">
<stop offset="0.00409913" stop-color="white"/>
<stop offset="0.957588" stop-color="#C9BFD8" stop-opacity="0.65"/>
</linearGradient>
<linearGradient id="paint6_linear" x1="12.8411" y1="8.29922" x2="11.7473" y2="8.27989" gradientUnits="userSpaceOnUse">
<stop offset="0.00409913" stop-color="white"/>
<stop offset="0.957588" stop-color="#C9BFD8" stop-opacity="0.65"/>
</linearGradient>
<linearGradient id="paint7_linear" x1="12.8411" y1="24.18" x2="11.7473" y2="24.1606" gradientUnits="userSpaceOnUse">
<stop offset="0.00409913" stop-color="white"/>
<stop offset="0.957588" stop-color="#C9BFD8" stop-opacity="0.65"/>
</linearGradient>
<linearGradient id="paint8_linear" x1="18.5099" y1="10.5352" x2="16.5487" y2="10.4613" gradientUnits="userSpaceOnUse">
<stop offset="0.00409913" stop-color="white"/>
<stop offset="0.957588" stop-color="#C9BFD8" stop-opacity="0.65"/>
</linearGradient>
<linearGradient id="paint9_linear" x1="7.70997" y1="21.7672" x2="5.7488" y2="21.6933" gradientUnits="userSpaceOnUse">
<stop offset="0.00409913" stop-color="white"/>
<stop offset="0.957588" stop-color="#C9BFD8" stop-opacity="0.65"/>
</linearGradient>
<linearGradient id="paint10_linear" x1="20.8583" y1="15.9484" x2="18.5535" y2="15.7645" gradientUnits="userSpaceOnUse">
<stop offset="0.00409913" stop-color="white"/>
<stop offset="0.957588" stop-color="#C9BFD8" stop-opacity="0.65"/>
</linearGradient>
<linearGradient id="paint11_linear" x1="5.58832" y1="15.9484" x2="3.28346" y2="15.7645" gradientUnits="userSpaceOnUse">
<stop offset="0.00409913" stop-color="white"/>
<stop offset="0.957588" stop-color="#C9BFD8" stop-opacity="0.65"/>
</linearGradient>
<linearGradient id="paint12_linear" x1="18.52" y1="21.7672" x2="16.5425" y2="21.692" gradientUnits="userSpaceOnUse">
<stop offset="0.00409913" stop-color="white"/>
<stop offset="0.957588" stop-color="#C9BFD8" stop-opacity="0.65"/>
</linearGradient>
<linearGradient id="paint13_linear" x1="7.72005" y1="10.5352" x2="5.74256" y2="10.46" gradientUnits="userSpaceOnUse">
<stop offset="0.00409913" stop-color="white"/>
<stop offset="0.957588" stop-color="#C9BFD8" stop-opacity="0.65"/>
</linearGradient>
<linearGradient id="paint14_linear" x1="12.8411" y1="12.3344" x2="11.7471" y2="12.3272" gradientUnits="userSpaceOnUse">
<stop offset="0.00409913" stop-color="white"/>
<stop offset="0.957588" stop-color="#C9BFD8" stop-opacity="0.65"/>
</linearGradient>
<linearGradient id="paint15_linear" x1="9.7003" y1="15.9484" x2="4.80383" y2="15.0988" gradientUnits="userSpaceOnUse">
<stop offset="0.00409913" stop-color="white"/>
<stop offset="0.957588" stop-color="#C9BFD8" stop-opacity="0.65"/>
</linearGradient>
<linearGradient id="paint16_linear" x1="11.3761" y1="3.9364" x2="10.2821" y2="3.93096" gradientUnits="userSpaceOnUse">
<stop offset="0.00409913" stop-color="white"/>
<stop offset="0.957588" stop-color="#C9BFD8" stop-opacity="0.65"/>
</linearGradient>
<linearGradient id="paint17_linear" x1="12.8411" y1="3.9364" x2="11.747" y2="3.93096" gradientUnits="userSpaceOnUse">
<stop offset="0.00409913" stop-color="white"/>
<stop offset="0.957588" stop-color="#C9BFD8" stop-opacity="0.65"/>
</linearGradient>
<linearGradient id="paint18_linear" x1="14.3062" y1="3.9364" x2="13.2121" y2="3.93096" gradientUnits="userSpaceOnUse">
<stop offset="0.00409913" stop-color="white"/>
<stop offset="0.957588" stop-color="#C9BFD8" stop-opacity="0.65"/>
</linearGradient>
<linearGradient id="paint19_linear" x1="17.5963" y1="19.5676" x2="1.2842" y2="18.9536" gradientUnits="userSpaceOnUse">
<stop offset="0.00409913" stop-color="white"/>
<stop offset="0.957588" stop-color="#C9BFD8" stop-opacity="0.65"/>
</linearGradient>
<clipPath id="clip0">
<rect width="25" height="26" fill="white"/>
</clipPath>
</defs>
</svg>
