<svg width="26" height="25" viewBox="0 0 26 25" fill="none" xmlns="http://www.w3.org/2000/svg">
<g clip-path="url(#clip0)">
<path d="M11.4556 21.58H9.02057C8.60557 21.58 8.27057 21.245 8.27057 20.83V19.165C8.27057 18.75 8.60557 18.415 9.02057 18.415H11.4556C11.8706 18.415 12.2056 18.75 12.2056 19.165V20.83C12.2056 21.245 11.8706 21.58 11.4556 21.58ZM9.02057 18.915C8.88057 18.915 8.77057 19.025 8.77057 19.165V20.83C8.77057 20.97 8.88057 21.08 9.02057 21.08H11.4556C11.5956 21.08 11.7056 20.97 11.7056 20.83V19.165C11.7056 19.025 11.5956 18.915 11.4556 18.915H9.02057Z" fill="url(#paint0_linear)"/>
<path d="M16.3206 21.58H13.8856C13.4706 21.58 13.1356 21.245 13.1356 20.83V19.165C13.1356 18.75 13.4706 18.415 13.8856 18.415H16.3206C16.7356 18.415 17.0706 18.75 17.0706 19.165V20.83C17.0706 21.245 16.7356 21.58 16.3206 21.58ZM13.8856 18.915C13.7456 18.915 13.6356 19.025 13.6356 19.165V20.83C13.6356 20.97 13.7456 21.08 13.8856 21.08H16.3206C16.4606 21.08 16.5706 20.97 16.5706 20.83V19.165C16.5706 19.025 16.4606 18.915 16.3206 18.915H13.8856Z" fill="url(#paint1_linear)"/>
<path d="M21.1855 21.58H18.7505C18.3355 21.58 18.0005 21.245 18.0005 20.83V19.165C18.0005 18.75 18.3355 18.415 18.7505 18.415H21.1855C21.6005 18.415 21.9355 18.75 21.9355 19.165V20.83C21.9355 21.245 21.6005 21.58 21.1855 21.58ZM18.7505 18.915C18.6105 18.915 18.5005 19.025 18.5005 19.165V20.83C18.5005 20.97 18.6105 21.08 18.7505 21.08H21.1855C21.3255 21.08 21.4355 20.97 21.4355 20.83V19.165C21.4355 19.025 21.3255 18.915 21.1855 18.915H18.7505Z" fill="url(#paint2_linear)"/>
<path d="M23.1705 6.64999H2.17053C2.03053 6.64999 1.92053 6.53999 1.92053 6.39999V3.11999C1.92053 2.43 2.48053 1.87 3.17053 1.87H22.1705C22.8605 1.87 23.4205 2.43 23.4205 3.11999V6.39999C23.4205 6.53999 23.3105 6.64999 23.1705 6.64999ZM2.42053 6.14999H22.9205V3.11999C22.9205 2.70499 22.5855 2.36999 22.1705 2.36999H3.17053C2.75553 2.36999 2.42053 2.70499 2.42053 3.11999V6.14999Z" fill="url(#paint3_linear)"/>
<path d="M23.4205 25H1.92053C0.955532 25 0.170532 24.215 0.170532 23.25V1.75C0.170532 0.785 0.955532 0 1.92053 0H23.4205C24.3855 0 25.1705 0.785 25.1705 1.75V23.25C25.1705 24.215 24.3855 25 23.4205 25ZM1.92053 0.5C1.23053 0.5 0.670532 1.06 0.670532 1.75V23.25C0.670532 23.94 1.23053 24.5 1.92053 24.5H23.4205C24.1105 24.5 24.6705 23.94 24.6705 23.25V1.75C24.6705 1.06 24.1105 0.5 23.4205 0.5H1.92053Z" fill="url(#paint4_linear)"/>
<path d="M6.37053 23.5H2.67053C2.25553 23.5 1.92053 23.165 1.92053 22.75V10.25C1.92053 9.83502 2.25553 9.50002 2.67053 9.50002H6.37053C6.78553 9.50002 7.12053 9.83502 7.12053 10.25V22.75C7.12053 23.165 6.78553 23.5 6.37053 23.5ZM2.67053 10C2.53053 10 2.42053 10.11 2.42053 10.25V22.75C2.42053 22.89 2.53053 23 2.67053 23H6.37053C6.51053 23 6.62053 22.89 6.62053 22.75V10.25C6.62053 10.11 6.51053 10 6.37053 10H2.67053Z" fill="url(#paint5_linear)"/>
<path d="M22.1705 23.5H6.37054C6.23054 23.5 6.12054 23.39 6.12054 23.25C6.12054 23.11 6.23054 23 6.37054 23C6.51054 23 6.62054 22.89 6.62054 22.75V17.05C6.62054 16.91 6.73054 16.8 6.87054 16.8H23.1705C23.3105 16.8 23.4205 16.91 23.4205 17.05V22.25C23.4205 22.94 22.8605 23.5 22.1705 23.5ZM7.07554 23H22.1705C22.5855 23 22.9205 22.665 22.9205 22.25V17.3H7.12054V22.75C7.12054 22.84 7.10554 22.92 7.07554 23Z" fill="url(#paint6_linear)"/>
<path d="M20.7205 10H8.8205C8.6805 10 8.5705 9.89002 8.5705 9.75002C8.5705 9.61002 8.6805 9.50002 8.8205 9.50002H20.7205C20.8605 9.50002 20.9705 9.61002 20.9705 9.75002C20.9705 9.89002 20.8605 10 20.7205 10Z" fill="url(#paint7_linear)"/>
<path d="M23.1706 10H22.0706C21.9306 10 21.8206 9.89002 21.8206 9.75002C21.8206 9.61002 21.9306 9.50002 22.0706 9.50002H23.1706C23.3106 9.50002 23.4206 9.61002 23.4206 9.75002C23.4206 9.89002 23.3106 10 23.1706 10Z" fill="url(#paint8_linear)"/>
<path d="M20.7205 11.55H8.8205C8.6805 11.55 8.5705 11.44 8.5705 11.3C8.5705 11.16 8.6805 11.05 8.8205 11.05H20.7205C20.8605 11.05 20.9705 11.16 20.9705 11.3C20.9705 11.44 20.8605 11.55 20.7205 11.55Z" fill="url(#paint9_linear)"/>
<path d="M23.1706 11.55H22.0706C21.9306 11.55 21.8206 11.44 21.8206 11.3C21.8206 11.16 21.9306 11.05 22.0706 11.05H23.1706C23.3106 11.05 23.4206 11.16 23.4206 11.3C23.4206 11.44 23.3106 11.55 23.1706 11.55Z" fill="url(#paint10_linear)"/>
<path d="M20.7205 13.1H8.8205C8.6805 13.1 8.5705 12.99 8.5705 12.85C8.5705 12.71 8.6805 12.6 8.8205 12.6H20.7205C20.8605 12.6 20.9705 12.71 20.9705 12.85C20.9705 12.99 20.8605 13.1 20.7205 13.1Z" fill="url(#paint11_linear)"/>
<path d="M23.1706 13.1H22.0706C21.9306 13.1 21.8206 12.99 21.8206 12.85C21.8206 12.71 21.9306 12.6 22.0706 12.6H23.1706C23.3106 12.6 23.4206 12.71 23.4206 12.85C23.4206 12.99 23.3106 13.1 23.1706 13.1Z" fill="url(#paint12_linear)"/>
<path d="M20.7205 14.65H8.8205C8.6805 14.65 8.5705 14.54 8.5705 14.4C8.5705 14.26 8.6805 14.15 8.8205 14.15H20.7205C20.8605 14.15 20.9705 14.26 20.9705 14.4C20.9705 14.54 20.8605 14.65 20.7205 14.65Z" fill="url(#paint13_linear)"/>
<path d="M23.1706 14.65H22.0706C21.9306 14.65 21.8206 14.54 21.8206 14.4C21.8206 14.26 21.9306 14.15 22.0706 14.15H23.1706C23.3106 14.15 23.4206 14.26 23.4206 14.4C23.4206 14.54 23.3106 14.65 23.1706 14.65Z" fill="url(#paint14_linear)"/>
<path d="M20.7205 16.2H8.8205C8.6805 16.2 8.5705 16.09 8.5705 15.95C8.5705 15.81 8.6805 15.7 8.8205 15.7H20.7205C20.8605 15.7 20.9705 15.81 20.9705 15.95C20.9705 16.09 20.8605 16.2 20.7205 16.2Z" fill="url(#paint15_linear)"/>
<path d="M23.1706 16.2H22.0706C21.9306 16.2 21.8206 16.09 21.8206 15.95C21.8206 15.81 21.9306 15.7 22.0706 15.7H23.1706C23.3106 15.7 23.4206 15.81 23.4206 15.95C23.4206 16.09 23.3106 16.2 23.1706 16.2Z" fill="url(#paint16_linear)"/>
<path d="M22.6705 8.615H2.67053C2.25553 8.615 1.92053 8.28 1.92053 7.865V6.39999C1.92053 6.25999 2.03053 6.14999 2.17053 6.14999H23.1705C23.3105 6.14999 23.4205 6.25999 23.4205 6.39999V7.865C23.4205 8.28 23.0855 8.615 22.6705 8.615ZM2.42053 6.64999V7.865C2.42053 8.005 2.53053 8.115 2.67053 8.115H22.6705C22.8105 8.115 22.9205 8.005 22.9205 7.865V6.64999H2.42053Z" fill="url(#paint17_linear)"/>
</g>
<defs>
<linearGradient id="paint0_linear" x1="12.9231" y1="21.58" x2="4.33276" y2="21.1619" gradientUnits="userSpaceOnUse">
<stop offset="0.00409913" stop-color="white"/>
<stop offset="0.957588" stop-color="#C9BFD8" stop-opacity="0.65"/>
</linearGradient>
<linearGradient id="paint1_linear" x1="17.7881" y1="21.58" x2="9.19776" y2="21.1619" gradientUnits="userSpaceOnUse">
<stop offset="0.00409913" stop-color="white"/>
<stop offset="0.957588" stop-color="#C9BFD8" stop-opacity="0.65"/>
</linearGradient>
<linearGradient id="paint2_linear" x1="22.6531" y1="21.58" x2="14.0627" y2="21.1619" gradientUnits="userSpaceOnUse">
<stop offset="0.00409913" stop-color="white"/>
<stop offset="0.957588" stop-color="#C9BFD8" stop-opacity="0.65"/>
</linearGradient>
<linearGradient id="paint3_linear" x1="27.3411" y1="6.64999" x2="-18.2914" y2="-1.3842" gradientUnits="userSpaceOnUse">
<stop offset="0.00409913" stop-color="white"/>
<stop offset="0.957588" stop-color="#C9BFD8" stop-opacity="0.65"/>
</linearGradient>
<linearGradient id="paint4_linear" x1="29.7293" y1="25" x2="-24.8929" y2="22.8619" gradientUnits="userSpaceOnUse">
<stop offset="0.00409913" stop-color="white"/>
<stop offset="0.957588" stop-color="#C9BFD8" stop-opacity="0.65"/>
</linearGradient>
<linearGradient id="paint5_linear" x1="8.06876" y1="23.5" x2="-3.30765" y2="23.3346" gradientUnits="userSpaceOnUse">
<stop offset="0.00409913" stop-color="white"/>
<stop offset="0.957588" stop-color="#C9BFD8" stop-opacity="0.65"/>
</linearGradient>
<linearGradient id="paint6_linear" x1="26.5752" y1="23.5" x2="-10.8984" y2="19.7125" gradientUnits="userSpaceOnUse">
<stop offset="0.00409913" stop-color="white"/>
<stop offset="0.957588" stop-color="#C9BFD8" stop-opacity="0.65"/>
</linearGradient>
<linearGradient id="paint7_linear" x1="23.2317" y1="10" x2="9.26199" y2="-3.56107" gradientUnits="userSpaceOnUse">
<stop offset="0.00409913" stop-color="white"/>
<stop offset="0.957588" stop-color="#C9BFD8" stop-opacity="0.65"/>
</linearGradient>
<linearGradient id="paint8_linear" x1="23.7123" y1="10" x2="20.2652" y2="9.56824" gradientUnits="userSpaceOnUse">
<stop offset="0.00409913" stop-color="white"/>
<stop offset="0.957588" stop-color="#C9BFD8" stop-opacity="0.65"/>
</linearGradient>
<linearGradient id="paint9_linear" x1="23.2317" y1="11.55" x2="9.26204" y2="-2.01109" gradientUnits="userSpaceOnUse">
<stop offset="0.00409913" stop-color="white"/>
<stop offset="0.957588" stop-color="#C9BFD8" stop-opacity="0.65"/>
</linearGradient>
<linearGradient id="paint10_linear" x1="23.7123" y1="11.55" x2="20.2652" y2="11.1182" gradientUnits="userSpaceOnUse">
<stop offset="0.00409913" stop-color="white"/>
<stop offset="0.957588" stop-color="#C9BFD8" stop-opacity="0.65"/>
</linearGradient>
<linearGradient id="paint11_linear" x1="23.2317" y1="13.1" x2="9.26204" y2="-0.461084" gradientUnits="userSpaceOnUse">
<stop offset="0.00409913" stop-color="white"/>
<stop offset="0.957588" stop-color="#C9BFD8" stop-opacity="0.65"/>
</linearGradient>
<linearGradient id="paint12_linear" x1="23.7123" y1="13.1" x2="20.2652" y2="12.6682" gradientUnits="userSpaceOnUse">
<stop offset="0.00409913" stop-color="white"/>
<stop offset="0.957588" stop-color="#C9BFD8" stop-opacity="0.65"/>
</linearGradient>
<linearGradient id="paint13_linear" x1="23.2317" y1="14.65" x2="9.26207" y2="1.08891" gradientUnits="userSpaceOnUse">
<stop offset="0.00409913" stop-color="white"/>
<stop offset="0.957588" stop-color="#C9BFD8" stop-opacity="0.65"/>
</linearGradient>
<linearGradient id="paint14_linear" x1="23.7123" y1="14.65" x2="20.2652" y2="14.2182" gradientUnits="userSpaceOnUse">
<stop offset="0.00409913" stop-color="white"/>
<stop offset="0.957588" stop-color="#C9BFD8" stop-opacity="0.65"/>
</linearGradient>
<linearGradient id="paint15_linear" x1="23.2317" y1="16.2" x2="9.26202" y2="2.63891" gradientUnits="userSpaceOnUse">
<stop offset="0.00409913" stop-color="white"/>
<stop offset="0.957588" stop-color="#C9BFD8" stop-opacity="0.65"/>
</linearGradient>
<linearGradient id="paint16_linear" x1="23.7123" y1="16.2" x2="20.2652" y2="15.7682" gradientUnits="userSpaceOnUse">
<stop offset="0.00409913" stop-color="white"/>
<stop offset="0.957588" stop-color="#C9BFD8" stop-opacity="0.65"/>
</linearGradient>
<linearGradient id="paint17_linear" x1="27.3411" y1="8.615" x2="-14.7945" y2="-5.7706" gradientUnits="userSpaceOnUse">
<stop offset="0.00409913" stop-color="white"/>
<stop offset="0.957588" stop-color="#C9BFD8" stop-opacity="0.65"/>
</linearGradient>
<clipPath id="clip0">
<rect width="25" height="25" fill="white" transform="translate(0.170532)"/>
</clipPath>
</defs>
</svg>
