<svg width="25" height="26" viewBox="0 0 25 26" fill="none" xmlns="http://www.w3.org/2000/svg">
<g clip-path="url(#clip0)">
<path d="M15.4729 22.1883H15.1945C15.0601 22.1883 14.9545 22.0739 14.9545 21.9283C14.9545 21.7827 15.0601 21.6683 15.1945 21.6683H15.4729C15.6073 21.6683 15.7129 21.7827 15.7129 21.9283C15.7129 22.0739 15.6073 22.1883 15.4729 22.1883Z" fill="url(#paint0_linear)"/>
<path d="M14.0473 22.1883H11.9545C11.8201 22.1883 11.7145 22.0739 11.7145 21.9283C11.7145 21.7827 11.8201 21.6683 11.9545 21.6683H14.0473C14.1817 21.6683 14.2873 21.7827 14.2873 21.9283C14.2873 22.0739 14.1817 22.1883 14.0473 22.1883Z" fill="url(#paint1_linear)"/>
<path d="M10.6537 22.1885H7.09692C6.99612 22.1885 6.90492 22.1209 6.87132 22.0169L5.22012 16.9157L5.02812 16.3177C4.98492 16.1825 5.05212 16.0317 5.17692 15.9849C5.30172 15.9381 5.44092 16.0109 5.48412 16.1461L5.67612 16.7441L7.26972 21.6685H10.6585C10.7929 21.6685 10.8985 21.7829 10.8985 21.9285C10.8985 22.0741 10.7881 22.1885 10.6537 22.1885Z" fill="url(#paint2_linear)"/>
<path d="M4.80253 15.0955C4.70173 15.0955 4.61053 15.0279 4.57693 14.9187L3.84733 12.6567C3.80413 12.5215 3.87133 12.3707 3.99613 12.3239C4.12093 12.2771 4.26013 12.35 4.30333 12.4851L5.03293 14.7471C5.07613 14.8823 5.00893 15.0331 4.88413 15.0799C4.85533 15.0903 4.82653 15.0955 4.80253 15.0955Z" fill="url(#paint3_linear)"/>
<path d="M3.54493 11.2112C3.44413 11.2112 3.35293 11.1436 3.31933 11.0344L3.23773 10.7692C3.19453 10.634 3.26173 10.4832 3.39133 10.4416C3.52093 10.4 3.65533 10.4676 3.69373 10.608L3.77053 10.868C3.81373 11.0032 3.74653 11.154 3.61693 11.1956C3.59773 11.206 3.56893 11.2112 3.54493 11.2112Z" fill="url(#paint4_linear)"/>
<path d="M17.2441 22.1884H16.4089C16.2745 22.1884 16.1689 22.074 16.1689 21.9284C16.1689 21.7828 16.2745 21.6684 16.4089 21.6684H17.0761L21.6313 7.58165C21.6361 7.56605 21.6457 7.52965 21.6025 7.50365C21.5593 7.47765 21.5401 7.50885 21.5305 7.51925L18.1081 12.0796C17.4553 12.9532 16.4185 13.3276 15.4153 13.0572C14.4121 12.792 13.6537 11.9444 13.4473 10.8472L12.2281 4.53965C12.2233 4.52405 12.2185 4.48765 12.1705 4.48765C12.1273 4.48765 12.1225 4.51885 12.1177 4.53445L10.9033 10.8576C10.6921 11.9548 9.93852 12.8024 8.93532 13.0676C7.92732 13.3328 6.89532 12.9584 6.24252 12.09L2.82012 7.52965C2.81052 7.51925 2.79132 7.48805 2.74812 7.51405C2.70492 7.54005 2.71452 7.57645 2.71932 7.59205L3.28572 9.34965C3.32892 9.48485 3.26172 9.63565 3.13692 9.68245C3.01212 9.72925 2.87292 9.65645 2.82972 9.52125L2.26332 7.76365C2.17692 7.48805 2.27772 7.20205 2.50812 7.06165C2.73852 6.92125 3.02172 6.97845 3.18972 7.20205L6.61212 11.7624C7.14972 12.4748 7.99452 12.7816 8.82012 12.5632C9.64572 12.3448 10.2601 11.6532 10.4329 10.7536L11.6473 4.43565C11.6953 4.16005 11.9065 3.97285 12.1657 3.97285H12.1705C12.4297 3.97285 12.6457 4.16525 12.6985 4.43565L13.9129 10.7484C14.0857 11.648 14.7049 12.3396 15.5257 12.558C16.3513 12.7764 17.1961 12.4696 17.7337 11.7572L21.1561 7.19685C21.3241 6.97325 21.6025 6.91605 21.8377 7.05645C22.0681 7.19685 22.1737 7.48805 22.0825 7.75845L17.4697 22.0168C17.4361 22.1208 17.3449 22.1884 17.2441 22.1884Z" fill="url(#paint5_linear)"/>
<path d="M18.5833 25.4227H5.76252C5.62812 25.4227 5.52252 25.3083 5.52252 25.1627V24.8039C5.52252 23.9303 5.82012 23.0879 6.36252 22.4379L6.92892 21.7567C7.01532 21.6475 7.16892 21.6423 7.26972 21.7359C7.37052 21.8295 7.37532 21.9959 7.28892 22.1051L6.72252 22.7863C6.26172 23.3427 6.00732 24.0603 6.00732 24.8091V24.9079H18.3481V24.8039C18.3481 24.0603 18.0937 23.3427 17.6329 22.7811L17.0617 22.0999C16.9753 21.9907 16.9801 21.8295 17.0809 21.7307C17.1817 21.6371 17.3305 21.6423 17.4217 21.7515L17.9881 22.4327C18.5305 23.0879 18.8281 23.9303 18.8281 24.7987V25.1575C18.8233 25.3083 18.7177 25.4227 18.5833 25.4227Z" fill="url(#paint6_linear)"/>
<path d="M12.1706 4.49278C11.1722 4.49278 10.361 3.61398 10.361 2.53238C10.361 1.45078 11.1722 0.571976 12.1706 0.571976C13.169 0.571976 13.9802 1.45078 13.9802 2.53238C13.9802 3.61398 13.169 4.49278 12.1706 4.49278ZM12.1706 1.09198C11.4362 1.09198 10.841 1.73678 10.841 2.53238C10.841 3.32798 11.4362 3.97278 12.1706 3.97278C12.905 3.97278 13.5002 3.32798 13.5002 2.53238C13.5002 1.73678 12.905 1.09198 12.1706 1.09198Z" fill="url(#paint7_linear)"/>
<path d="M22.3609 7.80517C21.3625 7.80517 20.5513 6.92637 20.5513 5.84477C20.5513 4.76317 21.3625 3.88437 22.3609 3.88437C23.3593 3.88437 24.1705 4.76317 24.1705 5.84477C24.1705 6.92637 23.3593 7.80517 22.3609 7.80517ZM22.3609 4.40437C21.6265 4.40437 21.0313 5.04917 21.0313 5.84477C21.0313 6.64037 21.6265 7.28517 22.3609 7.28517C23.0953 7.28517 23.6905 6.64037 23.6905 5.84477C23.6905 5.04917 23.0953 4.40437 22.3609 4.40437Z" fill="url(#paint8_linear)"/>
<path d="M1.98013 7.80517C0.981732 7.80517 0.170532 6.92637 0.170532 5.84477C0.170532 4.76317 0.981732 3.88437 1.98013 3.88437C2.97853 3.88437 3.78973 4.76317 3.78973 5.84477C3.78973 6.92637 2.97853 7.80517 1.98013 7.80517ZM1.98013 4.40437C1.24573 4.40437 0.650532 5.04917 0.650532 5.84477C0.650532 6.64037 1.24573 7.28517 1.98013 7.28517C2.71453 7.28517 3.30973 6.64037 3.30973 5.84477C3.30973 5.04917 2.71453 4.40437 1.98013 4.40437Z" fill="url(#paint9_linear)"/>
<path d="M12.1706 18.7199C11.9786 18.7199 11.7962 18.6367 11.6618 18.4911L10.0778 16.7803C9.79936 16.4787 9.79936 15.9847 10.0778 15.6779L11.657 13.9671C11.7914 13.8215 11.9738 13.7383 12.1658 13.7383C12.3578 13.7383 12.5402 13.8215 12.6746 13.9671L14.2538 15.6779C14.3882 15.8235 14.4698 16.0159 14.4698 16.2239C14.4698 16.4319 14.3978 16.6295 14.2586 16.7751L12.6794 18.4859C12.545 18.6419 12.3626 18.7199 12.1706 18.7199ZM12.1658 14.2635C12.1034 14.2635 12.041 14.2895 11.9978 14.3415L10.4186 16.0523C10.3274 16.1511 10.3274 16.3175 10.4186 16.4163L12.0026 18.1271C12.0458 18.1739 12.1082 18.2051 12.1706 18.2051C12.233 18.2051 12.2954 18.1791 12.3386 18.1271L13.9178 16.4163C13.961 16.3695 13.9898 16.3019 13.985 16.2343C13.985 16.1667 13.961 16.0991 13.913 16.0523L12.3338 14.3415C12.2906 14.2895 12.233 14.2635 12.1658 14.2635Z" fill="url(#paint10_linear)"/>
<path d="M15.6314 18.0127C15.449 18.0127 15.2618 17.9347 15.1226 17.7839L14.1962 16.7803C13.9178 16.4787 13.9178 15.9847 14.1962 15.6779L15.1226 14.6743C15.401 14.3727 15.857 14.3727 16.1402 14.6743L17.0666 15.6779C17.345 15.9795 17.345 16.4735 17.0666 16.7803L16.1402 17.7839C16.001 17.9399 15.8186 18.0127 15.6314 18.0127ZM15.6362 14.9707C15.5738 14.9707 15.5162 14.9967 15.4682 15.0487L14.5418 16.0523C14.4506 16.1511 14.4506 16.3175 14.5418 16.4163L15.4682 17.4199C15.5114 17.4667 15.5738 17.4979 15.6362 17.4979C15.6986 17.4979 15.761 17.4719 15.8042 17.4199L16.7306 16.4163C16.7738 16.3695 16.8026 16.3019 16.8026 16.2343C16.8026 16.1667 16.7786 16.0991 16.7306 16.0523L15.8042 15.0487C15.7562 14.9967 15.6938 14.9707 15.6362 14.9707Z" fill="url(#paint11_linear)"/>
<path d="M8.70973 18.0127C8.51773 18.0127 8.33534 17.9295 8.20094 17.7839L7.27453 16.7803C6.99613 16.4787 6.99613 15.9847 7.27453 15.6779L8.20094 14.6743C8.47934 14.3727 8.93533 14.3727 9.21853 14.6743L10.1449 15.6779C10.4233 15.9795 10.4233 16.4735 10.1449 16.7803L9.21373 17.7839C9.07933 17.9347 8.89693 18.0127 8.70973 18.0127ZM8.70973 14.9707C8.64733 14.9707 8.58973 14.9967 8.54173 15.0487L7.61053 16.0471C7.51933 16.1459 7.51933 16.3123 7.61053 16.4111L8.53694 17.4147C8.58013 17.4615 8.64253 17.4927 8.70493 17.4927C8.76733 17.4927 8.82973 17.4667 8.87293 17.4147L9.79934 16.4111C9.89054 16.3123 9.89054 16.1459 9.79934 16.0471L8.87293 15.0435C8.82973 14.9967 8.76733 14.9707 8.70973 14.9707Z" fill="url(#paint12_linear)"/>
</g>
<defs>
<linearGradient id="paint0_linear" x1="15.8512" y1="22.1883" x2="14.1971" y2="22.0939" gradientUnits="userSpaceOnUse">
<stop offset="0.00409913" stop-color="white"/>
<stop offset="0.957588" stop-color="#C9BFD8" stop-opacity="0.65"/>
</linearGradient>
<linearGradient id="paint1_linear" x1="14.7565" y1="22.1883" x2="9.33013" y2="21.1374" gradientUnits="userSpaceOnUse">
<stop offset="0.00409913" stop-color="white"/>
<stop offset="0.957588" stop-color="#C9BFD8" stop-opacity="0.65"/>
</linearGradient>
<linearGradient id="paint2_linear" x1="11.9714" y1="22.1885" x2="-0.885462" y2="21.7123" gradientUnits="userSpaceOnUse">
<stop offset="0.00409913" stop-color="white"/>
<stop offset="0.957588" stop-color="#C9BFD8" stop-opacity="0.65"/>
</linearGradient>
<linearGradient id="paint3_linear" x1="5.26701" y1="15.0955" x2="2.61606" y2="15.0504" gradientUnits="userSpaceOnUse">
<stop offset="0.00409913" stop-color="white"/>
<stop offset="0.957588" stop-color="#C9BFD8" stop-opacity="0.65"/>
</linearGradient>
<linearGradient id="paint4_linear" x1="3.88552" y1="11.2112" x2="2.66341" y2="11.177" gradientUnits="userSpaceOnUse">
<stop offset="0.00409913" stop-color="white"/>
<stop offset="0.957588" stop-color="#C9BFD8" stop-opacity="0.65"/>
</linearGradient>
<linearGradient id="paint5_linear" x1="25.7408" y1="22.1884" x2="-17.6875" y2="20.333" gradientUnits="userSpaceOnUse">
<stop offset="0.00409913" stop-color="white"/>
<stop offset="0.957588" stop-color="#C9BFD8" stop-opacity="0.65"/>
</linearGradient>
<linearGradient id="paint6_linear" x1="21.2544" y1="25.4227" x2="-7.31264" y2="21.4635" gradientUnits="userSpaceOnUse">
<stop offset="0.00409913" stop-color="white"/>
<stop offset="0.957588" stop-color="#C9BFD8" stop-opacity="0.65"/>
</linearGradient>
<linearGradient id="paint7_linear" x1="14.6401" y1="4.49278" x2="6.7308" y2="4.20699" gradientUnits="userSpaceOnUse">
<stop offset="0.00409913" stop-color="white"/>
<stop offset="0.957588" stop-color="#C9BFD8" stop-opacity="0.65"/>
</linearGradient>
<linearGradient id="paint8_linear" x1="24.8305" y1="7.80516" x2="16.9212" y2="7.51938" gradientUnits="userSpaceOnUse">
<stop offset="0.00409913" stop-color="white"/>
<stop offset="0.957588" stop-color="#C9BFD8" stop-opacity="0.65"/>
</linearGradient>
<linearGradient id="paint9_linear" x1="4.4497" y1="7.80516" x2="-3.45963" y2="7.51938" gradientUnits="userSpaceOnUse">
<stop offset="0.00409913" stop-color="white"/>
<stop offset="0.957588" stop-color="#C9BFD8" stop-opacity="0.65"/>
</linearGradient>
<linearGradient id="paint10_linear" x1="15.3087" y1="18.7199" x2="5.25423" y2="18.3564" gradientUnits="userSpaceOnUse">
<stop offset="0.00409913" stop-color="white"/>
<stop offset="0.957588" stop-color="#C9BFD8" stop-opacity="0.65"/>
</linearGradient>
<linearGradient id="paint11_linear" x1="17.8749" y1="18.0127" x2="10.6894" y2="17.7533" gradientUnits="userSpaceOnUse">
<stop offset="0.00409913" stop-color="white"/>
<stop offset="0.957588" stop-color="#C9BFD8" stop-opacity="0.65"/>
</linearGradient>
<linearGradient id="paint12_linear" x1="10.9533" y1="18.0127" x2="3.76776" y2="17.7533" gradientUnits="userSpaceOnUse">
<stop offset="0.00409913" stop-color="white"/>
<stop offset="0.957588" stop-color="#C9BFD8" stop-opacity="0.65"/>
</linearGradient>
<clipPath id="clip0">
<rect width="24" height="26" fill="white" transform="translate(0.170532)"/>
</clipPath>
</defs>
</svg>
