<svg width="24" height="26" viewBox="0 0 24 26" fill="none" xmlns="http://www.w3.org/2000/svg">
<path d="M21.12 18.642H2.87999C2.21759 18.642 1.67999 18.0596 1.67999 17.342V3.12004C1.67999 2.40244 2.21759 1.82004 2.87999 1.82004H21.12C21.7824 1.82004 22.32 2.40244 22.32 3.12004V17.342C22.32 18.0596 21.7824 18.642 21.12 18.642ZM2.87999 2.34004C2.48159 2.34004 2.15999 2.68844 2.15999 3.12004V17.342C2.15999 17.7736 2.48159 18.122 2.87999 18.122H21.12C21.5184 18.122 21.84 17.7736 21.84 17.342V3.12004C21.84 2.68844 21.5184 2.34004 21.12 2.34004H2.87999Z" fill="url(#paint0_linear)"/>
<path d="M17.7984 26H6.2064C6.072 26 5.9664 25.8856 5.9664 25.74V25.22C5.9664 24.0708 6.8256 23.14 7.8864 23.14H9.0816C9.5328 23.14 9.9024 22.7396 9.9024 22.2508V21.5488C9.9024 20.9508 9.4512 20.462 8.8992 20.462H1.68C0.7536 20.462 0 19.6456 0 18.642V1.82C0 0.8164 0.7536 0 1.68 0H22.32C23.2464 0 24 0.8164 24 1.82V18.642C24 19.6456 23.2464 20.462 22.32 20.462H15.1056C14.5536 20.462 14.1024 20.9508 14.1024 21.5488V22.2508C14.1024 22.7396 14.472 23.14 14.9232 23.14H16.1184C17.1792 23.14 18.0384 24.0708 18.0384 25.22V25.74C18.0384 25.8856 17.9328 26 17.7984 26ZM6.4464 25.48H17.5584V25.22C17.5584 24.362 16.9104 23.66 16.1184 23.66H14.9232C14.208 23.66 13.6224 23.0256 13.6224 22.2508V21.5488C13.6224 20.6648 14.2896 19.942 15.1056 19.942H22.32C22.9824 19.942 23.52 19.3596 23.52 18.642V1.82C23.52 1.1024 22.9824 0.52 22.32 0.52H1.68C1.0176 0.52 0.48 1.1024 0.48 1.82V18.642C0.48 19.3596 1.0176 19.942 1.68 19.942H8.8992C9.7152 19.942 10.3824 20.6648 10.3824 21.5488V22.2508C10.3824 23.0256 9.7968 23.66 9.0816 23.66H7.8864C7.0944 23.66 6.4464 24.362 6.4464 25.22V25.48Z" fill="url(#paint1_linear)"/>
<path d="M10.7808 20.462H8.59199C8.45759 20.462 8.35199 20.3476 8.35199 20.202C8.35199 20.0564 8.45759 19.942 8.59199 19.942H10.7808C10.9152 19.942 11.0208 20.0564 11.0208 20.202C11.0208 20.3476 10.9152 20.462 10.7808 20.462Z" fill="url(#paint2_linear)"/>
<path d="M12.456 20.462H12C11.8656 20.462 11.76 20.3476 11.76 20.202C11.76 20.0564 11.8656 19.942 12 19.942H12.456C12.5904 19.942 12.696 20.0564 12.696 20.202C12.696 20.3476 12.5904 20.462 12.456 20.462Z" fill="url(#paint3_linear)"/>
<path d="M15.2496 23.66H12.5904C12.456 23.66 12.3504 23.5456 12.3504 23.4C12.3504 23.2544 12.456 23.14 12.5904 23.14H15.2496C15.384 23.14 15.4896 23.2544 15.4896 23.4C15.4896 23.5456 15.384 23.66 15.2496 23.66Z" fill="url(#paint4_linear)"/>
<path d="M8.68803 12.5528C8.58243 12.5528 8.47203 12.532 8.36643 12.4904L5.61603 11.3932C5.16483 11.2164 4.86243 10.7484 4.86243 10.2284C4.86243 9.70839 5.16483 9.24039 5.61603 9.06359L8.36643 7.96639C8.65443 7.85199 8.97603 7.89879 9.22083 8.08599C9.46563 8.27319 9.61443 8.58519 9.61443 8.91279C9.61443 9.33919 9.36003 9.72399 8.99043 9.84879L8.03043 10.2232L8.99523 10.5976C9.36483 10.738 9.60963 11.1176 9.60963 11.544C9.60963 11.8716 9.46083 12.1784 9.21603 12.3708C9.06723 12.4852 8.87523 12.5528 8.68803 12.5528ZM8.69283 8.42399C8.64003 8.42399 8.58723 8.43439 8.53443 8.45519L5.78403 9.55239C5.52003 9.65639 5.34723 9.92679 5.34723 10.2284C5.34723 10.53 5.52483 10.8004 5.78403 10.9044L8.53443 12.0016C8.58243 12.0224 8.63523 12.0328 8.68803 12.0328C8.77923 12.0328 8.87043 12.0016 8.94243 11.9444C9.06243 11.8508 9.13443 11.7 9.13443 11.544C9.13443 11.3412 9.01443 11.154 8.83683 11.0864L7.24323 10.4676C7.14723 10.4312 7.08483 10.3324 7.08483 10.2232C7.08483 10.114 7.14723 10.0152 7.24323 9.97879L8.83683 9.35999C8.84163 9.35999 8.84163 9.35999 8.84643 9.35479C9.01923 9.29759 9.13923 9.11559 9.13923 8.91279C9.13923 8.75159 9.06723 8.60599 8.94723 8.51239C8.87523 8.45519 8.78403 8.42399 8.69283 8.42399Z" fill="url(#paint5_linear)"/>
<path d="M10.6177 15.1268C10.2817 15.1268 9.96966 14.95 9.78246 14.6484C9.59046 14.3468 9.55206 13.9672 9.67686 13.6292L12.4465 6.02155C12.5953 5.60035 12.9649 5.32475 13.3873 5.32475C13.7233 5.32475 14.0353 5.50155 14.2225 5.80315C14.4145 6.10475 14.4529 6.48435 14.3281 6.82235L11.5585 14.43C11.4049 14.8512 11.0353 15.1268 10.6177 15.1268ZM13.3825 5.84995C13.1617 5.84995 12.9697 5.99035 12.8929 6.21395L10.1233 13.8216C10.0561 13.9984 10.0801 14.1908 10.1809 14.352C10.2817 14.508 10.4449 14.6016 10.6225 14.6016C10.8433 14.6016 11.0353 14.456 11.1121 14.2376L13.8817 6.62995C13.9489 6.45315 13.9249 6.26075 13.8241 6.09955C13.7233 5.94355 13.5601 5.84995 13.3825 5.84995Z" fill="url(#paint6_linear)"/>
<path d="M15.3072 12.5632C15.12 12.5632 14.928 12.4956 14.7744 12.3812C14.5296 12.1888 14.3808 11.882 14.3808 11.5544C14.3808 11.128 14.6304 10.7484 14.9952 10.608L15.9552 10.2336L14.9904 9.85919C14.6208 9.71879 14.376 9.33919 14.376 8.91279C14.376 8.58519 14.5248 8.27839 14.7696 8.08599C15.0192 7.89879 15.3408 7.85199 15.624 7.96639L18.3744 9.06359C18.8256 9.25079 19.128 9.72399 19.1184 10.2388C19.1184 10.7536 18.816 11.2216 18.3648 11.3984L15.6144 12.4956C15.5232 12.5424 15.4176 12.5632 15.3072 12.5632ZM15.312 8.42399C15.2208 8.42399 15.1296 8.45519 15.0528 8.51239C14.9328 8.60079 14.8656 8.75159 14.8656 8.91279C14.8656 9.11559 14.9856 9.30279 15.1632 9.37039L16.7568 9.98919C16.8528 10.0256 16.9152 10.1244 16.9152 10.2336C16.9152 10.3428 16.8528 10.4416 16.7568 10.478L15.1632 11.0968C14.9856 11.1644 14.8656 11.3516 14.8656 11.5544C14.8656 11.7156 14.9376 11.8612 15.0576 11.9548C15.1296 12.012 15.2208 12.0432 15.312 12.0432C15.3648 12.0432 15.4128 12.0328 15.4608 12.012L18.2112 10.9148C18.4752 10.8108 18.648 10.5404 18.648 10.2388C18.6528 9.93719 18.4752 9.66159 18.2112 9.55239L15.4608 8.45519C15.4128 8.43439 15.36 8.42399 15.312 8.42399Z" fill="url(#paint7_linear)"/>
<defs>
<linearGradient id="paint0_linear" x1="26.0837" y1="18.642" x2="-18.9775" y2="16.4779" gradientUnits="userSpaceOnUse">
<stop offset="0.00409913" stop-color="white"/>
<stop offset="0.957588" stop-color="#C9BFD8" stop-opacity="0.65"/>
</linearGradient>
<linearGradient id="paint1_linear" x1="28.3765" y1="26" x2="-24.0727" y2="24.1049" gradientUnits="userSpaceOnUse">
<stop offset="0.00409913" stop-color="white"/>
<stop offset="0.957588" stop-color="#C9BFD8" stop-opacity="0.65"/>
</linearGradient>
<linearGradient id="paint2_linear" x1="11.5075" y1="20.462" x2="5.89404" y2="19.3343" gradientUnits="userSpaceOnUse">
<stop offset="0.00409913" stop-color="white"/>
<stop offset="0.957588" stop-color="#C9BFD8" stop-opacity="0.65"/>
</linearGradient>
<linearGradient id="paint3_linear" x1="12.8667" y1="20.462" x2="10.8286" y2="20.3184" gradientUnits="userSpaceOnUse">
<stop offset="0.00409913" stop-color="white"/>
<stop offset="0.957588" stop-color="#C9BFD8" stop-opacity="0.65"/>
</linearGradient>
<linearGradient id="paint4_linear" x1="16.062" y1="23.66" x2="9.55603" y2="22.1226" gradientUnits="userSpaceOnUse">
<stop offset="0.00409913" stop-color="white"/>
<stop offset="0.957588" stop-color="#C9BFD8" stop-opacity="0.65"/>
</linearGradient>
<linearGradient id="paint5_linear" x1="10.481" y1="12.5528" x2="0.099093" y2="12.1373" gradientUnits="userSpaceOnUse">
<stop offset="0.00409913" stop-color="white"/>
<stop offset="0.957588" stop-color="#C9BFD8" stop-opacity="0.65"/>
</linearGradient>
<linearGradient id="paint6_linear" x1="15.2746" y1="15.1267" x2="4.78493" y2="14.9259" gradientUnits="userSpaceOnUse">
<stop offset="0.00409913" stop-color="white"/>
<stop offset="0.957588" stop-color="#C9BFD8" stop-opacity="0.65"/>
</linearGradient>
<linearGradient id="paint7_linear" x1="19.9835" y1="12.5632" x2="9.62196" y2="12.1503" gradientUnits="userSpaceOnUse">
<stop offset="0.00409913" stop-color="white"/>
<stop offset="0.957588" stop-color="#C9BFD8" stop-opacity="0.65"/>
</linearGradient>
</defs>
</svg>
