<svg width="29" height="35" viewBox="0 0 29 35" fill="none" xmlns="http://www.w3.org/2000/svg">
<path d="M6.27292 20.944C4.40648 20.944 2.89087 22.456 2.89087 24.318V26.264H5.32566L6.50447 23.548C6.54657 23.457 6.57463 23.366 6.60972 23.275C6.63778 23.184 6.66585 23.086 6.67988 22.995C6.72198 22.806 6.73602 22.61 6.73602 22.421V20.937H6.27292V20.944Z" fill="url(#paint0_linear)"/>
<path d="M22.7271 20.944H22.264V22.428C22.264 22.624 22.285 22.813 22.3201 23.002C22.3412 23.093 22.3622 23.191 22.3903 23.282C22.4183 23.373 22.4534 23.464 22.4955 23.555L23.6743 26.271H26.1091V24.325C26.1091 22.456 24.5935 20.944 22.7271 20.944Z" fill="url(#paint1_linear)"/>
<path d="M12.9528 25.172C13.1072 25.291 13.3247 25.263 13.444 25.116C13.7036 24.794 14.0825 24.605 14.4965 24.605C14.9105 24.605 15.2964 24.794 15.549 25.116C15.6192 25.2 15.7174 25.249 15.8226 25.249C15.8998 25.249 15.977 25.221 16.0402 25.172C16.1945 25.053 16.2156 24.829 16.0963 24.682C15.7034 24.192 15.121 23.905 14.4895 23.905C13.858 23.905 13.2756 24.185 12.8827 24.682C12.7774 24.829 12.7985 25.046 12.9528 25.172ZM14.5035 9.66C14.307 9.66 14.1527 9.814 14.1527 10.01V11.592C14.1527 11.788 14.307 11.942 14.5035 11.942C14.7 11.942 14.8543 11.788 14.8543 11.592V10.01C14.8543 9.814 14.693 9.66 14.5035 9.66ZM12.5108 11.942C12.7072 11.942 12.8616 11.788 12.8616 11.592V10.01C12.8616 9.814 12.7072 9.66 12.5108 9.66C12.3143 9.66 12.1599 9.814 12.1599 10.01V11.592C12.1599 11.788 12.3143 11.942 12.5108 11.942ZM12.5108 13.657C12.7072 13.657 12.8616 13.503 12.8616 13.307V12.929C12.8616 12.733 12.7072 12.579 12.5108 12.579C12.3143 12.579 12.1599 12.733 12.1599 12.929V13.307C12.1599 13.496 12.3143 13.657 12.5108 13.657ZM11.0653 9.156H17.9277C19.752 9.156 21.2395 7.672 21.2395 5.852C21.2395 4.032 19.752 2.548 17.9277 2.548C17.8575 2.548 17.7873 2.548 17.7242 2.555C17.3874 1.078 16.0542 0 14.5035 0C12.9528 0 11.6196 1.078 11.2758 2.555C11.2057 2.548 11.1355 2.548 11.0723 2.548C9.248 2.548 7.76046 4.032 7.76046 5.852C7.76046 7.679 9.24099 9.156 11.0653 9.156ZM11.0653 3.248C11.2057 3.248 11.353 3.262 11.5004 3.283C11.5916 3.297 11.6898 3.276 11.767 3.22C11.8442 3.164 11.8933 3.08 11.9073 2.982C12.0687 1.68 13.1844 0.7 14.5035 0.7C15.8226 0.7 16.9313 1.68 17.0927 2.989C17.1067 3.087 17.1558 3.171 17.233 3.227C17.3102 3.283 17.4084 3.311 17.4996 3.29C17.647 3.262 17.7943 3.255 17.9347 3.255C19.3731 3.255 20.5449 4.424 20.5449 5.859C20.5449 7.294 19.3731 8.463 17.9347 8.463H11.0723C9.63392 8.463 8.46213 7.294 8.46213 5.859C8.46213 4.424 9.62691 3.248 11.0653 3.248ZM20.9869 12.201C20.9869 12.397 21.1413 12.551 21.3378 12.551H21.7939V13.006C21.7939 13.202 21.9482 13.356 22.1447 13.356C22.3412 13.356 22.4955 13.202 22.4955 13.006V12.551H22.9516C23.1481 12.551 23.3024 12.397 23.3024 12.201C23.3024 12.005 23.1481 11.851 22.9516 11.851H22.4955V11.396C22.4955 11.2 22.3412 11.046 22.1447 11.046C21.9482 11.046 21.7939 11.2 21.7939 11.396V11.851H21.3378C21.1413 11.851 20.9869 12.012 20.9869 12.201ZM27.1827 34.3H25.6109C26.1091 33.838 26.4319 33.187 26.467 32.452C26.467 32.438 26.467 32.424 26.467 32.41V24.325C26.467 22.267 24.79 20.601 22.7341 20.601H22.6218V20.363C22.6218 19.733 22.4955 19.117 22.2499 18.536L21.1834 16.044C20.9799 15.568 20.5168 15.253 19.9976 15.239C19.4292 14.56 18.7486 13.993 17.9768 13.559C17.8084 13.468 17.5909 13.524 17.4996 13.692C17.4084 13.86 17.4646 14.077 17.633 14.168C18.1522 14.455 18.6293 14.812 19.0503 15.232H18.3978C17.8856 15.232 17.4154 15.484 17.1348 15.911C16.8541 16.338 16.805 16.863 17.0085 17.332L17.64 18.809C17.8505 19.306 17.9557 19.824 17.9557 20.363V22.008C17.9557 22.715 18.068 23.415 18.2855 24.094L18.5171 24.801C17.3804 25.704 15.963 26.201 14.5035 26.201C13.044 26.201 11.6267 25.704 10.49 24.801L10.7215 24.094C10.946 23.422 11.0513 22.722 11.0513 22.008V20.363C11.0513 19.824 11.1565 19.306 11.367 18.809L11.9985 17.332C12.195 16.863 12.1529 16.331 11.8722 15.911C11.5916 15.484 11.1215 15.232 10.6092 15.232H9.95669C10.3777 14.812 10.8478 14.455 11.3741 14.168C11.5425 14.077 11.6056 13.86 11.5074 13.692C11.4162 13.524 11.1986 13.461 11.0302 13.559C10.2514 13.993 9.57779 14.553 9.00944 15.239C8.4902 15.253 8.0271 15.561 7.82362 16.044L6.75708 18.536C6.51149 19.117 6.38519 19.733 6.38519 20.363V20.601H6.27293C4.21002 20.601 2.54004 22.274 2.54004 24.325V26.257C2.54004 26.264 2.54004 26.264 2.54004 26.271V32.403C2.54004 32.417 2.54004 32.431 2.54004 32.445C2.56811 33.18 2.89088 33.831 3.39608 34.293H1.82434C1.62787 34.293 1.47351 34.447 1.47351 34.643C1.47351 34.839 1.62787 34.993 1.82434 34.993H8.14638C8.34285 34.993 8.49722 34.839 8.49722 34.643C8.49722 34.447 8.34285 34.293 8.14638 34.293H7.00968C7.33946 33.992 7.59206 33.607 7.73942 33.159L10.2584 25.487C11.4793 26.39 12.9669 26.887 14.5035 26.887C16.0331 26.887 17.5207 26.39 18.7486 25.487L21.2606 33.166C21.4079 33.607 21.6605 33.999 21.9903 34.3H20.8536C20.6572 34.3 20.5028 34.454 20.5028 34.65C20.5028 34.846 20.6572 35 20.8536 35H27.1757C27.3721 35 27.5265 34.846 27.5265 34.65C27.5265 34.454 27.3721 34.3 27.1827 34.3ZM6.27293 21.294H6.38519V22.428C6.38519 22.771 6.31503 23.1 6.18171 23.415L5.09412 25.921H3.24171V24.325C3.24171 22.652 4.60295 21.294 6.27293 21.294ZM10.3496 22.001C10.3496 22.638 10.2514 23.261 10.0479 23.87L9.73917 24.801L7.06581 32.949C6.80619 33.761 6.05541 34.3 5.20639 34.3C4.13283 34.3 3.26978 33.46 3.24171 32.396C3.24171 32.389 3.24171 32.382 3.24171 32.375V26.628H4.7924L3.9083 28.658C3.83112 28.833 3.91532 29.043 4.09073 29.12C4.13283 29.141 4.18195 29.148 4.23107 29.148C4.36438 29.148 4.4977 29.071 4.55384 28.938L5.64844 26.425L6.82724 23.709C7.00266 23.31 7.09388 22.883 7.09388 22.442V20.37C7.09388 19.831 7.19913 19.313 7.40963 18.816L8.47617 16.324C8.5744 16.093 8.79894 15.946 9.05154 15.946H9.17784H10.6092C10.8829 15.946 11.1355 16.079 11.2828 16.31C11.4372 16.541 11.4583 16.821 11.353 17.073L10.7215 18.55C10.4759 19.131 10.3496 19.747 10.3496 20.377V22.001ZM22.6148 21.294H22.7271C24.397 21.294 25.7583 22.652 25.7583 24.318V25.914H23.9059L22.8183 23.408C22.685 23.093 22.6148 22.764 22.6148 22.421V21.294ZM23.7936 34.3C22.9446 34.3 22.1938 33.761 21.9272 32.949L19.2538 24.794L18.9451 23.863C18.7486 23.261 18.6434 22.631 18.6434 21.994V20.349C18.6434 19.719 18.5171 19.103 18.2715 18.522L17.64 17.045C17.5347 16.793 17.5558 16.513 17.7101 16.282C17.8645 16.051 18.1101 15.918 18.3837 15.918H19.8151H19.9414C20.194 15.918 20.4186 16.065 20.5168 16.296L21.5834 18.788C21.7939 19.285 21.8991 19.803 21.8991 20.342V22.414C21.8991 22.855 21.9903 23.282 22.1657 23.681L23.3445 26.397C23.3445 26.397 23.3445 26.397 23.3445 26.404L24.4391 28.917C24.4953 29.05 24.6286 29.127 24.7619 29.127C24.811 29.127 24.8531 29.12 24.9023 29.099C25.0777 29.022 25.1619 28.819 25.0847 28.637L24.2006 26.607H25.7513V32.354C25.7513 32.361 25.7513 32.368 25.7513 32.375C25.7302 33.46 24.8672 34.3 23.7936 34.3ZM0.617469 34.3H0.350835C0.154367 34.3 0 34.454 0 34.65C0 34.846 0.154367 35 0.350835 35H0.617469C0.813937 35 0.968304 34.846 0.968304 34.65C0.968304 34.454 0.813937 34.3 0.617469 34.3ZM28.6492 34.3H28.3825C28.1861 34.3 28.0317 34.454 28.0317 34.65C28.0317 34.846 28.1861 35 28.3825 35H28.6492C28.8456 35 29 34.846 29 34.65C29 34.454 28.8456 34.3 28.6492 34.3ZM14.5035 12.579C14.307 12.579 14.1527 12.733 14.1527 12.929V13.307C14.1527 13.503 14.307 13.657 14.5035 13.657C14.7 13.657 14.8543 13.503 14.8543 13.307V12.929C14.8543 12.733 14.693 12.579 14.5035 12.579ZM16.4892 13.657C16.6857 13.657 16.8401 13.503 16.8401 13.307V12.929C16.8401 12.733 16.6857 12.579 16.4892 12.579C16.2928 12.579 16.1384 12.733 16.1384 12.929V13.307C16.1384 13.496 16.2998 13.657 16.4892 13.657ZM6.04839 12.551H6.50448V13.006C6.50448 13.202 6.65884 13.356 6.85531 13.356C7.05178 13.356 7.20615 13.202 7.20615 13.006V12.551H7.66223C7.8587 12.551 8.01307 12.397 8.01307 12.201C8.01307 12.005 7.8587 11.851 7.66223 11.851H7.20615V11.396C7.20615 11.2 7.05178 11.046 6.85531 11.046C6.65884 11.046 6.50448 11.2 6.50448 11.396V11.851H6.04839C5.85192 11.851 5.69756 12.005 5.69756 12.201C5.69756 12.397 5.85192 12.551 6.04839 12.551ZM16.4892 11.942C16.6857 11.942 16.8401 11.788 16.8401 11.592V10.01C16.8401 9.814 16.6857 9.66 16.4892 9.66C16.2928 9.66 16.1384 9.814 16.1384 10.01V11.592C16.1384 11.788 16.2998 11.942 16.4892 11.942Z" fill="url(#paint2_linear)"/>
<defs>
<linearGradient id="paint0_linear" x1="6.38695" y1="20.6917" x2="1.56141" y2="22.3171" gradientUnits="userSpaceOnUse">
<stop offset="0.00520833" stop-color="#E6E7ED"/>
<stop offset="0.25" stop-color="#8E8E8E"/>
<stop offset="0.507086" stop-color="#EBECF0"/>
<stop offset="0.765625" stop-color="#8E8E8E"/>
<stop offset="1" stop-color="#EBECF0"/>
</linearGradient>
<linearGradient id="paint1_linear" x1="25.7601" y1="20.6987" x2="20.9345" y2="22.3241" gradientUnits="userSpaceOnUse">
<stop offset="0.00520833" stop-color="#E6E7ED"/>
<stop offset="0.25" stop-color="#8E8E8E"/>
<stop offset="0.507086" stop-color="#EBECF0"/>
<stop offset="0.765625" stop-color="#8E8E8E"/>
<stop offset="1" stop-color="#EBECF0"/>
</linearGradient>
<linearGradient id="paint2_linear" x1="26.3673" y1="-1.61184" x2="-8.88571" y2="12.0188" gradientUnits="userSpaceOnUse">
<stop offset="0.00520833" stop-color="#E6E7ED"/>
<stop offset="0.25" stop-color="#8E8E8E"/>
<stop offset="0.507086" stop-color="#EBECF0"/>
<stop offset="0.765625" stop-color="#8E8E8E"/>
<stop offset="1" stop-color="#EBECF0"/>
</linearGradient>
</defs>
</svg>
