<svg width="25" height="25" viewBox="0 0 25 25" fill="none" xmlns="http://www.w3.org/2000/svg">
<g clip-path="url(#clip0)">
<path d="M13.5001 15.1199H11.5001C10.8751 15.1199 10.2751 14.8599 9.85507 14.4049C9.46507 13.9899 9.25507 13.4449 9.25507 12.8749V8.90488C9.25507 5.72488 10.3401 2.59488 12.3051 0.0898807C12.3501 0.0298807 12.4251 -0.00511932 12.5001 -0.00511932C12.5751 -0.00511932 12.6501 0.0298807 12.6951 0.0898807C14.6601 2.59488 15.7451 5.72488 15.7451 8.90488V12.8749C15.7451 13.4449 15.5301 13.9899 15.1451 14.4049C14.7151 14.8599 14.1201 15.1199 13.5001 15.1199ZM12.5001 0.654881C10.7301 3.02488 9.75507 5.93988 9.75507 8.90488V12.8749C9.75507 13.3199 9.92007 13.7399 10.2251 14.0649C10.5501 14.4199 11.0151 14.6199 11.5001 14.6199H13.5001C13.9851 14.6199 14.4401 14.4199 14.7801 14.0649C15.0801 13.7399 15.2451 13.3199 15.2451 12.8749V8.90488C15.2451 5.94488 14.2701 3.02488 12.5001 0.654881Z" fill="url(#paint0_linear)"/>
<path d="M14.56 18.545H10.44C10.3 18.545 10.19 18.435 10.19 18.295V16.53C10.19 16.025 10.39 15.545 10.745 15.18C11.1 14.825 11.595 14.62 12.1 14.62H12.9C13.405 14.62 13.885 14.82 14.25 15.175C14.605 15.53 14.81 16.025 14.81 16.53V18.295C14.81 18.435 14.7 18.545 14.56 18.545ZM10.69 18.045H14.31V16.53C14.31 16.155 14.16 15.795 13.9 15.53C13.63 15.265 13.275 15.12 12.9 15.12H12.1C11.725 15.12 11.365 15.27 11.1 15.53C10.835 15.8 10.69 16.155 10.69 16.53V18.045Z" fill="url(#paint1_linear)"/>
<path d="M12.5001 6.75995C11.7651 6.75995 11.1701 6.16495 11.1701 5.42995C11.1701 4.69495 11.7651 4.09995 12.5001 4.09995C13.2351 4.09995 13.8301 4.69495 13.8301 5.42995C13.8301 6.16495 13.2351 6.75995 12.5001 6.75995ZM12.5001 4.59995C12.0401 4.59995 11.6701 4.96995 11.6701 5.42995C11.6701 5.88995 12.0401 6.25995 12.5001 6.25995C12.9601 6.25995 13.3301 5.88995 13.3301 5.42995C13.3301 4.96995 12.9601 4.59995 12.5001 4.59995Z" fill="url(#paint2_linear)"/>
<path d="M12.5001 21.89C12.4151 21.89 12.3351 21.845 12.2901 21.775L12.0001 21.325C11.4551 20.485 11.1701 19.515 11.1701 18.515V18.295C11.1701 18.155 11.2801 18.045 11.4201 18.045H13.5801C13.7201 18.045 13.8301 18.155 13.8301 18.295V18.515C13.8301 19.51 13.5451 20.48 13.0001 21.325L12.7101 21.775C12.6651 21.845 12.5851 21.89 12.5001 21.89ZM11.6701 18.545C11.6751 19.44 11.9351 20.305 12.4201 21.055L12.5001 21.18L12.5801 21.055C13.0651 20.3 13.3251 19.435 13.3301 18.545H11.6701Z" fill="url(#paint3_linear)"/>
<path d="M12.4999 22.8601C12.3599 22.8601 12.2499 22.7501 12.2499 22.6101V21.6401C12.2499 21.5001 12.3599 21.3901 12.4999 21.3901C12.6399 21.3901 12.7499 21.5001 12.7499 21.6401V22.6101C12.7499 22.7501 12.6399 22.8601 12.4999 22.8601Z" fill="url(#paint4_linear)"/>
<path d="M12.4999 24.18C12.3599 24.18 12.2499 24.07 12.2499 23.93V23.475C12.2499 23.335 12.3599 23.225 12.4999 23.225C12.6399 23.225 12.7499 23.335 12.7499 23.475V23.93C12.7499 24.07 12.6399 24.18 12.4999 24.18Z" fill="url(#paint5_linear)"/>
<path d="M12.5001 25C12.4851 25 12.4651 25 12.4501 24.995C12.4351 24.99 12.4201 24.985 12.4051 24.98C12.3901 24.975 12.3751 24.965 12.3601 24.955C12.3451 24.945 12.3351 24.935 12.3201 24.925C12.2751 24.88 12.2451 24.815 12.2451 24.75C12.2451 24.685 12.2701 24.62 12.3201 24.575C12.3301 24.565 12.3451 24.555 12.3601 24.545C12.3751 24.535 12.3901 24.53 12.4051 24.52C12.4201 24.515 12.4351 24.51 12.4501 24.505C12.4801 24.5 12.5151 24.5 12.5501 24.505C12.5651 24.51 12.5801 24.515 12.5951 24.52C12.6101 24.525 12.6251 24.535 12.6401 24.545C12.6551 24.555 12.6651 24.565 12.6801 24.575C12.7251 24.62 12.7551 24.685 12.7551 24.75C12.7551 24.815 12.7301 24.88 12.6801 24.925C12.6701 24.935 12.6551 24.945 12.6401 24.955C12.6251 24.965 12.6101 24.97 12.5951 24.98C12.5801 24.985 12.5651 24.99 12.5501 24.995C12.5301 25 12.5151 25 12.5001 25Z" fill="url(#paint6_linear)"/>
<path d="M6.935 14.82C6.9 14.82 6.87 14.815 6.835 14.8C6.745 14.76 6.685 14.67 6.685 14.57V12.705C6.685 11.615 7.085 10.565 7.815 9.75002L9.29 8.10003C9.335 8.03003 9.415 7.98003 9.5 7.98003H9.505C9.605 7.98003 9.695 8.04003 9.735 8.13003C9.755 8.18003 9.76 8.23003 9.75 8.28003V12.12C9.75 12.19 9.72 12.255 9.675 12.3L7.11 14.75C7.06 14.795 7 14.82 6.935 14.82ZM9.25 8.89003L8.185 10.08C7.54 10.805 7.185 11.74 7.185 12.705V13.985L9.25 12.015V8.89003Z" fill="url(#paint7_linear)"/>
<path d="M18.065 14.82C18 14.82 17.94 14.795 17.89 14.75L15.325 12.3C15.275 12.255 15.25 12.19 15.25 12.12V8.28003C15.24 8.23003 15.245 8.17503 15.265 8.13003C15.305 8.04003 15.395 7.98003 15.495 7.98003H15.5C15.59 7.98003 15.67 8.02503 15.71 8.10003L17.185 9.75002C17.915 10.57 18.315 11.62 18.315 12.705V14.57C18.315 14.67 18.255 14.76 18.165 14.8C18.13 14.815 18.1 14.82 18.065 14.82ZM15.75 12.015L17.815 13.985V12.705C17.815 11.74 17.46 10.805 16.815 10.08L15.75 8.89003V12.015Z" fill="url(#paint8_linear)"/>
<path d="M14.56 17.3501H10.44C10.3 17.3501 10.19 17.2401 10.19 17.1001C10.19 16.9601 10.3 16.8501 10.44 16.8501H14.56C14.7 16.8501 14.81 16.9601 14.81 17.1001C14.81 17.2401 14.7 17.3501 14.56 17.3501Z" fill="url(#paint9_linear)"/>
</g>
<defs>
<linearGradient id="paint0_linear" x1="16.9285" y1="15.1199" x2="2.73089" y2="14.8814" gradientUnits="userSpaceOnUse">
<stop offset="0.00409913" stop-color="white"/>
<stop offset="0.957588" stop-color="#C9BFD8" stop-opacity="0.65"/>
</linearGradient>
<linearGradient id="paint1_linear" x1="15.6525" y1="18.545" x2="5.56424" y2="18.0802" gradientUnits="userSpaceOnUse">
<stop offset="0.00409913" stop-color="white"/>
<stop offset="0.957588" stop-color="#C9BFD8" stop-opacity="0.65"/>
</linearGradient>
<linearGradient id="paint2_linear" x1="14.3152" y1="6.75995" x2="8.50336" y2="6.53246" gradientUnits="userSpaceOnUse">
<stop offset="0.00409913" stop-color="white"/>
<stop offset="0.957588" stop-color="#C9BFD8" stop-opacity="0.65"/>
</linearGradient>
<linearGradient id="paint3_linear" x1="14.3152" y1="21.89" x2="8.49872" y2="21.7325" gradientUnits="userSpaceOnUse">
<stop offset="0.00409913" stop-color="white"/>
<stop offset="0.957588" stop-color="#C9BFD8" stop-opacity="0.65"/>
</linearGradient>
<linearGradient id="paint4_linear" x1="12.8411" y1="22.8601" x2="11.7472" y2="22.8455" gradientUnits="userSpaceOnUse">
<stop offset="0.00409913" stop-color="white"/>
<stop offset="0.957588" stop-color="#C9BFD8" stop-opacity="0.65"/>
</linearGradient>
<linearGradient id="paint5_linear" x1="12.8411" y1="24.18" x2="11.7475" y2="24.1576" gradientUnits="userSpaceOnUse">
<stop offset="0.00409913" stop-color="white"/>
<stop offset="0.957588" stop-color="#C9BFD8" stop-opacity="0.65"/>
</linearGradient>
<linearGradient id="paint6_linear" x1="12.8481" y1="25" x2="11.7338" y2="24.9554" gradientUnits="userSpaceOnUse">
<stop offset="0.00409913" stop-color="white"/>
<stop offset="0.957588" stop-color="#C9BFD8" stop-opacity="0.65"/>
</linearGradient>
<linearGradient id="paint7_linear" x1="10.3148" y1="14.82" x2="3.59901" y2="14.702" gradientUnits="userSpaceOnUse">
<stop offset="0.00409913" stop-color="white"/>
<stop offset="0.957588" stop-color="#C9BFD8" stop-opacity="0.65"/>
</linearGradient>
<linearGradient id="paint8_linear" x1="18.8748" y1="14.82" x2="12.159" y2="14.702" gradientUnits="userSpaceOnUse">
<stop offset="0.00409913" stop-color="white"/>
<stop offset="0.957588" stop-color="#C9BFD8" stop-opacity="0.65"/>
</linearGradient>
<linearGradient id="paint9_linear" x1="15.6525" y1="17.3501" x2="6.71232" y2="14.1166" gradientUnits="userSpaceOnUse">
<stop offset="0.00409913" stop-color="white"/>
<stop offset="0.957588" stop-color="#C9BFD8" stop-opacity="0.65"/>
</linearGradient>
<clipPath id="clip0">
<rect width="25" height="25" fill="white"/>
</clipPath>
</defs>
</svg>
