<svg width="58" height="41" viewBox="0 0 58 41" fill="none" xmlns="http://www.w3.org/2000/svg">
<path d="M27.2492 41C26.9945 41 26.7398 40.9055 26.5807 40.7166L7.06695 21.4132C4.67946 19.0515 3.34247 15.9025 3.34247 12.533C3.34247 9.19508 4.64763 6.01459 7.06695 3.65284C9.48627 1.29109 12.6377 0 16.0121 0C19.4182 0 22.6015 1.29109 24.989 3.68433L27.2492 5.92012L29.5093 3.68433C31.8968 1.29109 35.0801 0 38.4863 0C41.8924 0 45.0757 1.29109 47.4632 3.68433C49.8507 6.04608 51.1877 9.19509 51.1877 12.5645C51.1877 15.9025 49.8825 19.0829 47.4632 21.4447L27.9495 40.7481C27.7585 40.9055 27.5038 41 27.2492 41ZM16.0121 1.8894C13.1471 1.8894 10.4413 2.99155 8.40394 5.00691C6.36662 7.02227 5.25246 9.69892 5.25246 12.533C5.25246 15.3671 6.36662 18.0438 8.40394 20.0591L27.2492 38.7327L46.0944 20.0906C48.1317 18.0753 49.2459 15.3986 49.2459 12.5645C49.2459 9.73042 48.1317 7.05376 46.0944 5.0384C44.0571 2.99155 41.3513 1.8894 38.4863 1.8894C35.6213 1.8894 32.9155 2.99155 30.8781 5.00691L27.9495 7.90399C27.5993 8.25038 26.9627 8.25038 26.6125 7.90399L23.6839 5.00691C21.6147 2.99155 18.9089 1.8894 16.0121 1.8894Z" fill="url(#paint0_linear)"/>
<path d="M53.2569 27.9316C50.6466 27.9316 48.5137 25.8218 48.5137 23.2396C48.5137 20.6575 50.6466 18.5476 53.2569 18.5476C55.8672 18.5476 58 20.6575 58 23.2396C58 25.8218 55.8672 27.9316 53.2569 27.9316ZM53.2569 20.4055C51.6971 20.4055 50.4237 21.6651 50.4237 23.2081C50.4237 24.7512 51.6971 26.0108 53.2569 26.0108C54.8167 26.0108 56.09 24.7512 56.09 23.2081C56.09 21.6651 54.8167 20.4055 53.2569 20.4055Z" fill="url(#paint1_linear)"/>
<path d="M26.3578 30.1674C25.9759 30.1674 25.6257 29.9155 25.4665 29.5691L21.2645 18.9255L19.2272 23.6175C19.0681 23.9639 18.7179 24.1843 18.3359 24.1843H0.954995C0.413831 24.1843 0 23.775 0 23.2396C0 22.7043 0.413831 22.2949 0.954995 22.2949H17.7311L20.4369 16.0599C20.596 15.7135 20.9462 15.4931 21.3282 15.4931C21.3282 15.4931 21.3282 15.4931 21.36 15.4931C21.742 15.4931 22.0922 15.745 22.2195 16.0914L26.3578 26.5776L31.8968 11.9347C32.0241 11.5883 32.3743 11.3364 32.7563 11.3364C33.1383 11.3049 33.4885 11.5253 33.6476 11.9032L38.4544 22.3264H49.4369C49.978 22.3264 50.3919 22.7358 50.3919 23.2711C50.3919 23.8065 49.978 24.2158 49.4369 24.2158H37.8178C37.4358 24.2158 37.1175 23.9954 36.9583 23.649L32.8518 14.7373L27.2492 29.5376C27.1218 29.9155 26.7398 30.1674 26.3578 30.1674Z" fill="url(#paint2_linear)"/>
<defs>
<linearGradient id="paint0_linear" x1="46.8442" y1="-1.88816" x2="-4.72124" y2="26.1922" gradientUnits="userSpaceOnUse">
<stop offset="0.00520833" stop-color="#E6E7ED"/>
<stop offset="0.25" stop-color="#8E8E8E"/>
<stop offset="0.507086" stop-color="#EBECF0"/>
<stop offset="0.765625" stop-color="#8E8E8E"/>
<stop offset="1" stop-color="#EBECF0"/>
</linearGradient>
<linearGradient id="paint1_linear" x1="57.1388" y1="18.1155" x2="46.296" y2="23.2304" gradientUnits="userSpaceOnUse">
<stop offset="0.00520833" stop-color="#E6E7ED"/>
<stop offset="0.25" stop-color="#8E8E8E"/>
<stop offset="0.507086" stop-color="#EBECF0"/>
<stop offset="0.765625" stop-color="#8E8E8E"/>
<stop offset="1" stop-color="#EBECF0"/>
</linearGradient>
<linearGradient id="paint2_linear" x1="45.8172" y1="10.4661" x2="18.2992" y2="44.8238" gradientUnits="userSpaceOnUse">
<stop offset="0.00520833" stop-color="#E6E7ED"/>
<stop offset="0.25" stop-color="#8E8E8E"/>
<stop offset="0.507086" stop-color="#EBECF0"/>
<stop offset="0.765625" stop-color="#8E8E8E"/>
<stop offset="1" stop-color="#EBECF0"/>
</linearGradient>
</defs>
</svg>
