<svg width="26" height="26" viewBox="0 0 26 26" fill="none" xmlns="http://www.w3.org/2000/svg">
<g clip-path="url(#clip0)">
<path d="M1.54438 11.8768C1.45598 11.8768 1.37278 11.83 1.32078 11.752C1.24798 11.6272 1.28438 11.4712 1.40918 11.3932C1.86158 11.1228 2.38158 10.9772 2.91718 10.9772C3.18758 10.9772 3.46318 10.9928 3.76998 11.0188C3.91038 11.0344 4.01958 11.1592 4.00398 11.2996C3.98838 11.44 3.86358 11.5492 3.72318 11.5336C3.43718 11.5076 3.17198 11.492 2.92238 11.492C2.48038 11.492 2.05398 11.6116 1.68478 11.8352C1.63798 11.8664 1.59118 11.8768 1.54438 11.8768Z" fill="url(#paint0_linear)"/>
<path d="M2.91728 21.7672C2.01248 21.7672 1.17528 21.3564 0.618877 20.644C0.0624769 19.9316 -0.129923 19.0216 0.0936769 18.1428C0.384877 16.9832 0.384877 15.7612 0.0936769 14.6016C-0.0519231 14.0348 -0.0207231 13.4524 0.171677 12.9116C0.218477 12.7764 0.369277 12.7088 0.504477 12.7556C0.639677 12.8024 0.707277 12.9532 0.660477 13.0884C0.499277 13.5304 0.478477 14.0088 0.592877 14.4768C0.904877 15.7196 0.904877 17.03 0.592877 18.2676C0.410877 18.9904 0.572077 19.7392 1.02448 20.3268C1.48208 20.9144 2.16848 21.2472 2.91208 21.2472C4.65928 21.2472 6.33368 20.7168 7.75328 19.708L10.6965 17.628C10.8161 17.5448 10.9773 17.5708 11.0605 17.6904C11.1437 17.81 11.1177 17.9712 10.9981 18.0544L8.05488 20.1344C6.55208 21.2004 4.77368 21.7672 2.91728 21.7672Z" fill="url(#paint1_linear)"/>
<path d="M23.0828 21.7672C21.2368 21.7672 19.4584 21.2004 17.94 20.1344L15.0384 18.0856C14.9188 18.0024 14.8928 17.8412 14.976 17.7216C15.0592 17.602 15.2204 17.576 15.34 17.6592L18.2416 19.708C19.6716 20.7168 21.346 21.2472 23.0828 21.2472C23.8264 21.2472 24.5128 20.9092 24.9704 20.3268C25.428 19.7392 25.584 18.9904 25.4072 18.2676C25.0952 17.0248 25.0952 15.7144 25.4072 14.4768C25.5892 13.754 25.428 13.0052 24.9756 12.4176C24.518 11.83 23.8316 11.4972 23.088 11.4972C21.3408 11.4972 19.6664 12.0276 18.2468 13.0364L15.3036 15.1164C15.184 15.1996 15.0228 15.1736 14.9396 15.054C14.8564 14.9344 14.8824 14.7732 15.002 14.69L17.9452 12.61C19.4532 11.5388 21.2316 10.9772 23.088 10.9772C23.9928 10.9772 24.83 11.388 25.3864 12.1004C25.9428 12.8128 26.1352 13.728 25.9168 14.6016C25.6256 15.7612 25.6256 16.9832 25.9168 18.1428C26.1352 19.0216 25.9428 19.9316 25.3864 20.6492C24.8248 21.3564 23.9876 21.7672 23.0828 21.7672Z" fill="url(#paint2_linear)"/>
<path d="M10.8524 15.1632C10.8004 15.1632 10.7484 15.1476 10.7016 15.1164L7.75843 13.0364C6.97843 12.4852 6.11523 12.0692 5.18963 11.8092C5.04923 11.7728 4.97123 11.6272 5.00763 11.4868C5.04403 11.3464 5.18963 11.2684 5.33003 11.3048C6.31283 11.5804 7.22803 12.0172 8.05483 12.6048L10.998 14.6848C11.1176 14.768 11.1436 14.9292 11.0604 15.0488C11.0136 15.1268 10.9356 15.1632 10.8524 15.1632Z" fill="url(#paint3_linear)"/>
<path d="M13 19.2348C11.4244 19.2348 10.14 17.9504 10.14 16.3748C10.14 14.7992 11.4244 13.5148 13 13.5148C14.5756 13.5148 15.86 14.7992 15.86 16.3748C15.86 17.9504 14.5756 19.2348 13 19.2348ZM13 14.0348C11.7104 14.0348 10.66 15.0852 10.66 16.3748C10.66 17.6644 11.7104 18.7148 13 18.7148C14.2896 18.7148 15.34 17.6644 15.34 16.3748C15.34 15.0852 14.2896 14.0348 13 14.0348Z" fill="url(#paint4_linear)"/>
<path d="M10.4 16.6348H7.82604C7.68044 16.6348 7.56604 16.5204 7.56604 16.3748C7.56604 16.2292 7.68044 16.1148 7.82604 16.1148H10.4C10.5456 16.1148 10.66 16.2292 10.66 16.3748C10.66 16.5204 10.5456 16.6348 10.4 16.6348Z" fill="url(#paint5_linear)"/>
<path d="M6.52595 16.6348H5.45995C5.31435 16.6348 5.19995 16.5204 5.19995 16.3748C5.19995 16.2292 5.31435 16.1148 5.45995 16.1148H6.52595C6.67155 16.1148 6.78595 16.2292 6.78595 16.3748C6.78595 16.5204 6.67155 16.6348 6.52595 16.6348Z" fill="url(#paint6_linear)"/>
<path d="M4.21201 16.6348H3.74401C3.59841 16.6348 3.48401 16.5204 3.48401 16.3748C3.48401 16.2292 3.59841 16.1148 3.74401 16.1148H4.21201C4.35761 16.1148 4.47201 16.2292 4.47201 16.3748C4.47201 16.5204 4.35761 16.6348 4.21201 16.6348Z" fill="url(#paint7_linear)"/>
<path d="M18.174 16.6348H15.6C15.4544 16.6348 15.34 16.5204 15.34 16.3748C15.34 16.2292 15.4544 16.1148 15.6 16.1148H18.174C18.3196 16.1148 18.434 16.2292 18.434 16.3748C18.434 16.5204 18.3196 16.6348 18.174 16.6348Z" fill="url(#paint8_linear)"/>
<path d="M20.54 16.6348H19.474C19.3284 16.6348 19.214 16.5204 19.214 16.3748C19.214 16.2292 19.3284 16.1148 19.474 16.1148H20.54C20.6856 16.1148 20.8 16.2292 20.8 16.3748C20.8 16.5204 20.6856 16.6348 20.54 16.6348Z" fill="url(#paint9_linear)"/>
<path d="M22.256 16.6348H21.788C21.6424 16.6348 21.528 16.5204 21.528 16.3748C21.528 16.2292 21.6424 16.1148 21.788 16.1148H22.256C22.4016 16.1148 22.516 16.2292 22.516 16.3748C22.516 16.5204 22.4016 16.6348 22.256 16.6348Z" fill="url(#paint10_linear)"/>
<path d="M3.2082 8.54881C3.1094 8.54881 3.0054 8.52281 2.9118 8.47601L2.2774 8.14321C2.267 8.13801 2.2618 8.13281 2.2514 8.12761C2.2462 8.12241 2.2202 8.12241 2.1838 8.13801C2.1838 8.13801 2.1838 8.13801 2.1786 8.13801L1.5442 8.47601C1.3258 8.59041 1.0658 8.56961 0.868203 8.42921C0.670603 8.28361 0.571803 8.04441 0.613403 7.80521L0.733003 7.09801C0.738203 7.05641 0.727803 7.01481 0.696603 6.98881L0.187003 6.49481C0.0102033 6.32321 -0.0469967 6.07361 0.0258033 5.83961C0.0986033 5.60561 0.296203 5.43921 0.535403 5.40281L1.2426 5.29881H1.2478C1.2946 5.29361 1.3206 5.25721 1.331 5.23121L1.6482 4.59161C1.7574 4.37321 1.9758 4.23801 2.2202 4.23801C2.4646 4.23801 2.683 4.37321 2.7922 4.59161L3.1094 5.23121C3.1302 5.26761 3.1614 5.28841 3.203 5.29881L3.905 5.40281C4.1494 5.43921 4.347 5.60561 4.4198 5.83961C4.4926 6.07361 4.4302 6.32321 4.2534 6.49481L3.7386 6.99401C3.7126 7.02001 3.697 7.06161 3.7074 7.10321L3.827 7.81041C3.8686 8.05481 3.7698 8.29401 3.5722 8.43441C3.4734 8.51241 3.3434 8.54881 3.2082 8.54881ZM2.527 7.69081L3.151 8.01841C3.2082 8.04961 3.255 8.02361 3.2758 8.00801C3.2966 7.99241 3.333 7.95601 3.3226 7.88841L3.203 7.18121C3.1666 6.97321 3.2342 6.76521 3.385 6.61441L3.905 6.11001C3.9518 6.06321 3.9466 6.01121 3.9362 5.98521C3.931 5.96441 3.905 5.91241 3.8374 5.90201L3.1302 5.79801C2.917 5.76161 2.7402 5.63681 2.6518 5.44961L2.3346 4.81001C2.3034 4.75281 2.2514 4.74241 2.2254 4.74241C2.1994 4.74241 2.1474 4.74761 2.1162 4.81001L1.799 5.44961C1.7002 5.64201 1.5234 5.77201 1.3154 5.79801L0.608203 5.90201C0.545803 5.91241 0.519803 5.96441 0.514603 5.98521C0.509403 6.00601 0.493803 6.06321 0.545803 6.11001L1.0606 6.60921C1.2114 6.76001 1.279 6.97321 1.2478 7.17601L1.1282 7.88321C1.1178 7.94561 1.1542 7.98721 1.175 8.00281C1.1958 8.01841 1.2426 8.03921 1.305 8.01321L1.9342 7.68041C2.1318 7.58161 2.3554 7.58161 2.527 7.69081Z" fill="url(#paint11_linear)"/>
<path d="M8.5904 8.54881C8.4916 8.54881 8.3876 8.52281 8.294 8.47601L7.6596 8.14321C7.6492 8.13801 7.644 8.13281 7.6336 8.12761C7.6284 8.12241 7.5972 8.12241 7.5712 8.13801C7.566 8.13801 7.566 8.14321 7.5608 8.14321L6.9264 8.47601C6.708 8.59041 6.448 8.56961 6.2504 8.42921C6.05281 8.28361 5.95401 8.04441 5.99561 7.80521L6.11521 7.09801C6.12041 7.05641 6.11001 7.01481 6.07881 6.98881L5.56921 6.49481C5.39241 6.32321 5.33521 6.07361 5.40801 5.83961C5.48081 5.60561 5.67841 5.43921 5.91761 5.40281L6.6248 5.29881H6.63C6.6768 5.29361 6.70281 5.25721 6.71321 5.23121L7.0304 4.59161C7.1396 4.37321 7.358 4.23801 7.6024 4.23801C7.8468 4.23801 8.0652 4.37321 8.1744 4.59161L8.4916 5.23121C8.5124 5.26761 8.5436 5.28841 8.5852 5.29881L9.2872 5.40281C9.5316 5.43921 9.7292 5.60561 9.802 5.83961C9.8748 6.07361 9.8124 6.32321 9.6356 6.49481L9.1208 6.99401C9.0948 7.02001 9.0792 7.06161 9.0896 7.10321L9.2092 7.81041C9.2508 8.05481 9.152 8.29401 8.9544 8.43441C8.8556 8.51241 8.7256 8.54881 8.5904 8.54881ZM7.9092 7.69081L8.5332 8.01841C8.5904 8.04961 8.6372 8.02361 8.658 8.00801C8.6788 7.99241 8.7152 7.95601 8.7048 7.88841L8.5852 7.18121C8.5488 6.97321 8.6164 6.76521 8.7672 6.61441L9.2872 6.11001C9.334 6.06321 9.3288 6.01121 9.3184 5.98521C9.3132 5.96441 9.2872 5.91241 9.2196 5.90201L8.5124 5.79801C8.2992 5.76161 8.1224 5.63681 8.034 5.44961L7.7168 4.81001C7.6856 4.75281 7.6336 4.74241 7.6076 4.74241C7.5816 4.74241 7.5296 4.74761 7.4984 4.81001L7.1812 5.44961C7.0824 5.64201 6.9056 5.77201 6.6976 5.79801L5.99041 5.90201C5.92801 5.91241 5.90201 5.96441 5.89681 5.98521C5.89161 6.00601 5.87601 6.06321 5.92801 6.11001L6.44281 6.60921C6.5936 6.76001 6.6612 6.97321 6.63 7.17601L6.5104 7.88321C6.5 7.94561 6.5364 7.98721 6.5572 8.00281C6.578 8.01841 6.62481 8.03921 6.68721 8.01321L7.3164 7.68041C7.5088 7.58161 7.7376 7.58161 7.9092 7.69081Z" fill="url(#paint12_linear)"/>
<path d="M13.9724 8.54881C13.8736 8.54881 13.7696 8.52281 13.676 8.47601L13.0416 8.14321C13.0312 8.13801 13.026 8.13281 13.0156 8.12761C13.0104 8.12241 12.9792 8.12241 12.9532 8.13801C12.948 8.13801 12.948 8.14321 12.9428 8.14321L12.3084 8.47601C12.09 8.59041 11.83 8.56961 11.6324 8.42921C11.4348 8.28361 11.336 8.04441 11.3776 7.80521L11.4972 7.09801C11.5024 7.05641 11.492 7.01481 11.4608 6.98881L10.9512 6.49481C10.7744 6.32321 10.7172 6.07361 10.79 5.83961C10.8628 5.60561 11.0604 5.43921 11.2996 5.40281L12.0068 5.29881H12.012C12.0588 5.29361 12.0848 5.25721 12.0952 5.23121L12.4124 4.59161C12.5216 4.37321 12.74 4.23801 12.9844 4.23801C13.2288 4.23801 13.4472 4.37321 13.5564 4.59161L13.8736 5.23121C13.8944 5.26761 13.9256 5.28841 13.9672 5.29881L14.6692 5.40281C14.9136 5.43921 15.1112 5.60561 15.184 5.83961C15.2568 6.07361 15.1944 6.32321 15.0176 6.49481L14.5028 6.99401C14.4768 7.02001 14.4612 7.06161 14.4716 7.10321L14.5912 7.81041C14.6328 8.05481 14.534 8.29401 14.3364 8.43441C14.2376 8.51241 14.1076 8.54881 13.9724 8.54881ZM13.2912 7.69081L13.9152 8.01841C13.9724 8.04961 14.0192 8.02361 14.04 8.00801C14.0608 7.99241 14.0972 7.95601 14.0868 7.88841L13.9672 7.18121C13.9308 6.97321 13.9984 6.76521 14.1492 6.61441L14.6692 6.11001C14.716 6.06321 14.7108 6.01121 14.7004 5.98521C14.6952 5.96441 14.6692 5.91241 14.6016 5.90201L13.8944 5.79801C13.6812 5.76161 13.5044 5.63681 13.416 5.44961L13.0988 4.81001C13.0676 4.75281 13.0156 4.74241 12.9896 4.74241C12.9636 4.74241 12.9116 4.74761 12.8804 4.81001L12.5632 5.44961C12.4644 5.64201 12.2876 5.77201 12.0796 5.79801L11.3724 5.90201C11.31 5.91241 11.284 5.96441 11.2788 5.98521C11.2736 6.00601 11.258 6.06321 11.31 6.11001L11.8248 6.60921C11.9756 6.76001 12.0432 6.97321 12.012 7.17601L11.8924 7.88321C11.882 7.94561 11.9184 7.98721 11.9392 8.00281C11.96 8.01841 12.0068 8.03921 12.0692 8.01321L12.6984 7.68041C12.8908 7.58161 13.1196 7.58161 13.2912 7.69081Z" fill="url(#paint13_linear)"/>
<path d="M19.3544 8.54881C19.2556 8.54881 19.1516 8.52281 19.058 8.47601L18.4236 8.14321C18.4132 8.13801 18.408 8.13281 18.3976 8.12761C18.3924 8.12241 18.3612 8.12241 18.3352 8.13801C18.33 8.13801 18.33 8.14321 18.3248 8.14321L17.6904 8.47601C17.472 8.59041 17.212 8.56961 17.0144 8.42921C16.8168 8.28361 16.718 8.04441 16.7596 7.80521L16.8792 7.09801C16.8844 7.05641 16.874 7.01481 16.8428 6.98881L16.3332 6.49481C16.1564 6.32321 16.0992 6.07361 16.172 5.83961C16.2448 5.60561 16.4424 5.43921 16.6816 5.40281L17.3888 5.29881H17.394C17.4408 5.29361 17.4668 5.25721 17.4772 5.23121L17.7944 4.59161C17.9036 4.37321 18.122 4.23801 18.3664 4.23801C18.6108 4.23801 18.8292 4.37321 18.9384 4.59161L19.2556 5.23121C19.2764 5.26761 19.3076 5.28841 19.3492 5.29881L20.0512 5.40281C20.2956 5.43921 20.4932 5.60561 20.566 5.83961C20.6388 6.07361 20.5764 6.32321 20.3996 6.49481L19.8848 6.99401C19.8588 7.02001 19.8432 7.06161 19.8536 7.10321L19.9732 7.81041C20.0148 8.05481 19.916 8.29401 19.7184 8.43441C19.6196 8.51241 19.4896 8.54881 19.3544 8.54881ZM18.6732 7.69081L19.2972 8.01841C19.3544 8.04961 19.4012 8.02361 19.422 8.00801C19.4428 7.99241 19.4792 7.95601 19.4688 7.88841L19.3492 7.18121C19.3128 6.97321 19.3804 6.76521 19.5312 6.61441L20.0512 6.11001C20.098 6.06321 20.0928 6.01121 20.0824 5.98521C20.0772 5.96441 20.0512 5.91241 19.9836 5.90201L19.2764 5.79801C19.0632 5.76161 18.8864 5.63681 18.798 5.44961L18.4808 4.81001C18.4496 4.75281 18.3976 4.74241 18.3716 4.74241C18.3508 4.74241 18.2936 4.74761 18.2624 4.81001L17.9452 5.44961C17.8464 5.64201 17.6696 5.77201 17.4616 5.79801L16.7544 5.90201C16.692 5.91241 16.666 5.96441 16.6608 5.98521C16.6556 6.00601 16.64 6.06321 16.692 6.11001L17.2068 6.60921C17.3576 6.76001 17.4252 6.97321 17.394 7.17601L17.2744 7.88321C17.264 7.94561 17.3004 7.98721 17.3212 8.00281C17.342 8.01841 17.3888 8.03921 17.4512 8.01321L18.0804 7.68041C18.2728 7.58161 18.5016 7.58161 18.6732 7.69081Z" fill="url(#paint14_linear)"/>
<path d="M24.7363 8.54881C24.6375 8.54881 24.5335 8.52281 24.4399 8.47601L23.8055 8.14321C23.8003 8.13801 23.7951 8.13801 23.7899 8.13281C23.7743 8.12241 23.7483 8.12241 23.7223 8.13801C23.7171 8.13801 23.7171 8.14321 23.7119 8.14321L23.0775 8.47601C22.8591 8.59041 22.5991 8.56961 22.4015 8.42921C22.2039 8.28361 22.1051 8.04441 22.1467 7.80521L22.2663 7.09801C22.2715 7.05641 22.2611 7.01481 22.2299 6.98881L21.7203 6.49481C21.5435 6.32321 21.4863 6.07361 21.5591 5.83961C21.6319 5.60561 21.8295 5.43921 22.0687 5.40281L22.7759 5.29881H22.7811C22.8279 5.29361 22.8539 5.25721 22.8643 5.23121L23.1815 4.59161C23.2907 4.37321 23.5091 4.23801 23.7535 4.23801C23.9979 4.23801 24.2163 4.37321 24.3255 4.59161L24.6427 5.23121C24.6635 5.26761 24.6947 5.28841 24.7363 5.29881L25.4383 5.40281C25.6827 5.43921 25.8803 5.60561 25.9531 5.83961C26.0259 6.07361 25.9635 6.32321 25.7867 6.49481L25.2719 6.99401C25.2459 7.02001 25.2303 7.06161 25.2407 7.10321L25.3603 7.81041C25.4019 8.05481 25.3031 8.29401 25.1055 8.43441C25.0015 8.51241 24.8715 8.54881 24.7363 8.54881ZM24.0551 7.69081L24.6791 8.01841C24.7363 8.04961 24.7831 8.02361 24.8039 8.00801C24.8247 7.99241 24.8611 7.95601 24.8507 7.88841L24.7311 7.18121C24.6947 6.97321 24.7623 6.76521 24.9131 6.61441L25.4331 6.11001C25.4799 6.06321 25.4747 6.01121 25.4643 5.98521C25.4591 5.96441 25.4331 5.91241 25.3655 5.90201L24.6583 5.79801C24.4451 5.76161 24.2683 5.63681 24.1799 5.44961L23.8627 4.81001C23.8315 4.75281 23.7795 4.74241 23.7535 4.74241C23.7327 4.74241 23.6755 4.74761 23.6443 4.81001L23.3271 5.44961C23.2283 5.64201 23.0515 5.77201 22.8435 5.79801L22.1363 5.90201C22.0739 5.91241 22.0479 5.96441 22.0427 5.98521C22.0375 6.00601 22.0219 6.06321 22.0739 6.11001L22.5887 6.60921C22.7395 6.76001 22.8071 6.97321 22.7759 7.17601L22.6563 7.88321C22.6459 7.94561 22.6823 7.98721 22.7031 8.00281C22.7239 8.01841 22.7707 8.03921 22.8331 8.01321L23.4623 7.68041C23.6495 7.58161 23.8783 7.58161 24.0551 7.69081Z" fill="url(#paint15_linear)"/>
</g>
<defs>
<linearGradient id="paint0_linear" x1="4.50181" y1="11.8768" x2="-1.37195" y2="11.1811" gradientUnits="userSpaceOnUse">
<stop offset="0.00409913" stop-color="white"/>
<stop offset="0.957588" stop-color="#C9BFD8" stop-opacity="0.65"/>
</linearGradient>
<linearGradient id="paint1_linear" x1="13.1342" y1="21.7672" x2="-11.113" y2="20.5994" gradientUnits="userSpaceOnUse">
<stop offset="0.00409913" stop-color="white"/>
<stop offset="0.957588" stop-color="#C9BFD8" stop-opacity="0.65"/>
</linearGradient>
<linearGradient id="paint2_linear" x1="28.0313" y1="21.7672" x2="3.75156" y2="20.7883" gradientUnits="userSpaceOnUse">
<stop offset="0.00409913" stop-color="white"/>
<stop offset="0.957588" stop-color="#C9BFD8" stop-opacity="0.65"/>
</linearGradient>
<linearGradient id="paint3_linear" x1="12.2231" y1="15.1632" x2="-1.09644" y2="14.3395" gradientUnits="userSpaceOnUse">
<stop offset="0.00409913" stop-color="white"/>
<stop offset="0.957588" stop-color="#C9BFD8" stop-opacity="0.65"/>
</linearGradient>
<linearGradient id="paint4_linear" x1="16.903" y1="19.2348" x2="4.40545" y2="18.7456" gradientUnits="userSpaceOnUse">
<stop offset="0.00409913" stop-color="white"/>
<stop offset="0.957588" stop-color="#C9BFD8" stop-opacity="0.65"/>
</linearGradient>
<linearGradient id="paint5_linear" x1="11.2242" y1="16.6348" x2="4.8022" y2="15.1391" gradientUnits="userSpaceOnUse">
<stop offset="0.00409913" stop-color="white"/>
<stop offset="0.957588" stop-color="#C9BFD8" stop-opacity="0.65"/>
</linearGradient>
<linearGradient id="paint6_linear" x1="7.07516" y1="16.6348" x2="3.65339" y2="16.2263" gradientUnits="userSpaceOnUse">
<stop offset="0.00409913" stop-color="white"/>
<stop offset="0.957588" stop-color="#C9BFD8" stop-opacity="0.65"/>
</linearGradient>
<linearGradient id="paint7_linear" x1="4.65217" y1="16.6348" x2="2.50209" y2="16.4749" gradientUnits="userSpaceOnUse">
<stop offset="0.00409913" stop-color="white"/>
<stop offset="0.957588" stop-color="#C9BFD8" stop-opacity="0.65"/>
</linearGradient>
<linearGradient id="paint8_linear" x1="18.9982" y1="16.6348" x2="12.5762" y2="15.1391" gradientUnits="userSpaceOnUse">
<stop offset="0.00409913" stop-color="white"/>
<stop offset="0.957588" stop-color="#C9BFD8" stop-opacity="0.65"/>
</linearGradient>
<linearGradient id="paint9_linear" x1="21.0892" y1="16.6348" x2="17.6674" y2="16.2263" gradientUnits="userSpaceOnUse">
<stop offset="0.00409913" stop-color="white"/>
<stop offset="0.957588" stop-color="#C9BFD8" stop-opacity="0.65"/>
</linearGradient>
<linearGradient id="paint10_linear" x1="22.6962" y1="16.6348" x2="20.5461" y2="16.4749" gradientUnits="userSpaceOnUse">
<stop offset="0.00409913" stop-color="white"/>
<stop offset="0.957588" stop-color="#C9BFD8" stop-opacity="0.65"/>
</linearGradient>
<linearGradient id="paint11_linear" x1="5.26193" y1="8.54983" x2="-4.46992" y2="8.15628" gradientUnits="userSpaceOnUse">
<stop offset="0.00409913" stop-color="white"/>
<stop offset="0.957588" stop-color="#C9BFD8" stop-opacity="0.65"/>
</linearGradient>
<linearGradient id="paint12_linear" x1="10.6441" y1="8.54983" x2="0.912281" y2="8.15628" gradientUnits="userSpaceOnUse">
<stop offset="0.00409913" stop-color="white"/>
<stop offset="0.957588" stop-color="#C9BFD8" stop-opacity="0.65"/>
</linearGradient>
<linearGradient id="paint13_linear" x1="16.0261" y1="8.54983" x2="6.29423" y2="8.15628" gradientUnits="userSpaceOnUse">
<stop offset="0.00409913" stop-color="white"/>
<stop offset="0.957588" stop-color="#C9BFD8" stop-opacity="0.65"/>
</linearGradient>
<linearGradient id="paint14_linear" x1="21.4081" y1="8.54983" x2="11.6763" y2="8.15628" gradientUnits="userSpaceOnUse">
<stop offset="0.00409913" stop-color="white"/>
<stop offset="0.957588" stop-color="#C9BFD8" stop-opacity="0.65"/>
</linearGradient>
<linearGradient id="paint15_linear" x1="26.7953" y1="8.54983" x2="17.0634" y2="8.15628" gradientUnits="userSpaceOnUse">
<stop offset="0.00409913" stop-color="white"/>
<stop offset="0.957588" stop-color="#C9BFD8" stop-opacity="0.65"/>
</linearGradient>
<clipPath id="clip0">
<rect width="26" height="26" fill="white"/>
</clipPath>
</defs>
</svg>
