<svg width="26" height="26" viewBox="0 0 26 26" fill="none" xmlns="http://www.w3.org/2000/svg">
<path d="M22.88 18.642H3.12001C2.40241 18.642 1.82001 18.0596 1.82001 17.342V3.12002C1.82001 2.40242 2.40241 1.82002 3.12001 1.82002H22.88C23.5976 1.82002 24.18 2.40242 24.18 3.12002V17.342C24.18 18.0596 23.5976 18.642 22.88 18.642ZM3.12001 2.34002C2.68841 2.34002 2.34001 2.68842 2.34001 3.12002V17.342C2.34001 17.7736 2.68841 18.122 3.12001 18.122H22.88C23.3116 18.122 23.66 17.7736 23.66 17.342V3.12002C23.66 2.68842 23.3116 2.34002 22.88 2.34002H3.12001Z" fill="url(#paint0_linear)"/>
<path d="M7.7116 15.9953H5.07C4.9244 15.9953 4.81 15.8809 4.81 15.7353V13.6605C4.81 12.7869 5.5172 12.0797 6.3908 12.0797C7.2644 12.0797 7.9716 12.7869 7.9716 13.6605V15.7353C7.9716 15.8809 7.8572 15.9953 7.7116 15.9953ZM5.33 15.4753H7.4516V13.6605C7.4516 13.0781 6.9732 12.5997 6.3908 12.5997C5.8084 12.5997 5.33 13.0781 5.33 13.6605V15.4753Z" fill="url(#paint1_linear)"/>
<path d="M10.3584 15.9952H7.71685C7.57125 15.9952 7.45685 15.8808 7.45685 15.7352V9.95276C7.45685 9.07916 8.16405 8.37196 9.03765 8.37196C9.91125 8.37196 10.6184 9.07916 10.6184 9.95276V15.7352C10.6184 15.8808 10.504 15.9952 10.3584 15.9952ZM7.97685 15.4752H10.0984V9.95276C10.0984 9.37036 9.62005 8.89196 9.03765 8.89196C8.45525 8.89196 7.97685 9.37036 7.97685 9.95276V15.4752Z" fill="url(#paint2_linear)"/>
<path d="M13.0001 16.0005H10.3584C10.2128 16.0005 10.0984 15.8861 10.0984 15.7405V11.9757C10.0984 11.1021 10.8057 10.3949 11.6793 10.3949C12.5529 10.3949 13.2601 11.1021 13.2601 11.9757V15.7405C13.2601 15.8861 13.1457 16.0005 13.0001 16.0005ZM10.6184 15.4805H12.7401V11.9757C12.7401 11.3933 12.2617 10.9149 11.6793 10.9149C11.0969 10.9149 10.6184 11.3933 10.6184 11.9757V15.4805Z" fill="url(#paint3_linear)"/>
<path d="M15.6415 15.9952H12.9999C12.8543 15.9952 12.7399 15.8808 12.7399 15.7352V8.7932C12.7399 7.9196 13.4471 7.2124 14.3207 7.2124C15.1943 7.2124 15.9015 7.9196 15.9015 8.7932V15.7352C15.9015 15.8808 15.7871 15.9952 15.6415 15.9952ZM13.2599 15.4752H15.3815V8.7932C15.3815 8.2108 14.9031 7.7324 14.3207 7.7324C13.7383 7.7324 13.2599 8.2108 13.2599 8.7932V15.4752Z" fill="url(#paint4_linear)"/>
<path d="M18.2832 15.9952H15.6416C15.496 15.9952 15.3816 15.8808 15.3816 15.7352V8.21076C15.3816 7.33716 16.0888 6.62996 16.9624 6.62996C17.3888 6.62996 17.7892 6.79636 18.0856 7.09796C18.382 7.39436 18.5432 7.79476 18.5432 8.21076V15.7352C18.5432 15.8808 18.4288 15.9952 18.2832 15.9952ZM15.9016 15.4752H18.0232V8.21076C18.0232 7.92996 17.9192 7.66476 17.7164 7.46196C17.5136 7.25916 17.2484 7.14996 16.9624 7.14996C16.38 7.14996 15.9016 7.62836 15.9016 8.21076V15.4752Z" fill="url(#paint5_linear)"/>
<path d="M20.93 15.9952H18.2884C18.1428 15.9952 18.0284 15.8808 18.0284 15.7352V5.68879C18.0284 4.81519 18.7356 4.10799 19.6092 4.10799C20.4828 4.10799 21.19 4.81519 21.19 5.68879V15.7352C21.19 15.8808 21.0756 15.9952 20.93 15.9952ZM18.5484 15.4752H20.67V5.68879C20.67 5.10639 20.1916 4.62799 19.6092 4.62799C19.0268 4.62799 18.5484 5.10639 18.5484 5.68879V15.4752Z" fill="url(#paint6_linear)"/>
<path d="M19.2816 26H6.7236C6.578 26 6.4636 25.8856 6.4636 25.74V25.22C6.4636 24.0708 7.3944 23.14 8.5436 23.14H9.8384C10.3272 23.14 10.7276 22.7396 10.7276 22.2508V21.5488C10.7276 20.9508 10.2388 20.462 9.6408 20.462H1.82C0.8164 20.462 0 19.6456 0 18.642V1.82C0 0.8164 0.8164 0 1.82 0H24.18C25.1836 0 26 0.8164 26 1.82V18.642C26 19.6456 25.1836 20.462 24.18 20.462H16.3644C15.7664 20.462 15.2776 20.9508 15.2776 21.5488V22.2508C15.2776 22.7396 15.678 23.14 16.1668 23.14H17.4616C18.6108 23.14 19.5416 24.0708 19.5416 25.22V25.74C19.5416 25.8856 19.4272 26 19.2816 26ZM6.9836 25.48H19.0216V25.22C19.0216 24.362 18.3196 23.66 17.4616 23.66H16.1668C15.392 23.66 14.7576 23.0256 14.7576 22.2508V21.5488C14.7576 20.6648 15.4804 19.942 16.3644 19.942H24.18C24.8976 19.942 25.48 19.3596 25.48 18.642V1.82C25.48 1.1024 24.8976 0.52 24.18 0.52H1.82C1.1024 0.52 0.52 1.1024 0.52 1.82V18.642C0.52 19.3596 1.1024 19.942 1.82 19.942H9.6408C10.5248 19.942 11.2476 20.6648 11.2476 21.5488V22.2508C11.2476 23.0256 10.6132 23.66 9.8384 23.66H8.5436C7.6856 23.66 6.9836 24.362 6.9836 25.22V25.48Z" fill="url(#paint7_linear)"/>
<path d="M11.6792 20.4619H9.30797C9.16237 20.4619 9.04797 20.3475 9.04797 20.2019C9.04797 20.0563 9.16237 19.9419 9.30797 19.9419H11.6792C11.8248 19.9419 11.9392 20.0563 11.9392 20.2019C11.9392 20.3475 11.8248 20.4619 11.6792 20.4619Z" fill="url(#paint8_linear)"/>
<path d="M13.4939 20.4619H12.9999C12.8543 20.4619 12.7399 20.3475 12.7399 20.2019C12.7399 20.0563 12.8543 19.9419 12.9999 19.9419H13.4939C13.6395 19.9419 13.7539 20.0563 13.7539 20.2019C13.7539 20.3475 13.6395 20.4619 13.4939 20.4619Z" fill="url(#paint9_linear)"/>
<path d="M16.5204 23.6601H13.6396C13.494 23.6601 13.3796 23.5457 13.3796 23.4001C13.3796 23.2545 13.494 23.1401 13.6396 23.1401H16.5204C16.666 23.1401 16.7804 23.2545 16.7804 23.4001C16.7804 23.5457 16.666 23.6601 16.5204 23.6601Z" fill="url(#paint10_linear)"/>
<defs>
<linearGradient id="paint0_linear" x1="28.2574" y1="18.642" x2="-20.5394" y2="16.1031" gradientUnits="userSpaceOnUse">
<stop offset="0.00409913" stop-color="white"/>
<stop offset="0.957588" stop-color="#C9BFD8" stop-opacity="0.65"/>
</linearGradient>
<linearGradient id="paint1_linear" x1="8.54812" y1="15.9953" x2="1.6367" y2="15.7768" gradientUnits="userSpaceOnUse">
<stop offset="0.00409913" stop-color="white"/>
<stop offset="0.957588" stop-color="#C9BFD8" stop-opacity="0.65"/>
</linearGradient>
<linearGradient id="paint2_linear" x1="11.195" y1="15.9952" x2="4.27847" y2="15.8829" gradientUnits="userSpaceOnUse">
<stop offset="0.00409913" stop-color="white"/>
<stop offset="0.957588" stop-color="#C9BFD8" stop-opacity="0.65"/>
</linearGradient>
<linearGradient id="paint3_linear" x1="13.8366" y1="16.0005" x2="6.92162" y2="15.8478" gradientUnits="userSpaceOnUse">
<stop offset="0.00409913" stop-color="white"/>
<stop offset="0.957588" stop-color="#C9BFD8" stop-opacity="0.65"/>
</linearGradient>
<linearGradient id="paint4_linear" x1="16.4781" y1="15.9952" x2="9.5611" y2="15.8977" gradientUnits="userSpaceOnUse">
<stop offset="0.00409913" stop-color="white"/>
<stop offset="0.957588" stop-color="#C9BFD8" stop-opacity="0.65"/>
</linearGradient>
<linearGradient id="paint5_linear" x1="19.1197" y1="15.9952" x2="12.2026" y2="15.9038" gradientUnits="userSpaceOnUse">
<stop offset="0.00409913" stop-color="white"/>
<stop offset="0.957588" stop-color="#C9BFD8" stop-opacity="0.65"/>
</linearGradient>
<linearGradient id="paint6_linear" x1="21.7666" y1="15.9952" x2="14.849" y2="15.9232" gradientUnits="userSpaceOnUse">
<stop offset="0.00409913" stop-color="white"/>
<stop offset="0.957588" stop-color="#C9BFD8" stop-opacity="0.65"/>
</linearGradient>
<linearGradient id="paint7_linear" x1="30.7412" y1="26" x2="-26.0659" y2="23.7764" gradientUnits="userSpaceOnUse">
<stop offset="0.00409913" stop-color="white"/>
<stop offset="0.957588" stop-color="#C9BFD8" stop-opacity="0.65"/>
</linearGradient>
<linearGradient id="paint8_linear" x1="12.4664" y1="20.4619" x2="6.42588" y2="19.1473" gradientUnits="userSpaceOnUse">
<stop offset="0.00409913" stop-color="white"/>
<stop offset="0.957588" stop-color="#C9BFD8" stop-opacity="0.65"/>
</linearGradient>
<linearGradient id="paint9_linear" x1="13.9388" y1="20.4619" x2="11.7328" y2="20.2935" gradientUnits="userSpaceOnUse">
<stop offset="0.00409913" stop-color="white"/>
<stop offset="0.957588" stop-color="#C9BFD8" stop-opacity="0.65"/>
</linearGradient>
<linearGradient id="paint10_linear" x1="17.4005" y1="23.6601" x2="10.4165" y2="21.8722" gradientUnits="userSpaceOnUse">
<stop offset="0.00409913" stop-color="white"/>
<stop offset="0.957588" stop-color="#C9BFD8" stop-opacity="0.65"/>
</linearGradient>
</defs>
</svg>
