<svg width="36" height="35" viewBox="0 0 36 35" fill="none" xmlns="http://www.w3.org/2000/svg">
<g clip-path="url(#clip0)">
<path d="M18.5837 31.0798V28.1925C18.5837 27.8638 18.3269 27.6056 18 27.6056C17.6732 27.6056 17.4164 27.8638 17.4164 28.1925V31.0798C17.4164 31.4084 17.6732 31.6667 18 31.6667C18.3269 31.6667 18.5837 31.4084 18.5837 31.0798Z" fill="url(#paint0_linear)"/>
<path d="M20.2412 32.7465C20.2412 31.5023 19.2373 30.493 18 30.493C16.7626 30.493 15.7587 31.5023 15.7587 32.7465C15.7587 33.9906 16.7626 35 18 35C19.2373 35 20.2412 33.9906 20.2412 32.7465ZM16.926 32.7465C16.926 32.1596 17.4163 31.6667 18 31.6667C18.5836 31.6667 19.0739 32.1596 19.0739 32.7465C19.0739 33.3333 18.5836 33.8263 18 33.8263C17.4163 33.8263 16.926 33.3568 16.926 32.7465Z" fill="url(#paint1_linear)"/>
<path d="M32.8249 26.9718C33.1517 26.9718 33.4085 26.7136 33.4085 26.385V0.586854C33.4085 0.258216 33.1517 0 32.8249 0H3.17509C2.84824 0 2.59143 0.258216 2.59143 0.586854V26.385C2.59143 26.7136 2.84824 26.9718 3.17509 26.9718C3.50194 26.9718 3.75875 26.7136 3.75875 26.385V1.17371H32.2646V26.385C32.2412 26.7136 32.498 26.9718 32.8249 26.9718Z" fill="url(#paint2_linear)"/>
<path d="M35.4163 1.17371C35.7432 1.17371 36 0.915493 36 0.586854C36 0.258216 35.7432 0 35.4163 0H0.583658C0.256809 0 0 0.258216 0 0.586854C0 0.915493 0.256809 1.17371 0.583658 1.17371H35.4163Z" fill="url(#paint3_linear)"/>
<path d="M35.4163 26.9718C35.7432 26.9718 36 26.7136 36 26.385C36 26.0563 35.7432 25.7981 35.4163 25.7981H0.583658C0.256809 25.7981 0 26.0563 0 26.385C0 26.7136 0.256809 26.9718 0.583658 26.9718H35.4163Z" fill="url(#paint4_linear)"/>
<path d="M17.1829 20.1174C17.9533 20.1174 18.5837 19.4836 18.5837 18.7089V8.61502C18.5837 8.47418 18.7004 8.38028 18.8171 8.38028H20.965C21.2918 8.38028 21.5487 8.12207 21.5487 7.79343C21.5487 7.46479 21.2918 7.20657 20.965 7.20657H18.8171C18.0467 7.20657 17.4164 7.84038 17.4164 8.61502V18.6854C17.4164 18.8263 17.2996 18.9202 17.1829 18.9202H15.2918C14.965 18.9202 14.7082 19.1784 14.7082 19.507C14.7082 19.8357 14.965 20.0939 15.2918 20.0939H17.1829V20.1174Z" fill="url(#paint5_linear)"/>
<path d="M30.3035 7.46479C30.3035 5.21127 28.4825 3.35681 26.2179 3.35681C23.9533 3.35681 22.1323 5.1878 22.1323 7.46479C22.1323 9.74179 23.9533 11.5728 26.2179 11.5728C28.4825 11.5728 30.3035 9.71831 30.3035 7.46479ZM23.2996 7.46479C23.2996 5.84507 24.607 4.53052 26.2179 4.53052C27.8288 4.53052 29.1362 5.84507 29.1362 7.46479C29.1362 9.08451 27.8288 10.3991 26.2179 10.3991C24.607 10.3991 23.2996 9.08451 23.2996 7.46479Z" fill="url(#paint6_linear)"/>
<path d="M25.7043 9.2723C25.8444 9.2723 26.0078 9.22535 26.1245 9.10798L28.1557 7.06572C28.3891 6.83098 28.3891 6.45539 28.1557 6.24413C27.9222 6.00938 27.5487 6.00938 27.3385 6.24413L25.7276 7.86384L24.9339 7.06572C24.7004 6.83098 24.3269 6.83098 24.1167 7.06572C23.8833 7.30046 23.8833 7.67605 24.1167 7.88732L25.3074 9.0845C25.4008 9.20187 25.5642 9.2723 25.7043 9.2723Z" fill="url(#paint7_linear)"/>
<path d="M13.8444 19.5305C13.8444 17.277 12.0234 15.4225 9.75876 15.4225C7.49417 15.4225 5.67316 17.2535 5.67316 19.5305C5.67316 21.8075 7.49417 23.6385 9.75876 23.6385C12.0234 23.6385 13.8444 21.784 13.8444 19.5305ZM6.86382 19.5305C6.86382 17.9108 8.17121 16.5962 9.78211 16.5962C11.393 16.5962 12.7004 17.9108 12.7004 19.5305C12.7004 21.1502 11.393 22.4648 9.78211 22.4648C8.17121 22.4413 6.86382 21.1268 6.86382 19.5305Z" fill="url(#paint8_linear)"/>
<path d="M9.2685 21.3146C9.40858 21.3146 9.57201 21.2676 9.68874 21.1502L11.7199 19.108C11.9533 18.8732 11.9533 18.4977 11.7199 18.2864C11.4864 18.0517 11.1129 18.0517 10.9027 18.2864L9.29185 19.9061L8.49808 19.108C8.26461 18.8732 7.89107 18.8732 7.68096 19.108C7.44749 19.3427 7.44749 19.7183 7.68096 19.9296L8.87162 21.1268C8.965 21.2676 9.10508 21.3146 9.2685 21.3146Z" fill="url(#paint9_linear)"/>
<path d="M24.3969 20.493L28.7159 16.1502C28.9494 15.9155 28.9494 15.5399 28.7159 15.3286C28.4825 15.0939 28.1089 15.0939 27.8988 15.3286L23.5798 19.6714C23.3463 19.9061 23.3463 20.2817 23.5798 20.493C23.6965 20.6103 23.8366 20.6573 24 20.6573C24.1634 20.6573 24.3035 20.6103 24.3969 20.493Z" fill="url(#paint10_linear)"/>
<path d="M28.3184 20.6573C28.4585 20.6573 28.6219 20.6103 28.7387 20.493C28.9721 20.2582 28.9721 19.8826 28.7387 19.6714L24.4196 15.3286C24.1861 15.0939 23.8126 15.0939 23.6025 15.3286C23.369 15.5634 23.369 15.939 23.6025 16.1502L27.9215 20.493C28.0149 20.6103 28.1783 20.6573 28.3184 20.6573Z" fill="url(#paint11_linear)"/>
<path d="M8.07785 12.0885L12.3969 7.74581C12.6304 7.51106 12.6304 7.13548 12.3969 6.92421C12.1635 6.68947 11.7899 6.68947 11.5798 6.92421L7.26073 11.2435C7.02727 11.4782 7.02727 11.8538 7.26073 12.0651C7.37746 12.1824 7.51754 12.2294 7.68096 12.2294C7.84439 12.2294 7.98446 12.1824 8.07785 12.0885Z" fill="url(#paint12_linear)"/>
<path d="M12 12.2535C12.1401 12.2535 12.3035 12.2066 12.4203 12.0892C12.6537 11.8545 12.6537 11.4789 12.4203 11.2676L8.07785 6.90141C7.84439 6.66667 7.47085 6.66667 7.26073 6.90141C7.02727 7.13616 7.02727 7.51174 7.26073 7.72301L11.5798 12.0657C11.6965 12.1831 11.86 12.2535 12 12.2535Z" fill="url(#paint13_linear)"/>
<path d="M3.75876 26.1502H32.2646C32.4514 26.1502 32.6148 25.9859 32.6148 25.7981V1.17371C32.6148 0.985913 32.4514 0.821594 32.2646 0.821594H3.75876C3.57199 0.821594 3.40857 0.985913 3.40857 1.17371V25.7981C3.40857 25.9859 3.54865 26.1502 3.75876 26.1502ZM3.75876 1.17371H32.2646V25.7981H3.75876V1.17371Z" fill="url(#paint14_linear)"/>
<path d="M0.583658 25.7981C0.256809 25.7981 0 26.0563 0 26.385C0 26.7136 0.256809 26.9718 0.583658 26.9718H35.4163C35.7432 26.9718 36 26.7136 36 26.385C36 26.0563 35.7432 25.7981 35.4163 25.7981H33.4086V1.17371H35.4163C35.7432 1.17371 36 0.915493 36 0.586854C36 0.258216 35.7432 0 35.4163 0H0.583658C0.256809 0 0 0.258216 0 0.586854C0 0.915493 0.256809 1.17371 0.583658 1.17371H2.59144V25.7981H0.583658ZM2.59144 0.821596H0.583658C0.44358 0.821596 0.350195 0.7277 0.350195 0.586854C0.350195 0.446009 0.44358 0.352113 0.583658 0.352113H35.4163C35.5564 0.352113 35.6498 0.446009 35.6498 0.586854C35.6498 0.7277 35.5564 0.821596 35.4163 0.821596H33.4086C33.2218 0.821596 33.0584 0.985915 33.0584 1.17371V25.7981C33.0584 25.9859 33.2218 26.1502 33.4086 26.1502H35.4163C35.5564 26.1502 35.6498 26.2441 35.6498 26.385C35.6498 26.5258 35.5564 26.6197 35.4163 26.6197H0.583658C0.44358 26.6197 0.350195 26.5258 0.350195 26.385C0.350195 26.2441 0.44358 26.1502 0.583658 26.1502H2.59144C2.77821 26.1502 2.94163 25.9859 2.94163 25.7981V1.17371C2.94163 0.985915 2.77821 0.821596 2.59144 0.821596Z" fill="url(#paint15_linear)"/>
<path d="M17.1829 20.1174C17.9533 20.1174 18.5837 19.4836 18.5837 18.7089V8.61502C18.5837 8.47418 18.7004 8.38028 18.8171 8.38028H20.965C21.2918 8.38028 21.5487 8.12207 21.5487 7.79343C21.5487 7.46479 21.2918 7.20657 20.965 7.20657H18.8171C18.0467 7.20657 17.4164 7.84038 17.4164 8.61502V18.6854C17.4164 18.8263 17.2996 18.9202 17.1829 18.9202H15.2918C14.965 18.9202 14.7082 19.1784 14.7082 19.507C14.7082 19.8357 14.965 20.0939 15.2918 20.0939H17.1829V20.1174ZM15.0584 19.5305C15.0584 19.3897 15.1518 19.2958 15.2918 19.2958H17.1829C17.5097 19.2958 17.7666 19.0376 17.7666 18.7089V8.61502C17.7666 8.02817 18.2335 7.55869 18.8171 7.55869H20.965C21.1051 7.55869 21.1985 7.65258 21.1985 7.79343C21.1985 7.93427 21.1051 8.02817 20.965 8.02817H18.8171C18.4903 8.02817 18.2335 8.28639 18.2335 8.61502V18.6854C18.2335 19.2723 17.7666 19.7418 17.1829 19.7418H15.2918C15.1518 19.7653 15.0584 19.6479 15.0584 19.5305Z" fill="url(#paint16_linear)"/>
<path d="M29.4864 7.46479C29.4864 5.65728 28.0156 4.17841 26.2179 4.17841C24.4203 4.17841 22.9495 5.65728 22.9495 7.46479C22.9495 9.2723 24.4203 10.7512 26.2179 10.7512C28.0156 10.7512 29.4864 9.2723 29.4864 7.46479ZM23.2997 7.46479C23.2997 5.84507 24.6071 4.53052 26.2179 4.53052C27.8288 4.53052 29.1362 5.84507 29.1362 7.46479C29.1362 9.08451 27.8288 10.3991 26.2179 10.3991C24.6071 10.3991 23.2997 9.08451 23.2997 7.46479Z" fill="url(#paint17_linear)"/>
<path d="M30.3035 7.46479C30.3035 5.21127 28.4825 3.35681 26.2179 3.35681C23.9533 3.35681 22.1323 5.1878 22.1323 7.46479C22.1323 9.74179 23.9533 11.5728 26.2179 11.5728C28.4825 11.5728 30.3035 9.71831 30.3035 7.46479ZM22.4825 7.46479C22.4825 5.39906 24.1635 3.70892 26.2179 3.70892C28.2724 3.70892 29.9533 5.39906 29.9533 7.46479C29.9533 9.53052 28.2724 11.2207 26.2179 11.2207C24.1635 11.2207 22.4825 9.53052 22.4825 7.46479Z" fill="url(#paint18_linear)"/>
<path d="M25.7043 9.27229C25.8444 9.27229 26.0078 9.22534 26.1245 9.10797L28.1557 7.06572C28.3891 6.83098 28.3891 6.45539 28.1557 6.24412C28.0389 6.12675 27.8988 6.0798 27.7354 6.0798C27.572 6.0798 27.4319 6.12675 27.3152 6.24412L25.7043 7.86384L24.9105 7.06572C24.7938 6.94835 24.6537 6.9014 24.4903 6.9014C24.3269 6.9014 24.1868 6.94835 24.0701 7.06572C23.8366 7.30046 23.8366 7.67605 24.0701 7.88732L25.2607 9.0845C25.4008 9.20187 25.5642 9.27229 25.7043 9.27229ZM24.3502 7.32394C24.3969 7.27699 24.4436 7.25351 24.5136 7.25351C24.5837 7.25351 24.6304 7.27699 24.6771 7.32394L25.4708 8.12206C25.5409 8.19248 25.6343 8.21595 25.7276 8.21595C25.821 8.21595 25.9144 8.19248 25.9845 8.12206L27.5953 6.50234C27.642 6.45539 27.6887 6.43192 27.7588 6.43192C27.8288 6.43192 27.8755 6.45539 27.9222 6.50234C27.9689 6.54929 27.9922 6.59624 27.9922 6.66666C27.9922 6.73708 27.9689 6.78403 27.9222 6.83098L25.8911 8.87323C25.8444 8.92018 25.7977 8.94365 25.7276 8.94365C25.6576 8.94365 25.6109 8.92018 25.5642 8.87323L24.3736 7.67605C24.2568 7.55868 24.2568 7.39436 24.3502 7.32394Z" fill="url(#paint19_linear)"/>
<path d="M13.8444 19.5305C13.8444 17.277 12.0234 15.4225 9.75876 15.4225C7.49417 15.4225 5.67316 17.2535 5.67316 19.5305C5.67316 21.8075 7.49417 23.6385 9.75876 23.6385C12.0234 23.6385 13.8444 21.784 13.8444 19.5305ZM6.0467 19.5305C6.0467 17.4648 7.72763 15.7747 9.78211 15.7747C11.8366 15.7747 13.5175 17.4648 13.5175 19.5305C13.5175 21.5963 11.8366 23.2864 9.78211 23.2864C7.72763 23.2629 6.0467 21.5963 6.0467 19.5305Z" fill="url(#paint20_linear)"/>
<path d="M13.0273 19.5305C13.0273 17.723 11.5564 16.2441 9.75878 16.2441C7.96111 16.2441 6.4903 17.723 6.4903 19.5305C6.4903 21.338 7.96111 22.8169 9.75878 22.8169C11.5798 22.7934 13.0273 21.338 13.0273 19.5305ZM6.86384 19.5305C6.86384 17.9108 8.17123 16.5963 9.78213 16.5963C11.393 16.5963 12.7004 17.9108 12.7004 19.5305C12.7004 21.1502 11.393 22.4648 9.78213 22.4648C8.17123 22.4413 6.86384 21.1268 6.86384 19.5305Z" fill="url(#paint21_linear)"/>
<path d="M9.26845 21.3146C9.40852 21.3146 9.57195 21.2676 9.68868 21.1502L11.7198 19.108C11.9533 18.8732 11.9533 18.4977 11.7198 18.2864C11.6031 18.169 11.463 18.1221 11.2996 18.1221C11.1361 18.1221 10.9961 18.169 10.8793 18.2864L9.26845 19.9061L8.47467 19.108C8.35794 18.9906 8.21786 18.9437 8.05444 18.9437C7.89101 18.9437 7.75094 18.9906 7.6342 19.108C7.40074 19.3427 7.40074 19.7183 7.6342 19.9296L8.82487 21.1268C8.96494 21.2676 9.10502 21.3146 9.26845 21.3146ZM7.89101 19.3662C7.93771 19.3193 7.9844 19.2958 8.05444 19.2958C8.12448 19.2958 8.17117 19.3193 8.21786 19.3662L9.01164 20.1643C9.08167 20.2347 9.17506 20.2582 9.26845 20.2582C9.36183 20.2582 9.45522 20.2347 9.52525 20.1643L11.1361 18.5446C11.1828 18.4977 11.2295 18.4742 11.2996 18.4742C11.3696 18.4742 11.4163 18.4977 11.463 18.5446C11.5097 18.5916 11.533 18.6385 11.533 18.7089C11.533 18.7793 11.5097 18.8263 11.463 18.8732L9.43187 20.9155C9.38518 20.9624 9.33848 20.9859 9.26845 20.9859C9.19841 20.9859 9.15171 20.9624 9.10502 20.9155L7.91436 19.7183C7.79763 19.6009 7.79763 19.4601 7.89101 19.3662Z" fill="url(#paint22_linear)"/>
<path d="M23.5798 20.493C23.6965 20.6103 23.8366 20.6573 24 20.6573C24.1634 20.6573 24.3035 20.6103 24.4202 20.493L26.1712 18.7324L27.9222 20.493C28.0389 20.6103 28.179 20.6573 28.3424 20.6573C28.5058 20.6573 28.6459 20.6103 28.7626 20.493C28.9961 20.2582 28.9961 19.8826 28.7626 19.6714L27.0117 17.9108L28.7626 16.1502C28.9961 15.9155 28.9961 15.5399 28.7626 15.3286C28.6459 15.2113 28.5058 15.1643 28.3424 15.1643C28.179 15.1643 28.0389 15.2113 27.9222 15.3286L26.1712 17.0892L24.4202 15.3286C24.3035 15.2113 24.1634 15.1643 24 15.1643C23.8366 15.1643 23.6965 15.2113 23.5798 15.3286C23.3463 15.5634 23.3463 15.939 23.5798 16.1502L25.3307 17.9108L23.5798 19.6714C23.3463 19.9061 23.3463 20.2582 23.5798 20.493ZM23.8366 19.9061L25.5875 18.1455C25.6576 18.0751 25.6809 17.9812 25.6809 17.8873C25.6809 17.7934 25.6342 17.6995 25.5875 17.6291L23.8366 15.8685C23.7899 15.8216 23.7665 15.7747 23.7665 15.7042C23.7665 15.6338 23.7899 15.5869 23.8366 15.5399C23.8833 15.493 23.93 15.4695 24 15.4695C24.07 15.4695 24.1167 15.493 24.1634 15.5399L25.9144 17.3005C25.9844 17.3709 26.0778 17.3944 26.1712 17.3944C26.2646 17.3944 26.358 17.3709 26.428 17.3005L28.179 15.5399C28.2257 15.493 28.2724 15.4695 28.3424 15.4695C28.4124 15.4695 28.4591 15.493 28.5058 15.5399C28.5525 15.5869 28.5759 15.6338 28.5759 15.7042C28.5759 15.7747 28.5525 15.8216 28.5058 15.8685L26.7549 17.6291C26.6848 17.6995 26.6615 17.7934 26.6615 17.8873C26.6615 17.9812 26.7082 18.0751 26.7549 18.1455L28.5058 19.9061C28.5525 19.9531 28.5759 20 28.5759 20.0704C28.5759 20.1408 28.5525 20.1878 28.5058 20.2347C28.4591 20.2817 28.4124 20.3052 28.3424 20.3052C28.2724 20.3052 28.2257 20.2817 28.179 20.2347L26.428 18.4742C26.358 18.4038 26.2646 18.3803 26.1712 18.3803C26.0778 18.3803 25.9844 18.4038 25.9144 18.4742L24.1634 20.2347C24.1167 20.2817 24.07 20.3052 24 20.3052C23.93 20.3052 23.8833 20.2817 23.8366 20.2347C23.7899 20.1878 23.7665 20.1408 23.7665 20.0704C23.7665 20 23.7899 19.9531 23.8366 19.9061Z" fill="url(#paint23_linear)"/>
<path d="M7.26073 12.0892C7.37746 12.2066 7.51754 12.2535 7.68096 12.2535C7.84439 12.2535 7.98447 12.2066 8.1012 12.0892L9.85217 10.3286L11.6031 12.0892C11.7199 12.2066 11.86 12.2535 12.0234 12.2535C12.1868 12.2535 12.3269 12.2066 12.4436 12.0892C12.6771 11.8545 12.6771 11.4789 12.4436 11.2676L10.6926 9.50704L12.4436 7.74648C12.6771 7.51173 12.6771 7.13615 12.4436 6.92488C12.3269 6.80751 12.1868 6.76056 12.0234 6.76056C11.86 6.76056 11.7199 6.80751 11.6031 6.92488L9.85217 8.68544L8.1012 6.92488C7.98447 6.80751 7.84439 6.76056 7.68096 6.76056C7.51754 6.76056 7.37746 6.80751 7.26073 6.92488C7.02727 7.15962 7.02727 7.53521 7.26073 7.74648L9.0117 9.50704L7.26073 11.2676C7.02727 11.4789 7.02727 11.8545 7.26073 12.0892ZM7.51754 11.5023L9.26851 9.74178C9.33855 9.67136 9.3619 9.57746 9.3619 9.48357C9.3619 9.38967 9.31521 9.29577 9.26851 9.22535L7.51754 7.46478C7.47085 7.41784 7.4475 7.37089 7.4475 7.30047C7.4475 7.23004 7.47085 7.18309 7.51754 7.13615C7.56423 7.0892 7.61092 7.06572 7.68096 7.06572C7.751 7.06572 7.79769 7.0892 7.84439 7.13615L9.59536 8.89671C9.6654 8.96713 9.75879 8.99061 9.85217 8.99061C9.94556 8.99061 10.0389 8.96713 10.109 8.89671L11.86 7.13615C11.9066 7.0892 11.9533 7.06572 12.0234 7.06572C12.0934 7.06572 12.1401 7.0892 12.1868 7.13615C12.2335 7.18309 12.2568 7.23004 12.2568 7.30047C12.2568 7.37089 12.2335 7.41784 12.1868 7.46478L10.4358 9.22535C10.3658 9.29577 10.3424 9.38967 10.3424 9.48357C10.3424 9.57746 10.3891 9.67136 10.4358 9.74178L12.1868 11.5023C12.2335 11.5493 12.2568 11.5962 12.2568 11.6667C12.2568 11.7371 12.2335 11.784 12.1868 11.831C12.1401 11.8779 12.0934 11.9014 12.0234 11.9014C11.9533 11.9014 11.9066 11.8779 11.86 11.831L10.109 10.0704C10.0389 10 9.94556 9.97652 9.85217 9.97652C9.75879 9.97652 9.6654 10 9.59536 10.0704L7.84439 11.831C7.79769 11.8779 7.751 11.9014 7.68096 11.9014C7.61092 11.9014 7.56423 11.8779 7.51754 11.831C7.47085 11.784 7.4475 11.7371 7.4475 11.6667C7.4475 11.5962 7.47085 11.5493 7.51754 11.5023Z" fill="url(#paint24_linear)"/>
<path d="M16.5759 32.7465C16.5759 33.5446 17.2062 34.1784 18 34.1784C18.7938 34.1784 19.4241 33.5446 19.4241 32.7465C19.4241 31.9483 18.7938 31.3145 18 31.3145C17.2062 31.3145 16.5759 31.9483 16.5759 32.7465ZM19.0739 32.7465C19.0739 33.3333 18.5836 33.8263 18 33.8263C17.4163 33.8263 16.9261 33.3333 16.9261 32.7465C16.9261 32.1596 17.4163 31.6666 18 31.6666C18.5836 31.6666 19.0739 32.1596 19.0739 32.7465Z" fill="url(#paint25_linear)"/>
<path d="M18 27.6056C17.6731 27.6056 17.4163 27.8638 17.4163 28.1925V30.5868C16.4591 30.8451 15.7587 31.7136 15.7587 32.7699C15.7587 34.0141 16.7626 35.0235 18 35.0235C19.2373 35.0235 20.2412 34.0141 20.2412 32.7699C20.2412 31.7371 19.5408 30.8451 18.5836 30.5868V28.1925C18.5836 27.8638 18.3268 27.6056 18 27.6056ZM19.891 32.7465C19.891 33.8028 19.0506 34.6479 18 34.6479C16.9494 34.6479 16.1089 33.8028 16.1089 32.7465C16.1089 31.8779 16.6926 31.1268 17.5097 30.9155C17.6731 30.8685 17.7665 30.7277 17.7665 30.5868V28.1925C17.7665 28.0516 17.8599 27.9577 18 27.9577C18.1401 27.9577 18.2334 28.0516 18.2334 28.1925V30.5868C18.2334 30.7512 18.3502 30.892 18.4902 30.9155C19.3074 31.1268 19.891 31.9014 19.891 32.7465Z" fill="url(#paint26_linear)"/>
</g>
<defs>
<linearGradient id="paint0_linear" x1="18.4777" y1="27.4186" x2="16.8754" y2="27.6335" gradientUnits="userSpaceOnUse">
<stop offset="0.00520833" stop-color="#E6E7ED"/>
<stop offset="0.25" stop-color="#8E8E8E"/>
<stop offset="0.507086" stop-color="#EBECF0"/>
<stop offset="0.765625" stop-color="#8E8E8E"/>
<stop offset="1" stop-color="#EBECF0"/>
</linearGradient>
<linearGradient id="paint1_linear" x1="19.8343" y1="30.2854" x2="14.6807" y2="32.6772" gradientUnits="userSpaceOnUse">
<stop offset="0.00520833" stop-color="#E6E7ED"/>
<stop offset="0.25" stop-color="#8E8E8E"/>
<stop offset="0.507086" stop-color="#EBECF0"/>
<stop offset="0.765625" stop-color="#8E8E8E"/>
<stop offset="1" stop-color="#EBECF0"/>
</linearGradient>
<linearGradient id="paint2_linear" x1="30.6109" y1="-1.24212" x2="-2.91963" y2="16.6356" gradientUnits="userSpaceOnUse">
<stop offset="0.00520833" stop-color="#E6E7ED"/>
<stop offset="0.25" stop-color="#8E8E8E"/>
<stop offset="0.507086" stop-color="#EBECF0"/>
<stop offset="0.765625" stop-color="#8E8E8E"/>
<stop offset="1" stop-color="#EBECF0"/>
</linearGradient>
<linearGradient id="paint3_linear" x1="32.7318" y1="-0.0540523" x2="32.4875" y2="3.44349" gradientUnits="userSpaceOnUse">
<stop offset="0.00520833" stop-color="#E6E7ED"/>
<stop offset="0.25" stop-color="#8E8E8E"/>
<stop offset="0.507086" stop-color="#EBECF0"/>
<stop offset="0.765625" stop-color="#8E8E8E"/>
<stop offset="1" stop-color="#EBECF0"/>
</linearGradient>
<linearGradient id="paint4_linear" x1="32.7318" y1="25.7441" x2="32.4875" y2="29.2416" gradientUnits="userSpaceOnUse">
<stop offset="0.00520833" stop-color="#E6E7ED"/>
<stop offset="0.25" stop-color="#8E8E8E"/>
<stop offset="0.507086" stop-color="#EBECF0"/>
<stop offset="0.765625" stop-color="#8E8E8E"/>
<stop offset="1" stop-color="#EBECF0"/>
</linearGradient>
<linearGradient id="paint5_linear" x1="20.9277" y1="6.612" x2="11.9197" y2="8.83913" gradientUnits="userSpaceOnUse">
<stop offset="0.00520833" stop-color="#E6E7ED"/>
<stop offset="0.25" stop-color="#8E8E8E"/>
<stop offset="0.507086" stop-color="#EBECF0"/>
<stop offset="0.765625" stop-color="#8E8E8E"/>
<stop offset="1" stop-color="#EBECF0"/>
</linearGradient>
<linearGradient id="paint6_linear" x1="29.5617" y1="2.97845" x2="20.1672" y2="7.33851" gradientUnits="userSpaceOnUse">
<stop offset="0.00520833" stop-color="#E6E7ED"/>
<stop offset="0.25" stop-color="#8E8E8E"/>
<stop offset="0.507086" stop-color="#EBECF0"/>
<stop offset="0.765625" stop-color="#8E8E8E"/>
<stop offset="1" stop-color="#EBECF0"/>
</linearGradient>
<linearGradient id="paint7_linear" x1="27.9323" y1="5.92051" x2="23.5782" y2="8.70369" gradientUnits="userSpaceOnUse">
<stop offset="0.00520833" stop-color="#E6E7ED"/>
<stop offset="0.25" stop-color="#8E8E8E"/>
<stop offset="0.507086" stop-color="#EBECF0"/>
<stop offset="0.765625" stop-color="#8E8E8E"/>
<stop offset="1" stop-color="#EBECF0"/>
</linearGradient>
<linearGradient id="paint8_linear" x1="13.1026" y1="15.0442" x2="3.70801" y2="19.4042" gradientUnits="userSpaceOnUse">
<stop offset="0.00520833" stop-color="#E6E7ED"/>
<stop offset="0.25" stop-color="#8E8E8E"/>
<stop offset="0.507086" stop-color="#EBECF0"/>
<stop offset="0.765625" stop-color="#8E8E8E"/>
<stop offset="1" stop-color="#EBECF0"/>
</linearGradient>
<linearGradient id="paint9_linear" x1="11.4965" y1="17.9628" x2="7.1424" y2="20.746" gradientUnits="userSpaceOnUse">
<stop offset="0.00520833" stop-color="#E6E7ED"/>
<stop offset="0.25" stop-color="#8E8E8E"/>
<stop offset="0.507086" stop-color="#EBECF0"/>
<stop offset="0.765625" stop-color="#8E8E8E"/>
<stop offset="1" stop-color="#EBECF0"/>
</linearGradient>
<linearGradient id="paint10_linear" x1="28.393" y1="14.8991" x2="22.09" y2="17.8306" gradientUnits="userSpaceOnUse">
<stop offset="0.00520833" stop-color="#E6E7ED"/>
<stop offset="0.25" stop-color="#8E8E8E"/>
<stop offset="0.507086" stop-color="#EBECF0"/>
<stop offset="0.765625" stop-color="#8E8E8E"/>
<stop offset="1" stop-color="#EBECF0"/>
</linearGradient>
<linearGradient id="paint11_linear" x1="28.4157" y1="14.8991" x2="22.1127" y2="17.8306" gradientUnits="userSpaceOnUse">
<stop offset="0.00520833" stop-color="#E6E7ED"/>
<stop offset="0.25" stop-color="#8E8E8E"/>
<stop offset="0.507086" stop-color="#EBECF0"/>
<stop offset="0.765625" stop-color="#8E8E8E"/>
<stop offset="1" stop-color="#EBECF0"/>
</linearGradient>
<linearGradient id="paint12_linear" x1="12.0739" y1="6.49573" x2="5.78055" y2="9.43529" gradientUnits="userSpaceOnUse">
<stop offset="0.00520833" stop-color="#E6E7ED"/>
<stop offset="0.25" stop-color="#8E8E8E"/>
<stop offset="0.507086" stop-color="#EBECF0"/>
<stop offset="0.765625" stop-color="#8E8E8E"/>
<stop offset="1" stop-color="#EBECF0"/>
</linearGradient>
<linearGradient id="paint13_linear" x1="12.0952" y1="6.47077" x2="5.76533" y2="9.41473" gradientUnits="userSpaceOnUse">
<stop offset="0.00520833" stop-color="#E6E7ED"/>
<stop offset="0.25" stop-color="#8E8E8E"/>
<stop offset="0.507086" stop-color="#EBECF0"/>
<stop offset="0.765625" stop-color="#8E8E8E"/>
<stop offset="1" stop-color="#EBECF0"/>
</linearGradient>
<linearGradient id="paint14_linear" x1="29.9634" y1="-0.344855" x2="-1.68476" y2="16.6846" gradientUnits="userSpaceOnUse">
<stop offset="0.00520833" stop-color="#E6E7ED"/>
<stop offset="0.25" stop-color="#8E8E8E"/>
<stop offset="0.507086" stop-color="#EBECF0"/>
<stop offset="0.765625" stop-color="#8E8E8E"/>
<stop offset="1" stop-color="#EBECF0"/>
</linearGradient>
<linearGradient id="paint15_linear" x1="32.7318" y1="-1.24212" x2="-3.51244" y2="21.3325" gradientUnits="userSpaceOnUse">
<stop offset="0.00520833" stop-color="#E6E7ED"/>
<stop offset="0.25" stop-color="#8E8E8E"/>
<stop offset="0.507086" stop-color="#EBECF0"/>
<stop offset="0.765625" stop-color="#8E8E8E"/>
<stop offset="1" stop-color="#EBECF0"/>
</linearGradient>
<linearGradient id="paint16_linear" x1="20.9277" y1="6.612" x2="11.9197" y2="8.83913" gradientUnits="userSpaceOnUse">
<stop offset="0.00520833" stop-color="#E6E7ED"/>
<stop offset="0.25" stop-color="#8E8E8E"/>
<stop offset="0.507086" stop-color="#EBECF0"/>
<stop offset="0.765625" stop-color="#8E8E8E"/>
<stop offset="1" stop-color="#EBECF0"/>
</linearGradient>
<linearGradient id="paint17_linear" x1="28.893" y1="3.87571" x2="21.3773" y2="7.36377" gradientUnits="userSpaceOnUse">
<stop offset="0.00520833" stop-color="#E6E7ED"/>
<stop offset="0.25" stop-color="#8E8E8E"/>
<stop offset="0.507086" stop-color="#EBECF0"/>
<stop offset="0.765625" stop-color="#8E8E8E"/>
<stop offset="1" stop-color="#EBECF0"/>
</linearGradient>
<linearGradient id="paint18_linear" x1="29.5617" y1="2.97845" x2="20.1672" y2="7.33851" gradientUnits="userSpaceOnUse">
<stop offset="0.00520833" stop-color="#E6E7ED"/>
<stop offset="0.25" stop-color="#8E8E8E"/>
<stop offset="0.507086" stop-color="#EBECF0"/>
<stop offset="0.765625" stop-color="#8E8E8E"/>
<stop offset="1" stop-color="#EBECF0"/>
</linearGradient>
<linearGradient id="paint19_linear" x1="27.9281" y1="5.93278" x2="23.5642" y2="8.76221" gradientUnits="userSpaceOnUse">
<stop offset="0.00520833" stop-color="#E6E7ED"/>
<stop offset="0.25" stop-color="#8E8E8E"/>
<stop offset="0.507086" stop-color="#EBECF0"/>
<stop offset="0.765625" stop-color="#8E8E8E"/>
<stop offset="1" stop-color="#EBECF0"/>
</linearGradient>
<linearGradient id="paint20_linear" x1="13.1026" y1="15.0442" x2="3.70801" y2="19.4042" gradientUnits="userSpaceOnUse">
<stop offset="0.00520833" stop-color="#E6E7ED"/>
<stop offset="0.25" stop-color="#8E8E8E"/>
<stop offset="0.507086" stop-color="#EBECF0"/>
<stop offset="0.765625" stop-color="#8E8E8E"/>
<stop offset="1" stop-color="#EBECF0"/>
</linearGradient>
<linearGradient id="paint21_linear" x1="12.4338" y1="15.9414" x2="4.91818" y2="19.4295" gradientUnits="userSpaceOnUse">
<stop offset="0.00520833" stop-color="#E6E7ED"/>
<stop offset="0.25" stop-color="#8E8E8E"/>
<stop offset="0.507086" stop-color="#EBECF0"/>
<stop offset="0.765625" stop-color="#8E8E8E"/>
<stop offset="1" stop-color="#EBECF0"/>
</linearGradient>
<linearGradient id="paint22_linear" x1="11.4922" y1="17.975" x2="7.12838" y2="20.8045" gradientUnits="userSpaceOnUse">
<stop offset="0.00520833" stop-color="#E6E7ED"/>
<stop offset="0.25" stop-color="#8E8E8E"/>
<stop offset="0.507086" stop-color="#EBECF0"/>
<stop offset="0.765625" stop-color="#8E8E8E"/>
<stop offset="1" stop-color="#EBECF0"/>
</linearGradient>
<linearGradient id="paint23_linear" x1="28.4354" y1="14.9114" x2="22.1029" y2="17.888" gradientUnits="userSpaceOnUse">
<stop offset="0.00520833" stop-color="#E6E7ED"/>
<stop offset="0.25" stop-color="#8E8E8E"/>
<stop offset="0.507086" stop-color="#EBECF0"/>
<stop offset="0.765625" stop-color="#8E8E8E"/>
<stop offset="1" stop-color="#EBECF0"/>
</linearGradient>
<linearGradient id="paint24_linear" x1="12.1164" y1="6.50759" x2="5.78391" y2="9.48422" gradientUnits="userSpaceOnUse">
<stop offset="0.00520833" stop-color="#E6E7ED"/>
<stop offset="0.25" stop-color="#8E8E8E"/>
<stop offset="0.507086" stop-color="#EBECF0"/>
<stop offset="0.765625" stop-color="#8E8E8E"/>
<stop offset="1" stop-color="#EBECF0"/>
</linearGradient>
<linearGradient id="paint25_linear" x1="19.1655" y1="31.1826" x2="15.8909" y2="32.7024" gradientUnits="userSpaceOnUse">
<stop offset="0.00520833" stop-color="#E6E7ED"/>
<stop offset="0.25" stop-color="#8E8E8E"/>
<stop offset="0.507086" stop-color="#EBECF0"/>
<stop offset="0.765625" stop-color="#8E8E8E"/>
<stop offset="1" stop-color="#EBECF0"/>
</linearGradient>
<linearGradient id="paint26_linear" x1="19.8343" y1="27.264" x2="14.032" y2="28.9002" gradientUnits="userSpaceOnUse">
<stop offset="0.00520833" stop-color="#E6E7ED"/>
<stop offset="0.25" stop-color="#8E8E8E"/>
<stop offset="0.507086" stop-color="#EBECF0"/>
<stop offset="0.765625" stop-color="#8E8E8E"/>
<stop offset="1" stop-color="#EBECF0"/>
</linearGradient>
<clipPath id="clip0">
<rect width="36" height="35" fill="white"/>
</clipPath>
</defs>
</svg>
