<svg width="448" height="449" viewBox="0 0 448 449" fill="none" xmlns="http://www.w3.org/2000/svg">
<path d="M128.081 383.959C128.081 419.328 99.409 448 64.04 448C28.671 448 0 419.328 0 383.959C0 348.59 28.672 319.918 64.041 319.918C99.41 319.918 128.081 348.591 128.081 383.959ZM303.741 431.209C295.387 276.609 171.556 152.622 16.791 144.259C7.656 143.765 0 151.105 0 160.253V208.322C0 216.737 6.49 223.794 14.887 224.34C126.719 231.624 216.36 321.042 223.659 433.112C224.206 441.509 231.263 447.999 239.677 447.999H287.746C296.895 448 304.235 440.344 303.741 431.209ZM447.99 431.497C439.596 197.677 251.465 8.44539 16.503 0.0103909C7.473 -0.313609 0 6.98139 0 16.0164V64.0844C0 72.7094 6.835 79.7294 15.453 80.0834C206.632 87.9224 360.08 241.399 367.918 432.548C368.271 441.166 375.291 448.001 383.917 448.001H431.985C441.019 448 448.314 440.527 447.99 431.497Z" fill="url(#paint0_linear)"/>
<defs>
<linearGradient id="paint0_linear" x1="407.33" y1="-20.6316" x2="-106.742" y2="219.258" gradientUnits="userSpaceOnUse">
<stop offset="0.00520833" stop-color="#E6E7ED"/>
<stop offset="0.25" stop-color="#8E8E8E"/>
<stop offset="0.507086" stop-color="#EBECF0"/>
<stop offset="0.765625" stop-color="#8E8E8E"/>
<stop offset="1" stop-color="#EBECF0"/>
</linearGradient>
</defs>
</svg>
