<svg width="26" height="25" viewBox="0 0 26 25" fill="none" xmlns="http://www.w3.org/2000/svg">
<g clip-path="url(#clip0)">
<path d="M13 18.97C10.296 18.97 7.6492 18.245 5.3456 16.88C4.836 16.575 4.3264 16.275 3.8324 15.98C2.834 15.385 1.8772 14.82 1.0556 14.33C0.3952 13.93 0 13.245 0 12.495C0 11.745 0.3952 11.065 1.0608 10.67L5.3508 8.11998C7.6492 6.74998 10.296 6.02998 13 6.02998C15.704 6.02998 18.3508 6.75498 20.6492 8.11998C21.1536 8.41998 21.658 8.71998 22.152 9.01498C23.1556 9.60998 24.1124 10.18 24.9392 10.67C25.6048 11.065 26 11.75 26 12.505C26 13.255 25.6048 13.935 24.9392 14.33L20.6492 16.88C18.3508 18.245 15.7092 18.97 13 18.97ZM13 6.52998C10.3896 6.52998 7.8416 7.22998 5.6212 8.54998L1.3312 11.1C0.8216 11.4 0.52 11.925 0.52 12.5C0.52 13.075 0.8216 13.605 1.3312 13.905C2.1528 14.395 3.1096 14.96 4.108 15.555C4.602 15.85 5.1116 16.15 5.6212 16.455C7.8416 17.775 10.3948 18.475 13 18.475C15.6104 18.475 18.1584 17.775 20.3736 16.455L24.6636 13.905C25.1732 13.605 25.4748 13.08 25.4748 12.505C25.4748 11.93 25.1732 11.4 24.6636 11.1C23.8368 10.61 22.88 10.04 21.8764 9.44498C21.3824 9.14998 20.878 8.84998 20.3736 8.54998C18.1584 7.22998 15.6104 6.52998 13 6.52998Z" fill="url(#paint0_linear)"/>
<path d="M11.1956 8.67502C11.0968 8.67502 10.998 8.62002 10.9564 8.52002C10.8992 8.39502 10.9616 8.24502 11.0968 8.19002C11.2632 8.12502 11.4036 8.07502 11.5336 8.03502C11.6688 7.99502 11.8144 8.07002 11.856 8.20502C11.8976 8.33502 11.8196 8.47502 11.6792 8.51502C11.5648 8.55002 11.4452 8.59002 11.2944 8.65002C11.2632 8.67002 11.232 8.67502 11.1956 8.67502Z" fill="url(#paint1_linear)"/>
<path d="M8.63714 11.335C8.61114 11.335 8.57994 11.33 8.55394 11.32C8.41874 11.275 8.34594 11.135 8.39274 11.005C8.69434 10.155 9.23514 9.40997 9.96314 8.84997C10.0775 8.76497 10.2387 8.77997 10.3271 8.88997C10.4155 8.99997 10.3999 9.15497 10.2855 9.23997C9.63554 9.73997 9.15194 10.405 8.88154 11.165C8.84514 11.27 8.74634 11.335 8.63714 11.335Z" fill="url(#paint2_linear)"/>
<path d="M13.0001 17.1749C10.3169 17.1749 8.13806 15.0799 8.13806 12.4999C8.13806 12.3599 8.25246 12.2499 8.39806 12.2499C8.54366 12.2499 8.65806 12.3599 8.65806 12.4999C8.65806 14.7999 10.6081 16.6749 13.0001 16.6749C15.3921 16.6749 17.3421 14.7999 17.3421 12.4999C17.3421 10.2 15.3921 8.32495 13.0001 8.32495C12.8545 8.32495 12.7401 8.21495 12.7401 8.07495C12.7401 7.93495 12.8545 7.82495 13.0001 7.82495C15.6833 7.82495 17.8621 9.91995 17.8621 12.4999C17.8621 15.0799 15.6833 17.1749 13.0001 17.1749Z" fill="url(#paint3_linear)"/>
<path d="M13 14.6C11.7936 14.6 10.816 13.66 10.816 12.5C10.816 11.34 11.7936 10.4 13 10.4C14.2064 10.4 15.184 11.34 15.184 12.5C15.184 13.66 14.2064 14.6 13 14.6ZM13 10.9C12.0848 10.9 11.336 11.62 11.336 12.5C11.336 13.38 12.0848 14.1 13 14.1C13.9152 14.1 14.664 13.38 14.664 12.5C14.664 11.62 13.9152 10.9 13 10.9Z" fill="url(#paint4_linear)"/>
<path d="M5.1116 16.695C5.0648 16.695 5.018 16.68 4.9764 16.655C4.1288 16.15 3.2916 15.655 2.5168 15.19C2.002 14.885 1.5132 14.595 1.0608 14.325C0.3952 13.93 0 13.245 0 12.495C0 11.745 0.3952 11.065 1.0608 10.67L4.9972 8.33004C5.1064 8.26504 5.252 8.28504 5.3352 8.38504L5.3612 8.41504C5.4392 8.50504 5.4392 8.63504 5.3664 8.72504C5.3612 8.73004 4.9712 9.23004 4.5864 9.95004C4.238 10.6 3.822 11.575 3.822 12.5C3.822 13.425 4.238 14.4 4.5864 15.05C4.9712 15.77 5.3612 16.27 5.3664 16.275C5.408 16.33 5.4288 16.4 5.4132 16.465C5.4028 16.535 5.3612 16.595 5.2988 16.63C5.2832 16.64 5.2468 16.66 5.1896 16.68C5.1688 16.69 5.1376 16.695 5.1116 16.695ZM1.3312 13.9C1.7836 14.17 2.2724 14.46 2.7872 14.765C3.2916 15.065 3.822 15.38 4.3628 15.7C3.8896 14.91 3.302 13.685 3.302 12.495C3.302 11.305 3.8896 10.085 4.3628 9.29004L1.3312 11.09C0.8216 11.39 0.52 11.915 0.52 12.49C0.52 13.07 0.8216 13.6 1.3312 13.9Z" fill="url(#paint5_linear)"/>
<path d="M20.8417 16.725C20.8001 16.725 20.7533 16.715 20.7169 16.695C20.6337 16.65 20.5817 16.565 20.5817 16.475V16.425C20.5817 16.37 20.6025 16.32 20.6337 16.275C20.6389 16.27 21.0289 15.77 21.4137 15.05C21.7621 14.4 22.1781 13.425 22.1781 12.5C22.1781 12.1 22.0689 10.645 20.6493 8.74002C20.5765 8.64502 20.5661 8.55002 20.6129 8.46002C20.6389 8.41002 20.6857 8.37002 20.7377 8.34502L20.7845 8.32502C20.8625 8.29002 20.9561 8.29502 21.0289 8.34002C21.8713 8.84002 22.6981 9.33502 23.4729 9.79502C23.9929 10.105 24.4869 10.4 24.9445 10.67C25.6101 11.065 26.0053 11.75 26.0053 12.505C26.0053 13.255 25.6101 13.935 24.9445 14.33L20.9769 16.69C20.9353 16.71 20.8885 16.725 20.8417 16.725ZM21.6321 9.29002C22.1209 10.105 22.6981 11.32 22.6981 12.5C22.6981 13.695 22.1053 14.92 21.6321 15.71L24.6689 13.9C25.1785 13.6 25.4801 13.075 25.4801 12.5C25.4801 11.925 25.1785 11.395 24.6689 11.095C24.2113 10.825 23.7173 10.53 23.1973 10.22C22.6981 9.92502 22.1729 9.61002 21.6321 9.29002Z" fill="url(#paint6_linear)"/>
</g>
<defs>
<linearGradient id="paint0_linear" x1="30.7412" y1="18.97" x2="-25.8032" y2="14.5228" gradientUnits="userSpaceOnUse">
<stop offset="0.00409913" stop-color="white"/>
<stop offset="0.957588" stop-color="#C9BFD8" stop-opacity="0.65"/>
</linearGradient>
<linearGradient id="paint1_linear" x1="12.0371" y1="8.67502" x2="10.0041" y2="8.56105" gradientUnits="userSpaceOnUse">
<stop offset="0.00409913" stop-color="white"/>
<stop offset="0.957588" stop-color="#C9BFD8" stop-opacity="0.65"/>
</linearGradient>
<linearGradient id="paint2_linear" x1="10.7496" y1="11.335" x2="6.36557" y2="11.1995" gradientUnits="userSpaceOnUse">
<stop offset="0.00409913" stop-color="white"/>
<stop offset="0.957588" stop-color="#C9BFD8" stop-opacity="0.65"/>
</linearGradient>
<linearGradient id="paint3_linear" x1="19.6353" y1="17.1749" x2="-1.60794" y2="16.3102" gradientUnits="userSpaceOnUse">
<stop offset="0.00409913" stop-color="white"/>
<stop offset="0.957588" stop-color="#C9BFD8" stop-opacity="0.65"/>
</linearGradient>
<linearGradient id="paint4_linear" x1="15.9806" y1="14.6" x2="6.43815" y2="14.2116" gradientUnits="userSpaceOnUse">
<stop offset="0.00409913" stop-color="white"/>
<stop offset="0.957588" stop-color="#C9BFD8" stop-opacity="0.65"/>
</linearGradient>
<linearGradient id="paint5_linear" x1="6.40878" y1="16.695" x2="-5.4447" y2="16.3957" gradientUnits="userSpaceOnUse">
<stop offset="0.00409913" stop-color="white"/>
<stop offset="0.957588" stop-color="#C9BFD8" stop-opacity="0.65"/>
</linearGradient>
<linearGradient id="paint6_linear" x1="26.9943" y1="16.725" x2="15.1337" y2="16.4261" gradientUnits="userSpaceOnUse">
<stop offset="0.00409913" stop-color="white"/>
<stop offset="0.957588" stop-color="#C9BFD8" stop-opacity="0.65"/>
</linearGradient>
<clipPath id="clip0">
<rect width="26" height="25" fill="white"/>
</clipPath>
</defs>
</svg>
