<svg width="25" height="26" viewBox="0 0 25 26" fill="none" xmlns="http://www.w3.org/2000/svg">
<g clip-path="url(#clip0)">
<path d="M14.2899 8.25242C14.1499 8.25242 14.0399 8.13802 14.0399 7.99242V5.51722C14.0399 5.37162 14.1499 5.25722 14.2899 5.25722C14.4299 5.25722 14.5399 5.37162 14.5399 5.51722V7.99242C14.5399 8.13802 14.4299 8.25242 14.2899 8.25242Z" fill="url(#paint0_linear)"/>
<path d="M14.2899 10.4936C14.1499 10.4936 14.0399 10.3792 14.0399 10.2336V9.47445C14.0399 9.32885 14.1499 9.21445 14.2899 9.21445C14.4299 9.21445 14.5399 9.32885 14.5399 9.47445V10.2336C14.5399 10.3792 14.4299 10.4936 14.2899 10.4936Z" fill="url(#paint1_linear)"/>
<path d="M14.2899 12.2253C14.1499 12.2253 14.0399 12.1109 14.0399 11.9653V11.6273C14.0399 11.4817 14.1499 11.3673 14.2899 11.3673C14.4299 11.3673 14.5399 11.4817 14.5399 11.6273V11.9653C14.5399 12.1109 14.4299 12.2253 14.2899 12.2253Z" fill="url(#paint2_linear)"/>
<path d="M5.13503 21.4344C4.42503 21.4344 3.84503 20.8312 3.84503 20.0928V13.884H2.44503C1.80003 13.884 1.19003 13.624 0.730028 13.156C0.275028 12.688 0.0150277 12.064 2.76933e-05 11.3932C-0.0149723 10.7172 0.235028 10.0724 0.695028 9.58359C1.16503 9.08439 1.81503 8.79839 2.48503 8.79839H5.33503C5.86003 8.79839 6.37503 8.68919 6.87003 8.47599L15.665 4.64359C15.955 4.51359 16.285 4.54999 16.545 4.73199C16.805 4.91399 16.955 5.21559 16.95 5.53799V17.1548C16.95 17.4824 16.795 17.784 16.535 17.966C16.275 18.1428 15.95 18.1792 15.66 18.0492L7.05003 14.2896C6.91003 14.2272 6.75503 14.2428 6.63003 14.3312C6.50003 14.4196 6.43003 14.56 6.43003 14.7212V20.0928C6.42503 20.8312 5.84503 21.4344 5.13503 21.4344ZM2.48503 9.31839C1.95003 9.31839 1.43003 9.54719 1.05503 9.94759C0.685028 10.3376 0.490028 10.8472 0.500028 11.3828C0.520028 12.4748 1.39503 13.364 2.44503 13.364H4.09503C4.23503 13.364 4.34503 13.4784 4.34503 13.624V20.0928C4.34503 20.5452 4.70003 20.9144 5.13503 20.9144C5.57003 20.9144 5.92503 20.5452 5.92503 20.0928V14.7212C5.92503 14.3884 6.08503 14.0816 6.35003 13.8996C6.61503 13.7176 6.95003 13.6864 7.24003 13.8112L15.845 17.5656C15.98 17.6228 16.13 17.6124 16.25 17.5292C16.375 17.446 16.445 17.3056 16.445 17.1496V5.53279V5.52759C16.45 5.38199 16.38 5.24679 16.26 5.16359C16.14 5.08039 15.99 5.06479 15.855 5.12199L7.06003 8.95439C6.50503 9.19359 5.92503 9.31839 5.33503 9.31839H2.48503Z" fill="url(#paint3_linear)"/>
<path d="M23.87 8.16402H19.79C19.165 8.16402 18.66 7.63882 18.66 6.98882V6.84842C18.66 6.19842 19.165 5.67322 19.79 5.67322H23.87C24.495 5.67322 25 6.19842 25 6.84842V6.98882C25 7.63882 24.495 8.16402 23.87 8.16402ZM19.79 6.19322C19.445 6.19322 19.16 6.48962 19.16 6.84842V6.98882C19.16 7.34762 19.445 7.64402 19.79 7.64402H23.87C24.215 7.64402 24.5 7.34762 24.5 6.98882V6.84842C24.5 6.48962 24.215 6.19322 23.87 6.19322H19.79Z" fill="url(#paint4_linear)"/>
<path d="M23.8701 12.584H21.8301C21.2051 12.584 20.7001 12.0588 20.7001 11.4088V11.2684C20.7001 10.6184 21.2051 10.0932 21.8301 10.0932H23.8701C24.4951 10.0932 25.0001 10.6184 25.0001 11.2684V11.4088C25.0001 12.0588 24.4951 12.584 23.8701 12.584ZM21.8301 10.6132C21.4851 10.6132 21.2001 10.9096 21.2001 11.2684V11.4088C21.2001 11.7676 21.4851 12.064 21.8301 12.064H23.8701C24.2151 12.064 24.5001 11.7676 24.5001 11.4088V11.2684C24.5001 10.9096 24.2151 10.6132 23.8701 10.6132H21.8301Z" fill="url(#paint5_linear)"/>
<path d="M23.87 17.0091H19.79C19.165 17.0091 18.66 16.4839 18.66 15.8339V15.6935C18.66 15.0435 19.165 14.5183 19.79 14.5183H23.87C24.495 14.5183 25 15.0435 25 15.6935V15.8339C25 16.4839 24.495 17.0091 23.87 17.0091ZM19.79 15.0383C19.445 15.0383 19.16 15.3347 19.16 15.6935V15.8339C19.16 16.1927 19.445 16.4891 19.79 16.4891H23.87C24.215 16.4891 24.5 16.1927 24.5 15.8339V15.6935C24.5 15.3347 24.215 15.0383 23.87 15.0383H19.79Z" fill="url(#paint6_linear)"/>
<path d="M16.705 14.2012C16.565 14.2012 16.455 14.0868 16.455 13.9412V8.7412C16.455 8.5956 16.565 8.4812 16.705 8.4812C18.22 8.4812 19.455 9.7656 19.455 11.3412C19.455 12.9168 18.22 14.2012 16.705 14.2012ZM16.955 9.0168V13.6656C18.08 13.5356 18.955 12.5424 18.955 11.3412C18.955 10.14 18.08 9.1468 16.955 9.0168Z" fill="url(#paint7_linear)"/>
</g>
<defs>
<linearGradient id="paint0_linear" x1="14.6311" y1="8.25242" x2="13.537" y2="8.24527" gradientUnits="userSpaceOnUse">
<stop offset="0.00409913" stop-color="white"/>
<stop offset="0.957588" stop-color="#C9BFD8" stop-opacity="0.65"/>
</linearGradient>
<linearGradient id="paint1_linear" x1="14.6311" y1="10.4936" x2="13.5372" y2="10.4769" gradientUnits="userSpaceOnUse">
<stop offset="0.00409913" stop-color="white"/>
<stop offset="0.957588" stop-color="#C9BFD8" stop-opacity="0.65"/>
</linearGradient>
<linearGradient id="paint2_linear" x1="14.6311" y1="12.2253" x2="13.5375" y2="12.2003" gradientUnits="userSpaceOnUse">
<stop offset="0.00409913" stop-color="white"/>
<stop offset="0.957588" stop-color="#C9BFD8" stop-opacity="0.65"/>
</linearGradient>
<linearGradient id="paint3_linear" x1="20.0412" y1="21.4344" x2="-16.9938" y2="19.9776" gradientUnits="userSpaceOnUse">
<stop offset="0.00409913" stop-color="white"/>
<stop offset="0.957588" stop-color="#C9BFD8" stop-opacity="0.65"/>
</linearGradient>
<linearGradient id="paint4_linear" x1="26.1561" y1="8.16402" x2="12.4191" y2="6.79535" gradientUnits="userSpaceOnUse">
<stop offset="0.00409913" stop-color="white"/>
<stop offset="0.957588" stop-color="#C9BFD8" stop-opacity="0.65"/>
</linearGradient>
<linearGradient id="paint5_linear" x1="25.7842" y1="12.584" x2="16.4175" y2="11.951" gradientUnits="userSpaceOnUse">
<stop offset="0.00409913" stop-color="white"/>
<stop offset="0.957588" stop-color="#C9BFD8" stop-opacity="0.65"/>
</linearGradient>
<linearGradient id="paint6_linear" x1="26.1561" y1="17.0091" x2="12.4191" y2="15.6404" gradientUnits="userSpaceOnUse">
<stop offset="0.00409913" stop-color="white"/>
<stop offset="0.957588" stop-color="#C9BFD8" stop-opacity="0.65"/>
</linearGradient>
<linearGradient id="paint7_linear" x1="20.0021" y1="14.2012" x2="13.4401" y2="14.0665" gradientUnits="userSpaceOnUse">
<stop offset="0.00409913" stop-color="white"/>
<stop offset="0.957588" stop-color="#C9BFD8" stop-opacity="0.65"/>
</linearGradient>
<clipPath id="clip0">
<rect width="25" height="26" fill="white"/>
</clipPath>
</defs>
</svg>
