<svg width="12852" height="32768" viewBox="0 0 12852 32768" fill="none" xmlns="http://www.w3.org/2000/svg">
<rect x="2753.39" y="5604.39" width="2019.6" height="2019.6" rx="400" fill="white"/>
<rect x="2753.39" y="2810.61" width="2019.6" height="2019.6" rx="400" fill="white"/>
<rect x="2753.39" width="2019.6" height="2019.6" rx="400" fill="white"/>
<rect x="60.588" y="5604.39" width="2019.6" height="2019.6" rx="400" fill="white"/>
<rect x="60.588" y="2810.61" width="2019.6" height="2019.6" rx="400" fill="white"/>
<rect width="2019.6" height="2019.6" rx="400" fill="white"/>
<rect x="60.588" y="8398.17" width="2019.6" height="2019.6" rx="400" fill="white"/>
<rect x="60.588" y="11191.9" width="2019.6" height="2019.6" rx="400" fill="white"/>
<rect x="60.588" y="13985.7" width="2019.6" height="2019.6" rx="400" fill="white"/>
<rect x="60.588" y="16779.5" width="2019.6" height="2019.6" rx="400" fill="white"/>
<rect x="60.588" y="19573.3" width="2019.6" height="2019.6" rx="400" fill="white"/>
<rect x="60.588" y="22367.1" width="2019.6" height="2019.6" rx="400" fill="white"/>
<rect x="60.588" y="25160.8" width="2019.6" height="2019.6" rx="400" fill="white"/>
<rect x="60.588" y="27954.6" width="2019.6" height="2019.6" rx="400" fill="white"/>
<rect x="60.588" y="30748.4" width="2019.6" height="2019.6" rx="400" fill="white"/>
<rect x="2753.39" y="8398.17" width="2019.6" height="2019.6" rx="400" fill="white"/>
<rect x="2753.39" y="11216.2" width="2019.6" height="2019.6" rx="400" fill="white"/>
<rect x="2753.39" y="13985.7" width="2019.6" height="2019.6" rx="400" fill="white"/>
<rect x="2753.39" y="16779.5" width="2019.6" height="2019.6" rx="400" fill="white"/>
<rect x="2753.39" y="19573.3" width="2019.6" height="2019.6" rx="400" fill="white"/>
<rect x="2753.39" y="22367.1" width="2019.6" height="2019.6" rx="400" fill="white"/>
<rect x="2753.39" y="25160.8" width="2019.6" height="2019.6" rx="400" fill="white"/>
<rect x="2753.39" y="27954.6" width="2019.6" height="2019.6" rx="400" fill="white"/>
<rect x="2753.39" y="30748.4" width="2019.6" height="2019.6" rx="400" fill="white"/>
<rect x="5446.19" width="2019.6" height="2019.6" rx="400" fill="white"/>
<rect x="5446.19" y="2810.61" width="2019.6" height="2019.6" rx="400" fill="white"/>
<rect x="5446.19" y="5604.39" width="2019.6" height="2019.6" rx="400" fill="white"/>
<rect x="5446.19" y="8398.17" width="2019.6" height="2019.6" rx="400" fill="white"/>
<rect x="5446.19" y="11216.2" width="2019.6" height="2019.6" rx="400" fill="white"/>
<rect x="5446.19" y="13985.7" width="2019.6" height="2019.6" rx="400" fill="white"/>
<rect x="5446.19" y="16779.5" width="2019.6" height="2019.6" rx="400" fill="white"/>
<rect x="5446.19" y="19573.3" width="2019.6" height="2019.6" rx="400" fill="white"/>
<rect x="5446.19" y="22367.1" width="2019.6" height="2019.6" rx="400" fill="white"/>
<rect x="5446.19" y="25160.8" width="2019.6" height="2019.6" rx="400" fill="white"/>
<rect x="5446.19" y="27954.6" width="2019.6" height="2019.6" rx="400" fill="white"/>
<rect x="5446.19" y="30748.4" width="2019.6" height="2019.6" rx="400" fill="white"/>
<rect x="8138.99" width="2019.6" height="2019.6" rx="400" fill="white"/>
<rect x="8138.99" y="2793.78" width="2019.6" height="2019.6" rx="400" fill="white"/>
<rect x="8138.99" y="5604.39" width="2019.6" height="2019.6" rx="400" fill="white"/>
<rect x="8138.99" y="8398.17" width="2019.6" height="2019.6" rx="400" fill="white"/>
<rect x="8138.99" y="11216.2" width="2019.6" height="2019.6" rx="400" fill="white"/>
<rect x="8138.99" y="13985.7" width="2019.6" height="2019.6" rx="400" fill="white"/>
<rect x="8138.99" y="16779.5" width="2019.6" height="2019.6" rx="400" fill="white"/>
<rect x="8138.99" y="19573.3" width="2019.6" height="2019.6" rx="400" fill="white"/>
<rect x="8138.99" y="22367.1" width="2019.6" height="2019.6" rx="400" fill="white"/>
<rect x="8138.99" y="25160.8" width="2019.6" height="2019.6" rx="400" fill="white"/>
<rect x="8138.99" y="27954.6" width="2019.6" height="2019.6" rx="400" fill="white"/>
<rect x="8138.99" y="30748.4" width="2019.6" height="2019.6" rx="400" fill="white"/>
<rect x="10831.8" width="2019.6" height="2019.6" rx="400" fill="white"/>
<rect x="10831.8" y="2810.61" width="2019.6" height="2019.6" rx="400" fill="white"/>
<rect x="10831.8" y="5604.39" width="2019.6" height="2019.6" rx="400" fill="white"/>
<rect x="10831.8" y="8398.17" width="2019.6" height="2019.6" rx="400" fill="white"/>
<rect x="10831.8" y="11191.9" width="2019.6" height="2019.6" rx="400" fill="white"/>
<rect x="10831.8" y="13985.7" width="2019.6" height="2019.6" rx="400" fill="white"/>
<rect x="10831.8" y="16779.5" width="2019.6" height="2019.6" rx="400" fill="white"/>
<rect x="10831.8" y="19573.3" width="2019.6" height="2019.6" rx="400" fill="white"/>
<rect x="10831.8" y="22367.1" width="2019.6" height="2019.6" rx="400" fill="white"/>
<rect x="10831.8" y="25160.8" width="2019.6" height="2019.6" rx="400" fill="white"/>
<rect x="10831.8" y="27954.6" width="2019.6" height="2019.6" rx="400" fill="white"/>
<rect x="10831.8" y="30748.4" width="2019.6" height="2019.6" rx="400" fill="white"/>
</svg>
