<svg width="12914" height="32768" viewBox="0 0 12914 32768" fill="none" xmlns="http://www.w3.org/2000/svg">
<rect width="400" height="400" transform="scale(0.710803)" fill="#212121"/>
<rect width="400" height="400" transform="translate(397.339) scale(0.710803)" fill="#6C5BA7"/>
<rect width="400" height="400" transform="translate(794.677) scale(0.710803)" fill="#BFBFBF"/>
<rect width="400" height="400" transform="translate(1192.02) scale(0.710803)" fill="#121212"/>
<rect width="400" height="400" transform="translate(461.311 2967.6) scale(0.710803)" fill="#212121"/>
<rect width="400" height="400" transform="translate(858.65 2967.6) scale(0.710803)" fill="#6C5BA7"/>
<rect width="400" height="400" transform="translate(462.022 5917.43) scale(0.710803)" fill="#212121"/>
<rect width="400" height="400" transform="translate(859.36 5917.43) scale(0.710803)" fill="#6C5BA7"/>
<rect width="400" height="400" transform="translate(461.311 8867.26) scale(0.710803)" fill="#212121"/>
<rect width="400" height="400" transform="translate(858.65 8867.26) scale(0.710803)" fill="#6C5BA7"/>
<rect width="400" height="400" transform="translate(444.252 11842.7) scale(0.710803)" fill="#212121"/>
<rect width="400" height="400" transform="translate(841.59 11842.7) scale(0.710803)" fill="#6C5BA7"/>
<rect width="400" height="400" transform="translate(430.036 14766.9) scale(0.710803)" fill="#6C5BA7"/>
<rect width="400" height="400" transform="translate(827.374 14766.9) scale(0.710803)" fill="#BFBFBF"/>
<rect width="400" height="400" transform="translate(429.325 17716.8) scale(0.710803)" fill="#6C5BA7"/>
<rect width="400" height="400" transform="translate(826.663 17716.8) scale(0.710803)" fill="#121212"/>
<rect width="400" height="400" transform="translate(461.311 20666.6) scale(0.710803)" fill="#212121"/>
<rect width="400" height="400" transform="translate(858.65 20666.6) scale(0.710803)" fill="#6C5BA7"/>
<rect width="400" height="400" transform="translate(63.9722 23616.4) scale(0.710803)" fill="#212121"/>
<rect width="400" height="400" transform="translate(461.311 23616.4) scale(0.710803)" fill="#6C5BA7"/>
<rect width="400" height="400" transform="translate(858.65 23616.4) scale(0.710803)" fill="#BFBFBF"/>
<rect width="400" height="400" transform="translate(1255.99 23616.4) scale(0.710803)" fill="#121212"/>
<rect width="400" height="400" transform="translate(63.9722 26566.2) scale(0.710803)" fill="#212121"/>
<rect width="400" height="400" transform="translate(461.311 26566.2) scale(0.710803)" fill="#6C5BA7"/>
<rect width="400" height="400" transform="translate(858.65 26566.2) scale(0.710803)" fill="#BFBFBF"/>
<rect width="400" height="400" transform="translate(1255.99 26566.2) scale(0.710803)" fill="#121212"/>
<rect width="400" height="400" transform="translate(63.9722 29516.1) scale(0.710803)" fill="#212121"/>
<rect width="400" height="400" transform="translate(461.311 29516.1) scale(0.710803)" fill="#6C5BA7"/>
<rect width="400" height="400" transform="translate(858.65 29516.1) scale(0.710803)" fill="#BFBFBF"/>
<rect width="400" height="400" transform="translate(1255.99 29516.1) scale(0.710803)" fill="#121212"/>
<rect width="400" height="400" transform="translate(63.9722 32465.2) scale(0.710803)" fill="#212121"/>
<rect width="400" height="400" transform="translate(461.311 32465.2) scale(0.710803)" fill="#6C5BA7"/>
<rect width="400" height="400" transform="translate(858.65 32465.2) scale(0.710803)" fill="#BFBFBF"/>
<rect width="400" height="400" transform="translate(1255.99 32465.2) scale(0.710803)" fill="#121212"/>
<rect width="400" height="400" transform="translate(3105.5) scale(0.710803)" fill="#212121"/>
<rect width="400" height="400" transform="translate(3105.5) scale(0.710803)" fill="#212121"/>
<rect width="400" height="400" transform="translate(3502.84) scale(0.710803)" fill="#6C5BA7"/>
<rect width="400" height="400" transform="translate(3900.17) scale(0.710803)" fill="#212121"/>
<rect width="400" height="400" transform="translate(3105.5 2967.6) scale(0.710803)" fill="#6C5BA7"/>
<rect width="400" height="400" transform="translate(3502.84 2967.6) scale(0.710803)" fill="#BFBFBF"/>
<rect width="400" height="400" transform="translate(3900.17 2967.6) scale(0.710803)" fill="#121212"/>
<rect width="400" height="400" transform="translate(2907.18 5917.43) scale(0.710803)" fill="#212121"/>
<rect width="400" height="400" transform="translate(3304.52 5917.43) scale(0.710803)" fill="#6C5BA7"/>
<rect width="400" height="400" transform="translate(3701.86 5917.43) scale(0.710803)" fill="#BFBFBF"/>
<rect width="400" height="400" transform="translate(4099.2 5917.43) scale(0.710803)" fill="#121212"/>
<rect width="400" height="400" transform="translate(3105.5 8867.26) scale(0.710803)" fill="#212121"/>
<rect width="400" height="400" transform="translate(3502.84 8867.26) scale(0.710803)" fill="#6C5BA7"/>
<rect width="400" height="400" transform="translate(3900.17 8867.26) scale(0.710803)" fill="#121212"/>
<rect width="400" height="400" transform="translate(3105.5 11842.7) scale(0.710803)" fill="#212121"/>
<rect width="400" height="400" transform="translate(3502.84 11842.7) scale(0.710803)" fill="#6C5BA7"/>
<rect width="400" height="400" transform="translate(3900.17 11842.7) scale(0.710803)" fill="#BFBFBF"/>
<rect width="400" height="400" transform="translate(3272.54 14766.9) scale(0.710803)" fill="#212121"/>
<rect width="400" height="400" transform="translate(3669.87 14766.9) scale(0.710803)" fill="#6C5BA7"/>
<rect width="400" height="400" transform="translate(3072.8 17716.8) scale(0.710803)" fill="#212121"/>
<rect width="400" height="400" transform="translate(3470.14 17716.8) scale(0.710803)" fill="#6C5BA7"/>
<rect width="400" height="400" transform="translate(3867.48 17716.8) scale(0.710803)" fill="#BFBFBF"/>
<rect width="400" height="400" transform="translate(3304.52 20666.6) scale(0.710803)" fill="#6C5BA7"/>
<rect width="400" height="400" transform="translate(3701.86 20666.6) scale(0.710803)" fill="#121212"/>
<rect width="400" height="400" transform="translate(2907.18 23616.4) scale(0.710803)" fill="#212121"/>
<rect width="400" height="400" transform="translate(3304.52 23616.4) scale(0.710803)" fill="#6C5BA7"/>
<rect width="400" height="400" transform="translate(3701.86 23616.4) scale(0.710803)" fill="#BFBFBF"/>
<rect width="400" height="400" transform="translate(4099.2 23616.4) scale(0.710803)" fill="#121212"/>
<rect width="400" height="400" transform="translate(2907.18 26566.2) scale(0.710803)" fill="#212121"/>
<rect width="400" height="400" transform="translate(3304.52 26566.2) scale(0.710803)" fill="#6C5BA7"/>
<rect width="400" height="400" transform="translate(3701.86 26566.2) scale(0.710803)" fill="#BFBFBF"/>
<rect width="400" height="400" transform="translate(4099.2 26566.2) scale(0.710803)" fill="#121212"/>
<rect width="400" height="400" transform="translate(3304.52 29516.1) scale(0.710803)" fill="#212121"/>
<rect width="400" height="400" transform="translate(3701.86 29516.1) scale(0.710803)" fill="#6C5BA7"/>
<rect width="400" height="400" transform="translate(3502.84 32465.9) scale(0.710803)" fill="#6C5BA7"/>
<rect width="400" height="400" transform="translate(6147.73) scale(0.710803)" fill="#6C5BA7"/>
<rect width="400" height="400" transform="translate(6545.07) scale(0.710803)" fill="#BFBFBF"/>
<rect width="400" height="400" transform="translate(6344.62 2967.6) scale(0.710803)" fill="#6C5BA7"/>
<rect width="400" height="400" transform="translate(5748.97 5917.43) scale(0.710803)" fill="#212121"/>
<rect width="400" height="400" transform="translate(6146.31 5917.43) scale(0.710803)" fill="#6C5BA7"/>
<rect width="400" height="400" transform="translate(6543.65 5917.43) scale(0.710803)" fill="#BFBFBF"/>
<rect width="400" height="400" transform="translate(6940.99 5917.43) scale(0.710803)" fill="#121212"/>
<rect width="400" height="400" transform="translate(5750.39 8867.26) scale(0.710803)" fill="#212121"/>
<rect width="400" height="400" transform="translate(6147.73 8867.26) scale(0.710803)" fill="#6C5BA7"/>
<rect width="400" height="400" transform="translate(6545.07 8867.26) scale(0.710803)" fill="#BFBFBF"/>
<rect width="400" height="400" transform="translate(6942.41 8867.26) scale(0.710803)" fill="#121212"/>
<rect width="400" height="400" transform="translate(6147.73 11842.7) scale(0.710803)" fill="#212121"/>
<rect width="400" height="400" transform="translate(6545.07 11842.7) scale(0.710803)" fill="#6C5BA7"/>
<rect width="400" height="400" transform="translate(6115.75 14766.9) scale(0.710803)" fill="#121212"/>
<rect width="400" height="400" transform="translate(6513.08 14766.9) scale(0.710803)" fill="#6C5BA7"/>
<rect width="400" height="400" transform="translate(6115.75 17716.8) scale(0.710803)" fill="#212121"/>
<rect width="400" height="400" transform="translate(6513.08 17716.8) scale(0.710803)" fill="#6C5BA7"/>
<rect width="400" height="400" transform="translate(6147.73 20666.6) scale(0.710803)" fill="#212121"/>
<rect width="400" height="400" transform="translate(6545.07 20666.6) scale(0.710803)" fill="#6C5BA7"/>
<rect width="400" height="400" transform="translate(6346.05 23616.4) scale(0.710803)" fill="#6C5BA7"/>
<rect width="400" height="400" transform="translate(5750.39 26566.2) scale(0.710803)" fill="#212121"/>
<rect width="400" height="400" transform="translate(6147.73 26566.2) scale(0.710803)" fill="#6C5BA7"/>
<rect width="400" height="400" transform="translate(6545.07 26566.2) scale(0.710803)" fill="#BFBFBF"/>
<rect width="400" height="400" transform="translate(6942.41 26566.2) scale(0.710803)" fill="#121212"/>
<rect width="400" height="400" transform="translate(6147.73 29516.1) scale(0.710803)" fill="#6C5BA7"/>
<rect width="400" height="400" transform="translate(6545.07 29516.1) scale(0.710803)" fill="#BFBFBF"/>
<rect width="400" height="400" transform="translate(6147.73 32465.9) scale(0.710803)" fill="#6C5BA7"/>
<rect width="400" height="400" transform="translate(6545.07 32465.9) scale(0.710803)" fill="#BFBFBF"/>
<rect width="400" height="400" transform="translate(8990.94) scale(0.710803)" fill="#212121"/>
<rect width="400" height="400" transform="translate(9388.28) scale(0.710803)" fill="#6C5BA7"/>
<rect width="400" height="400" transform="translate(8791.92 2967.6) scale(0.710803)" fill="#212121"/>
<rect width="400" height="400" transform="translate(9189.26 2967.6) scale(0.710803)" fill="#6C5BA7"/>
<rect width="400" height="400" transform="translate(9586.59 2967.6) scale(0.710803)" fill="#BFBFBF"/>
<rect width="400" height="400" transform="translate(8593.6 5917.43) scale(0.710803)" fill="#212121"/>
<rect width="400" height="400" transform="translate(8990.94 5917.43) scale(0.710803)" fill="#6C5BA7"/>
<rect width="400" height="400" transform="translate(9388.28 5917.43) scale(0.710803)" fill="#BFBFBF"/>
<rect width="400" height="400" transform="translate(9785.62 5917.43) scale(0.710803)" fill="#121212"/>
<rect width="400" height="400" transform="translate(8990.94 8867.26) scale(0.710803)" fill="#6C5BA7"/>
<rect width="400" height="400" transform="translate(9388.28 8867.26) scale(0.710803)" fill="#BFBFBF"/>
<rect width="400" height="400" transform="translate(8990.94 11842.7) scale(0.710803)" fill="#212121"/>
<rect width="400" height="400" transform="translate(9388.28 11842.7) scale(0.710803)" fill="#6C5BA7"/>
<rect width="400" height="400" transform="translate(8759.93 14766.9) scale(0.710803)" fill="#212121"/>
<rect width="400" height="400" transform="translate(9157.27 14766.9) scale(0.710803)" fill="#6C5BA7"/>
<rect width="400" height="400" transform="translate(9554.61 14766.9) scale(0.710803)" fill="#BFBFBF"/>
<rect width="400" height="400" transform="translate(9157.27 17716.8) scale(0.710803)" fill="#212121"/>
<rect width="400" height="400" transform="translate(9189.26 20666.6) scale(0.710803)" fill="#121212"/>
<rect width="400" height="400" transform="translate(8791.92 23616.4) scale(0.710803)" fill="#212121"/>
<rect width="400" height="400" transform="translate(9189.26 23616.4) scale(0.710803)" fill="#6C5BA7"/>
<rect width="400" height="400" transform="translate(9586.59 23616.4) scale(0.710803)" fill="#BFBFBF"/>
<rect width="400" height="400" transform="translate(8791.92 26566.2) scale(0.710803)" fill="#212121"/>
<rect width="400" height="400" transform="translate(9189.26 26566.2) scale(0.710803)" fill="#6C5BA7"/>
<rect width="400" height="400" transform="translate(9586.59 26566.2) scale(0.710803)" fill="#BFBFBF"/>
<rect width="400" height="400" transform="translate(8593.6 29516.1) scale(0.710803)" fill="#212121"/>
<rect width="400" height="400" transform="translate(8990.94 29516.1) scale(0.710803)" fill="#6C5BA7"/>
<rect width="400" height="400" transform="translate(9388.28 29516.1) scale(0.710803)" fill="#BFBFBF"/>
<rect width="400" height="400" transform="translate(9785.62 29516.1) scale(0.710803)" fill="#121212"/>
<rect width="400" height="400" transform="translate(8791.92 32483.7) scale(0.710803)" fill="#212121"/>
<rect width="400" height="400" transform="translate(9189.26 32483.7) scale(0.710803)" fill="#6C5BA7"/>
<rect width="400" height="400" transform="translate(9586.59 32483.7) scale(0.710803)" fill="#BFBFBF"/>
<rect width="400" height="400" transform="translate(12032.5) scale(0.710803)" fill="#BFBFBF"/>
<rect width="400" height="400" transform="translate(12032.5 2967.6) scale(0.710803)" fill="#121212"/>
<rect width="400" height="400" transform="translate(11635.1 5917.43) scale(0.710803)" fill="#212121"/>
<rect width="400" height="400" transform="translate(12032.5 5917.43) scale(0.710803)" fill="#6C5BA7"/>
<rect width="400" height="400" transform="translate(12429.8 5917.43) scale(0.710803)" fill="#BFBFBF"/>
<rect width="400" height="400" transform="translate(11436.8 8867.26) scale(0.710803)" fill="#212121"/>
<rect width="400" height="400" transform="translate(11834.2 8867.26) scale(0.710803)" fill="#6C5BA7"/>
<rect width="400" height="400" transform="translate(12231.5 8867.26) scale(0.710803)" fill="#BFBFBF"/>
<rect width="400" height="400" transform="translate(12628.8 8867.26) scale(0.710803)" fill="#212121"/>
<rect width="400" height="400" transform="translate(12032.5 11842.7) scale(0.710803)" fill="#6C5BA7"/>
<rect width="400" height="400" transform="translate(11404.8 14766.9) scale(0.710803)" fill="#212121"/>
<rect width="400" height="400" transform="translate(11802.2 14766.9) scale(0.710803)" fill="#6C5BA7"/>
<rect width="400" height="400" transform="translate(12199.5 14766.9) scale(0.710803)" fill="#BFBFBF"/>
<rect width="400" height="400" transform="translate(12596.8 14766.9) scale(0.710803)" fill="#121212"/>
<rect width="400" height="400" transform="translate(11635.1 17716.8) scale(0.710803)" fill="#212121"/>
<rect width="400" height="400" transform="translate(12032.5 17716.8) scale(0.710803)" fill="#6C5BA7"/>
<rect width="400" height="400" transform="translate(12429.8 17716.8) scale(0.710803)" fill="#BFBFBF"/>
<rect width="400" height="400" transform="translate(11635.1 20666.6) scale(0.710803)" fill="#212121"/>
<rect width="400" height="400" transform="translate(12032.5 20666.6) scale(0.710803)" fill="#6C5BA7"/>
<rect width="400" height="400" transform="translate(12429.8 20666.6) scale(0.710803)" fill="#BFBFBF"/>
<rect width="400" height="400" transform="translate(11834.2 23616.4) scale(0.710803)" fill="#BFBFBF"/>
<rect width="400" height="400" transform="translate(12231.5 23616.4) scale(0.710803)" fill="#6C5BA7"/>
<rect width="400" height="400" transform="translate(11834.2 26566.2) scale(0.710803)" fill="#121212"/>
<rect width="400" height="400" transform="translate(12231.5 26566.2) scale(0.710803)" fill="#6C5BA7"/>
<rect width="400" height="400" transform="translate(11635.1 29516.1) scale(0.710803)" fill="#212121"/>
<rect width="400" height="400" transform="translate(12032.5 29516.1) scale(0.710803)" fill="#6C5BA7"/>
<rect width="400" height="400" transform="translate(12429.8 29533.8) scale(0.710803)" fill="#BFBFBF"/>
<rect width="400" height="400" transform="translate(11436.8 32483.7) scale(0.710803)" fill="#212121"/>
<rect width="400" height="400" transform="translate(11834.2 32483.7) scale(0.710803)" fill="#6C5BA7"/>
<rect width="400" height="400" transform="translate(12231.5 32483.7) scale(0.710803)" fill="#BFBFBF"/>
<rect width="400" height="400" transform="translate(12628.8 32483.7) scale(0.710803)" fill="#121212"/>
</svg>
