<svg width="708" height="692" viewBox="0 0 708 692" fill="none" xmlns="http://www.w3.org/2000/svg">
<g filter="url(#filter0_d)">
<rect x="40.8975" y="0.00585938" width="626.667" height="611"/>
<mask id="mask0" mask-type="alpha" maskUnits="userSpaceOnUse" x="40" y="0" width="628" height="612">
<rect x="40.8462" y="0.00585938" width="626.667" height="611"/>
</mask>
<g mask="url(#mask0)">
<g style="mix-blend-mode:multiply">
<path d="M9.27246 60.752C9.27246 5.52355 54.044 -39.248 109.272 -39.248H598.781C654.009 -39.248 698.781 5.52348 698.781 60.752V550.26C698.781 605.489 654.009 650.26 598.781 650.26H109.273C54.0441 650.26 9.27246 605.489 9.27246 550.26V60.752Z" fill="#EFE8E8"/>
</g>
</g>
<rect x="48.9922" y="0.00585938" width="612.828" height="611"/>
<mask id="mask1" mask-type="alpha" maskUnits="userSpaceOnUse" x="48" y="0" width="614" height="612">
<rect x="48.9922" y="0.00585938" width="612.828" height="611"/>
</mask>
<g mask="url(#mask1)">
<g style="mix-blend-mode:multiply">
<path d="M12.6855 42.4579C12.6855 -1.72485 48.5028 -37.542 92.6855 -37.542H618.781C662.963 -37.542 698.781 -1.72477 698.781 42.458V568.553C698.781 612.736 662.963 648.553 618.781 648.553H92.6855C48.5027 648.553 12.6855 612.736 12.6855 568.553V42.4579Z" fill="#6C5BA7"/>
</g>
</g>
<g style="mix-blend-mode:screen" opacity="0.5">
<rect x="40.8462" y="0.00585938" width="626.667" height="611"/>
</g>
</g>
<defs>
<filter id="filter0_d" x="0.846191" y="0.00585938" width="706.718" height="691" filterUnits="userSpaceOnUse" color-interpolation-filters="sRGB">
<feFlood flood-opacity="0" result="BackgroundImageFix"/>
<feColorMatrix in="SourceAlpha" type="matrix" values="0 0 0 0 0 0 0 0 0 0 0 0 0 0 0 0 0 0 127 0"/>
<feOffset dy="40"/>
<feGaussianBlur stdDeviation="20"/>
<feColorMatrix type="matrix" values="0 0 0 0 0 0 0 0 0 0 0 0 0 0 0 0 0 0 0.25 0"/>
<feBlend mode="normal" in2="BackgroundImageFix" result="effect1_dropShadow"/>
<feBlend mode="normal" in="SourceGraphic" in2="effect1_dropShadow" result="shape"/>
</filter>
</defs>
</svg>
